<svg width="362" height="351" viewBox="0 0 362 351" fill="none" xmlns="http://www.w3.org/2000/svg">
<path d="M181 351C280.964 351 362 327.495 362 298.5C362 269.505 280.964 246 181 246C81.0365 246 0 269.505 0 298.5C0 327.495 81.0365 351 181 351Z" fill="#FFF6D2"/>
<path d="M108.479 28.2813C106.037 24.1808 106.365 20.704 111.919 18.8692C111.615 17.3619 111.157 15.8817 111.048 14.3763C110.833 11.427 112.209 10.2575 115.121 10.6832C115.271 10.7052 115.427 10.6859 115.656 10.6859C115.602 9.78065 115.538 8.89782 115.499 8.01375C115.375 5.18598 118.064 2.36167 120.856 1.87149C122.773 1.5349 124.28 2.35896 125.646 3.8021C125.822 3.39835 125.915 3.0504 126.107 2.77036C126.524 2.16411 126.893 1.46526 127.455 1.02866C129.909 -0.87603 132.495 -0.0633306 133.503 2.8684C133.724 3.50873 133.903 4.16314 134.019 4.54393C134.653 4.03744 135.32 3.50799 135.982 2.97286C136.955 2.18733 138.019 1.6075 139.295 1.51292C141.809 1.32647 143.117 2.49897 143.189 5.01386C143.208 5.69271 143.192 6.37255 143.192 7.19809C143.701 6.78717 144.136 6.41923 144.589 6.07474C145.413 5.44849 146.31 5.02078 147.381 5.03387C149.364 5.05782 150.467 6.16512 150.407 8.13649C150.391 8.66174 150.286 9.18403 150.203 9.85251C150.574 9.77126 150.905 9.70212 151.235 9.62483C151.546 9.55198 151.854 9.46233 152.167 9.39467C154.133 8.96968 156.014 8.96449 157.457 10.6617C158.868 12.3207 158.491 14.1286 157.811 15.9439C157.684 16.2825 157.571 16.6262 157.446 16.983C163.531 17.8538 164.264 21.4987 161.382 25.7323C162.072 26.1114 162.815 26.4188 163.444 26.8821C165.844 28.6522 166.295 32.081 164.43 34.4048C162.661 36.6093 160.661 38.4996 157.545 38.7592C157.496 39.5817 157.454 40.3073 157.404 41.1501C157.732 41.0059 157.918 40.9165 158.109 40.8414C159.531 40.2823 160.233 40.7053 160.086 42.1764C159.943 43.6008 159.76 45.0563 159.318 46.4078C158.607 48.5817 157.67 50.6814 156.826 52.8116C156.653 53.2482 156.469 53.6806 156.239 54.2374C157.082 54.3249 157.809 54.3701 158.525 54.4809C159.967 54.7039 160.552 55.3018 160.915 56.6859C161.128 57.4964 161.484 58.2683 161.726 59.0724C161.891 59.6223 162.064 60.1972 162.07 60.7627C162.089 62.6136 162.481 63.1919 164.256 63.6843C167.823 64.6741 171.215 66.0182 174.234 68.2368C175.877 69.4443 176.998 70.9588 177.892 72.7805C181.097 79.3098 182.684 86.3292 184.303 93.3429C184.938 96.0956 185.512 98.8629 186.111 101.624C186.178 101.936 186.24 102.251 186.283 102.568C186.557 104.584 186.43 104.744 184.424 104.962C184.326 104.973 184.233 105.039 184.008 105.133C184.268 106.603 184.539 108.105 184.799 109.608C185.515 113.759 186.213 117.912 186.949 122.059C187.188 123.409 187.109 124.73 186.665 126.004C185.174 130.281 183.71 134.57 182.091 138.799C181.385 140.644 180.886 142.413 181.415 144.379C181.56 144.92 181.501 145.516 181.544 146.224C180.575 146.224 179.752 146.224 178.799 146.224C177.623 148.177 176.407 150.11 175.298 152.103C175.013 152.616 174.93 153.33 174.985 153.93C176.086 165.824 177.277 177.71 178.329 189.609C178.968 196.84 180.128 203.999 181.02 211.194C181.709 216.75 182.237 222.329 182.733 227.907C183.498 236.515 184.224 245.127 184.878 253.744C185.738 265.073 186.982 276.381 186.928 287.764C186.924 288.577 187.144 289.13 187.776 289.684C189.331 291.046 190.64 292.603 190.454 294.876C190.399 295.554 190.231 296.222 190.086 297.057C191.194 298.868 191.354 301.088 191.475 303.317C191.701 307.456 187.927 309.709 184.161 308.763C181.747 308.157 179.667 306.83 177.592 305.517C177.096 305.204 176.614 304.864 176.157 304.497C174.565 303.219 172.732 302.386 170.932 301.452C167.53 299.687 164.251 297.681 160.956 295.718C160.327 295.343 159.755 295.117 159.025 295.192C156.373 295.466 153.715 295.691 151.063 295.968C149.241 296.159 147.434 296.143 145.666 295.636C144.238 295.227 143.801 294.628 143.796 293.235C143.765 284.858 143.73 276.481 143.709 268.104C143.698 263.728 143.772 259.351 143.7 254.977C143.635 251.004 144.291 247.111 144.786 243.199C145.676 236.164 146.622 229.137 147.541 222.105C148.459 215.074 149.378 208.042 150.287 201.01C151.081 194.876 151.859 188.74 152.65 182.605C152.91 180.596 153.189 178.589 153.461 176.582C153.483 176.423 153.544 176.268 153.548 176.111C153.564 175.606 153.8 174.89 153.056 174.82C152.31 174.75 152.39 175.491 152.325 176C150.812 187.956 149.307 199.913 147.79 211.868C146.52 221.866 145.307 231.871 143.935 241.855C143.1 247.928 141.956 253.958 141.051 260.023C140.162 265.982 139.393 271.959 138.582 277.93C137.815 283.584 137.066 289.241 136.298 294.895C136.069 296.591 135.601 296.906 133.944 296.399C129.305 294.98 124.68 293.519 120.043 292.099C118.938 291.761 117.804 291.519 116.512 291.189C116.104 293.428 115.616 295.417 116.675 297.525C117.144 298.46 117.343 299.751 117.129 300.768C116.361 304.428 115.827 308.097 115.628 311.836C115.508 314.086 114.671 316.203 113.693 318.232C111.67 322.426 106.48 324.97 101.909 324.045C99.7448 323.607 97.7325 322.909 95.9439 321.507C93.7863 319.817 92.721 317.734 92.9319 315.001C92.9729 314.471 92.9924 313.94 93.0269 313.312C91.5186 312.904 91.1395 311.743 91.2107 310.364C91.2707 309.199 91.283 308.009 91.5416 306.882C92.5032 302.688 95.3221 300.35 99.3796 299.347C100.153 299.156 100.946 299.04 101.717 298.891C102.737 297.203 105.441 289.629 105.517 288.104C103.45 287.578 101.35 287.023 99.2393 286.512C95.6651 285.647 92.0792 284.828 88.5088 283.948C87.6872 283.746 86.8805 283.43 86.1147 283.065C84.3155 282.208 83.8164 281.341 84.0562 279.369C84.4036 276.51 84.8313 273.662 85.2124 270.807C88.1569 248.749 92.658 226.967 96.9793 205.157C99.5814 192.024 102.852 179.047 106.934 166.283C108.913 160.092 110.807 153.875 112.826 147.392C111.393 145.751 109.804 143.891 108.162 142.08C107.707 141.577 107.38 141.15 107.508 140.407C108.148 136.678 108.76 132.944 109.35 129.207C110.082 124.572 110.796 119.934 111.494 115.294C111.836 113.027 112.123 110.752 112.409 108.671C111.921 107.947 111.367 107.404 111.142 106.748C108.837 100.015 106.99 93.159 106.782 86.0062C106.495 76.1862 110.59 68.565 118.879 63.2875C121.302 61.7446 123.889 60.4535 126.427 59.0968C128.449 58.0164 130.512 57.0153 132.552 55.9698C132.781 55.8522 132.98 55.6742 133.196 55.5218C132.077 54.1266 129.759 52.9696 128.359 53.1388C128.241 53.7176 128.151 54.3409 127.984 54.943C127.43 56.9408 126.419 58.5491 124.307 59.2326C122.643 59.771 121.931 59.5643 120.877 58.1439C120.752 57.9754 120.617 57.8144 120.428 57.5759C119.638 57.9068 118.867 58.2434 118.085 58.5535C117.343 58.8481 116.608 59.1951 115.837 59.3798C112.719 60.1266 110.055 57.3104 110.966 54.232C111.207 53.4198 111.608 52.6558 111.929 51.8668C112.103 51.4376 112.263 51.0025 112.507 50.3698C111.853 50.2792 111.347 50.2063 110.84 50.1396C109.157 49.9181 107.605 49.3114 106.364 48.1762C105.643 47.5161 105.014 46.6481 104.629 45.7512C103.946 44.1609 104.474 42.9908 105.992 42.1532C106.224 42.0255 106.466 41.9178 106.742 41.7823C105.839 40.7503 104.945 39.7837 104.115 38.7643C103.063 37.4704 102.628 35.9679 102.703 34.2929C102.827 31.5093 104.199 29.6805 106.846 28.8572C107.351 28.7001 107.858 28.5465 108.362 28.3857C108.408 28.3702 108.441 28.3156 108.479 28.2813ZM171.782 75.8459C172.409 76.2257 172.417 76.8843 172.5 77.4982C173.473 84.6816 174.44 91.866 175.417 99.0489C175.493 99.6067 175.631 100.156 175.745 100.732C178.716 100.529 181.518 100.337 184.492 100.133C183.689 96.0541 182.864 92.183 181.815 88.3161C181.147 88.729 180.634 89.0463 180.038 89.4158C179.528 88.3504 180.101 87.7173 180.555 87.2291C181.281 86.4492 181.251 85.681 181.02 84.7512C179.935 80.3803 178.185 76.2622 176.24 72.2262C175.815 71.3426 175.11 70.5282 174.364 69.875C171.128 67.0393 167.251 65.4977 163.275 64.5074C162.272 66.2387 161.32 67.8814 160.369 69.5231C161.076 70.3839 162.4 70.741 162.549 72.1227C161.368 72.746 160.76 71.245 159.66 71.4757C159.66 71.8799 159.655 72.3012 159.661 72.7223C159.812 85.1491 159.955 97.5758 160.12 110.003C160.209 116.722 160.349 123.442 160.435 130.161C160.448 131.19 160.711 131.956 161.59 132.611C162.652 133.404 163.587 134.374 164.532 135.313C164.708 135.488 164.673 135.876 164.735 136.166C164.396 136.21 163.98 136.399 163.736 136.267C163.28 136.023 162.931 135.586 162.528 135.24C161.956 134.749 161.531 134.042 160.618 133.837C160.639 137.186 160.596 140.412 160.7 143.597C164.23 143.597 167.523 143.597 170.841 143.597C171.387 142.45 171.914 141.284 172.496 140.146C172.735 139.68 173.057 139.241 173.413 138.857C173.537 138.724 173.904 138.72 174.11 138.794C174.239 138.84 174.366 139.16 174.334 139.328C174.267 139.688 174.1 140.03 173.969 140.379C173.54 141.521 173.11 142.662 172.608 143.998C175.107 144.295 177.453 144.575 179.973 144.875C179.893 143.976 179.857 143.295 179.769 142.621C179.158 137.916 178.59 133.205 177.903 128.511C176.983 122.227 178.041 124.1 174.421 118.257C174.183 117.874 174.018 117.446 173.771 116.94C175.598 116.384 175.446 118.436 176.518 118.677C176.39 115.053 174.034 97.9947 173.48 96.8172C173.021 97.361 172.619 97.9312 172.114 98.3898C171.901 98.5834 171.475 98.5414 171.145 98.6063C171.145 98.2811 171.025 97.8885 171.165 97.6435C171.613 96.8589 172.056 96.027 172.689 95.4044C173.443 94.6619 173.451 93.8951 173.326 92.9614C172.631 87.7837 171.971 82.6016 171.32 77.4182C171.252 76.8784 171.02 76.2375 171.782 75.8459ZM150.12 88.4984C150.008 88.4665 149.895 88.4344 149.783 88.4026C149.037 90.2532 148.316 92.1144 147.54 93.9521C146.318 96.8451 145.101 99.7413 143.803 102.6C142.922 104.54 141.861 106.397 140.958 108.328C138.696 113.164 135.575 117.394 131.905 121.235C131.247 121.924 130.477 122.514 129.715 123.091C129.074 123.577 128.317 123.681 127.611 123.247C126.801 122.749 125.962 122.253 125.274 121.608C121.05 117.648 117.314 113.29 114.577 108.142C114.415 107.837 114.179 107.57 113.942 107.237C113.759 107.434 113.583 107.533 113.567 107.655C112.086 118.467 110.618 129.281 109.138 140.171C109.471 140.277 109.81 140.417 110.162 140.491C121.213 142.823 132.264 145.154 143.319 147.463C143.971 147.599 144.661 147.548 145.5 147.593C145.632 146.226 145.775 145.02 145.862 143.809C146.15 139.821 146.376 135.829 146.722 131.846C146.808 130.857 146.659 130.08 145.997 129.359C145.602 128.929 145.261 128.446 144.922 127.968C144.63 127.556 144.4 127.032 144.923 126.719C145.171 126.572 145.681 126.766 146.027 126.912C146.327 127.04 146.564 127.318 146.982 127.652C148.039 114.461 149.08 101.48 150.12 88.4984ZM139.057 51.7848C139.528 52.2461 139.932 52.6471 140.342 53.043C143.07 55.6801 144.812 58.7901 145.414 62.6049C145.794 65.0109 146.583 67.3544 147.236 69.7133C147.371 70.2017 147.484 70.5919 147.154 71.0524C145.73 73.0438 144.368 75.0804 142.913 77.0492C142.091 78.1622 141.096 79.1463 140.243 80.2386C136.499 85.0332 132.386 89.4973 128.077 93.782C124.787 97.0545 121.443 100.272 118.108 103.5C117.045 104.528 115.935 105.509 114.845 106.514C117.789 112.074 121.644 116.801 126.2 120.97C128.209 122.808 128.783 122.796 130.699 120.818C133.941 117.472 136.848 113.866 138.944 109.668C140.706 106.139 142.474 102.612 144.195 99.0627C144.799 97.8183 145.284 96.5154 145.798 95.2294C146.965 92.31 148.043 89.3523 149.294 86.4697C150.61 83.4387 152.042 80.4623 152.992 77.2816C153.216 76.5334 153.62 75.7874 154.115 75.1816C155.764 73.1611 157.532 71.2374 159.172 69.2102C159.972 68.2222 160.603 67.0954 161.286 66.016C161.875 65.0855 161.886 64.153 161.38 63.141C161.082 62.5434 161.02 61.8283 160.846 61.1677C160.661 60.4644 160.485 59.7579 160.275 59.062C160.122 58.556 159.862 58.0777 159.751 57.565C159.402 55.9596 159.322 55.8619 157.68 55.7312C157.095 55.6845 156.504 55.7036 155.924 55.627C155.588 55.5826 155.269 55.408 154.873 55.2677C156.084 50.7269 158.693 46.7251 158.945 41.6842C158.444 42.146 158.114 42.3416 157.938 42.6308C157.223 43.8099 156.468 44.9772 155.89 46.2241C154.973 48.2033 154.356 50.3379 153.298 52.2323C152.003 54.5523 150.395 56.6982 148.898 58.9032C148.694 59.2028 148.351 59.407 147.949 59.7653C147.886 58.8343 147.899 58.1663 147.788 57.5196C147.214 54.1661 144.685 52.5661 141.958 51.2166C141.023 50.7538 140.015 50.88 139.057 51.7848ZM136.758 82.7895C136.72 82.6648 136.683 82.5401 136.645 82.4154C136.026 82.3608 135.4 82.3418 134.791 82.2319C134.58 82.1936 134.281 81.9484 134.254 81.7639C134.225 81.5634 134.412 81.2327 134.601 81.1229C134.858 80.9727 135.23 80.8702 135.511 80.9332C137.657 81.4145 139.009 80.408 140.081 78.6811C140.525 77.9647 141.195 77.3915 141.721 76.7213C143.363 74.6304 144.985 72.524 146.499 70.5721C146.018 69.1697 145.57 67.9807 145.209 66.7665C144.997 66.0562 144.672 65.5725 143.941 65.2902C141.669 64.4141 139.719 63.0094 137.99 61.3262C136.511 59.8868 135.132 58.3441 133.731 56.8716C130.989 58.2812 128.199 59.7038 125.42 61.1485C124.239 61.7629 123.087 62.4338 121.909 63.0571C121.314 63.3727 120.954 63.7535 120.832 64.4931C120.677 65.4273 120.315 66.3382 119.948 67.2194C119.84 67.4769 119.408 67.5994 119.125 67.7836C118.996 67.4693 118.748 67.1485 118.765 66.842C118.797 66.2459 118.978 65.6579 119.15 64.803C116.714 66.3474 114.774 67.9612 113.195 70.0128C109.51 74.8028 107.696 80.1939 107.969 86.2425C108.2 91.3815 109.329 96.3698 110.644 101.32C110.731 101.647 110.889 101.956 111.065 102.401C116.904 97.5963 122.615 92.8979 128.271 88.244C128.215 87.8499 128.197 87.639 128.153 87.4333C127.295 83.3678 126.422 79.3053 125.585 75.2357C125.455 74.6055 125.482 73.9432 125.413 72.9497C127.011 74.0792 126.436 75.7612 127.157 76.6383C128.194 77.3214 129.697 76.6033 130.312 78.3087C129.292 78.3087 128.432 78.3087 127.449 78.3087C128.314 82.2763 129.137 86.0462 130.029 90.1334C132.402 87.5427 134.58 85.1661 136.758 82.7895ZM123.341 28.4248C124.03 28.8982 124.547 29.1918 124.991 29.5701C126.279 30.6668 126.594 32.0529 126.004 33.6118C125.741 34.3048 125.36 34.9572 124.992 35.6047C124.294 36.832 124.408 37.7556 125.467 38.7058C125.821 39.0231 126.214 39.3345 126.644 39.5217C128.831 40.4717 128.763 42.3638 127.943 44.0887C127.306 45.4297 126.786 45.6494 125.334 45.2558C124.256 44.9632 123.288 45.2699 122.519 45.9673C121.708 46.7031 121.571 47.6978 121.886 48.7659C122.415 50.5602 124.203 52.1078 126.077 52.2014C127.752 52.2851 129.423 52.2206 130.261 50.3392C130.292 50.2693 130.537 50.295 130.673 50.2772C130.734 50.411 130.822 50.5103 130.814 50.6007C130.772 51.0681 130.705 51.5331 130.638 52.072C133.947 54.4133 137.482 56.2004 141.794 56.5419C141.612 56.1967 141.548 55.9868 141.416 55.8376C140.531 54.8422 139.625 53.8653 138.738 52.8711C137.873 51.9013 138.008 51.0141 139.132 50.3903C140.228 49.7816 141.403 49.6776 142.511 50.2589C145.083 51.6082 147.578 53.0679 148.541 56.0977C148.596 56.2713 148.769 56.4076 148.883 56.5563C149.925 55.1146 150.949 53.7539 151.907 52.3481C152.353 51.6922 152.713 50.9674 153.038 50.2404C153.603 48.9755 154.061 47.6623 154.649 46.4088C157.029 41.3341 156.986 36.0867 155.806 30.7589C155.285 28.4033 154.143 26.3467 152.347 24.7509C150.695 23.2829 148.894 21.982 147.358 20.7657C146.045 20.8433 144.889 21.1446 143.857 20.9068C142.84 20.6722 141.949 19.8918 140.939 19.3142C137.96 21.6066 134.648 20.7586 131.33 19.7219C131.137 20.3252 130.998 20.7808 130.846 21.232C130.699 21.6696 130.537 22.1025 130.373 22.5635C130.971 22.911 131.491 23.1789 131.974 23.5014C133.072 24.2331 133.387 25.1621 133.002 26.4117C132.376 28.4406 129.922 29.8247 127.897 29.2496C127.656 29.1812 127.424 28.8804 127.323 28.6322C127.285 28.5396 127.603 28.1951 127.81 28.1304C128.315 27.9723 128.868 27.9608 129.37 27.7963C129.914 27.6182 130.507 27.433 130.931 27.0762C132.211 25.9993 132.075 25.0703 130.615 24.2647C129.84 23.837 129.076 23.3895 128.238 22.9122C128.531 22.4129 128.755 22.1163 128.89 21.7837C129.228 20.949 129.626 20.1192 129.81 19.2473C129.993 18.3817 129.183 17.4787 128.595 17.8301C127.716 18.3558 126.994 19.1688 126.266 19.9187C125.711 20.4904 126.27 21.0164 126.501 21.5152C127.616 23.9279 126.404 26.1869 125.016 27.2451C124.64 27.5306 124.244 27.7899 123.341 28.4248ZM176.262 105.255C177.711 116.237 179.137 127.04 180.562 137.842C180.654 137.893 180.747 137.944 180.84 137.995C180.899 137.844 180.963 137.696 181.016 137.544C182.417 133.463 183.83 129.385 185.21 125.297C185.606 124.12 185.629 122.925 185.416 121.673C184.79 117.996 184.272 114.301 183.703 110.615C183.403 108.677 183.083 106.741 182.758 104.714C180.578 104.56 178.539 104.832 176.262 105.255ZM114.029 302.708C114.371 300.845 114.801 299.344 114.889 297.823C115.024 295.516 114.553 293.177 115.496 290.858C112.504 290.016 109.719 289.232 106.972 288.459C105.88 292.049 104.851 295.434 103.791 298.92C107.625 298.941 110.768 300.573 114.029 302.708ZM102.384 315.258C102.496 315.306 102.607 315.354 102.718 315.402C102.399 316.045 102.058 316.677 101.768 317.332C101.466 318.01 101.114 318.689 100.964 319.405C100.753 320.406 101.435 320.87 102.409 320.532C103.552 320.134 103.832 319.216 103.975 318.166C104.082 317.379 104.173 316.574 104.426 315.829C104.529 315.524 105.074 315.138 105.351 315.185C105.645 315.234 105.958 315.72 106.08 316.078C106.19 316.4 106.087 316.813 106.019 317.175C105.871 317.958 105.693 318.736 105.512 319.512C105.37 320.125 105.396 320.695 105.964 321.08C106.595 321.506 107.221 321.279 107.743 320.883C108.712 320.148 109.311 319.136 109.544 317.951C109.901 316.129 110.206 314.296 110.51 312.464C110.568 312.116 110.519 311.75 110.519 311.31C109.943 311.14 109.394 310.961 108.836 310.815C106.389 310.176 103.891 310.104 101.382 310.166C98.3348 310.241 98.3274 310.233 96.8015 312.902C96.3908 313.62 95.9263 314.34 96.035 315.24C97.0996 315.258 97.1191 315.269 97.4665 314.619C97.8584 313.886 98.2834 313.203 99.148 312.892C98.503 314.274 97.3495 315.482 97.8703 317.556C98.9104 316.354 99.3411 314.957 100.868 314.168C100.032 316.022 98.5348 317.339 99.0314 319.509C101.024 318.669 100.946 316.336 102.384 315.258ZM128.471 89.4822C127.958 89.8531 127.524 90.1368 127.122 90.4608C122.399 94.271 117.68 98.0872 112.961 101.902C112.546 102.237 112.093 102.536 111.738 102.925C111.517 103.167 111.278 103.584 111.34 103.856C111.582 104.925 111.939 105.968 112.318 107.237C118.412 102.222 123.499 96.5643 128.924 91.2659C128.769 90.6567 128.641 90.1517 128.471 89.4822ZM158.981 126.78C158.981 125.031 158.981 123.616 158.981 122.1C155.512 121.653 152.133 121.14 148.611 121.17C148.519 122.959 148.351 124.571 148.606 126.342C152.095 126.489 155.464 126.631 158.981 126.78ZM150.496 97.9144C150.339 99.9749 150.192 101.897 150.044 103.837C153.053 104.029 155.837 104.206 158.656 104.385C158.656 102.431 158.656 100.54 158.656 98.5145C155.926 98.3135 153.29 98.1199 150.496 97.9144ZM158.916 112.153C155.698 111.866 152.653 111.594 149.465 111.31C149.328 113.021 149.209 114.518 149.073 116.22C152.515 115.951 155.69 116.691 158.916 116.591C158.916 115.083 158.916 113.764 158.916 112.153ZM151.032 90.747C153.668 90.9984 156.073 91.2276 158.508 91.4597C158.508 89.8042 158.508 88.2875 158.508 86.608C156.079 86.5226 153.762 86.4411 151.399 86.3581C151.265 87.9553 151.151 89.3241 151.032 90.747ZM135.263 56.5232C137.812 59.7147 140.523 62.5301 144.425 64.2523C144.338 62.1846 143.884 60.4558 143.186 58.7778C142.965 58.2463 142.655 57.9525 142.036 57.8446C139.851 57.4635 137.68 57.0017 135.263 56.5232ZM190.093 301.307C189.718 299.052 188.078 298.273 186.357 297.171C188.18 296.964 188.974 298.023 189.948 298.734C189.72 298.13 189.455 297.61 189.115 297.145C188.316 296.05 186.617 295.288 185.822 295.762C184.695 296.432 183.589 297.176 182.858 298.528C183.698 299.305 184.452 300.139 185.339 300.791C186.674 301.772 188.373 302.23 189.321 303.785C190.059 303.099 189.968 302.521 189.496 301.979C188.484 300.818 187.526 299.593 186.018 298.996C185.787 298.905 185.634 298.619 185.348 298.324C186.816 298.349 186.816 298.349 190.093 301.307ZM96.9889 310.768C95.9404 311.128 95.1151 311.283 94.64 312.108C93.3344 314.373 94.0809 318.306 96.1345 320.022C98.2153 321.761 100.654 322.583 103.314 322.792C103.964 322.843 104.628 322.708 105.411 322.648C105.056 322.105 104.793 321.774 104.609 321.404C104.422 321.029 104.313 320.616 104.17 320.219C103.365 321.513 102.501 321.979 101.351 321.66C100.258 321.356 99.5774 320.223 98.36 320.127C98.2474 320.118 98.0567 319.896 98.0622 319.78C98.1167 318.575 96.8306 318.103 96.5872 317.053C96.5289 316.802 96.239 316.569 96.0031 316.401C94.9455 315.652 94.7269 315.187 95.2403 313.997C95.6784 312.98 96.2908 312.039 96.9889 310.768ZM153.463 80.2089C154.074 80.3398 154.625 80.5838 155.158 80.547C156.422 80.4593 157.305 79.7261 157.883 78.6117C158.518 77.3891 158.684 73.7757 158.178 71.9972C155.477 74.5465 153.875 77.2843 153.463 80.2089ZM180.333 301.776C181.487 302.769 182.37 303.611 183.34 304.335C184.007 304.833 184.76 305.263 185.539 305.551C186.449 305.886 187.438 305.379 187.794 304.571C188.126 303.818 187.922 303.398 186.749 302.783C185.129 301.932 183.672 300.912 182.637 299.365C182.561 299.25 182.388 299.2 182.163 299.059C181.541 299.983 180.929 300.891 180.333 301.776ZM176.137 103.851C179.14 103.385 182.068 103.034 185.093 103.755C185.012 103.078 184.983 102.655 184.904 102.242C184.856 101.99 184.731 101.752 184.593 101.379C181.701 101.54 178.814 101.701 175.834 101.867C175.946 102.605 176.032 103.165 176.137 103.851ZM109.532 320.775C111.688 319.498 112.838 317.53 113.403 315.206C113.665 314.128 112.585 312.565 111.572 312.207C111.266 313.594 110.817 314.977 110.689 316.388C110.55 317.931 110.334 319.408 109.532 320.775ZM180.005 302.803C179.538 303.549 179.235 304.094 179.972 304.612C181.723 305.841 183.556 306.927 185.651 307.439C187.819 307.969 190.009 306.394 190.358 304.085C189.622 304.325 188.966 304.442 188.554 305.304C187.935 306.599 186.65 307.089 185.316 306.53C184.214 306.067 183.226 305.311 182.235 304.617C181.474 304.083 180.785 303.444 180.005 302.803ZM171.895 297.925C169.379 295.701 166.114 294.561 163.954 295.156C166.384 296.596 168.768 298.008 171.26 299.485C171.526 298.831 171.717 298.362 171.895 297.925ZM109.33 141.398C110.791 143.125 112.079 144.647 113.459 146.278C113.988 144.961 114.461 143.785 114.982 142.49C113.119 142.13 111.362 141.79 109.33 141.398ZM174.549 149.785C174.66 149.815 174.772 149.845 174.883 149.876C175.656 148.668 176.429 147.46 177.31 146.084C176.102 145.922 175.186 145.799 174.083 145.651C174.25 147.131 174.4 148.458 174.549 149.785ZM169.016 294.735C169.002 294.846 168.988 294.957 168.974 295.069C170.096 295.684 171.217 296.299 172.39 296.942C172.905 296.113 173.337 295.417 173.947 294.435C172.093 294.548 170.555 294.641 169.016 294.735ZM116.264 299.835C116.124 299.804 115.984 299.774 115.844 299.744C115.686 301.073 115.041 302.328 115.201 303.707C115.329 303.728 115.456 303.749 115.583 303.77C115.81 302.458 116.037 301.147 116.264 299.835Z" fill="#2A2A2A"/>
<path d="M171.782 75.8459C171.02 76.2376 171.251 76.8782 171.319 77.4187C171.97 82.6021 172.63 87.7843 173.325 92.962C173.45 93.8957 173.442 94.6627 172.688 95.405C172.055 96.0278 171.612 96.8595 171.164 97.644C171.024 97.8892 171.143 98.2819 171.144 98.6069C171.474 98.5417 171.901 98.5837 172.113 98.3903C172.617 97.9317 173.02 97.3615 173.48 96.8177C174.033 97.9952 176.389 115.054 176.517 118.677C175.445 118.437 175.597 116.385 173.77 116.94C174.017 117.446 174.182 117.874 174.42 118.258C178.04 124.1 176.982 122.227 177.902 128.512C178.589 133.205 179.157 137.917 179.768 142.621C179.856 143.296 179.892 143.977 179.972 144.876C177.452 144.575 175.106 144.296 172.607 143.998C173.109 142.663 173.54 141.522 173.968 140.379C174.099 140.031 174.266 139.689 174.333 139.328C174.365 139.161 174.238 138.841 174.109 138.795C173.903 138.72 173.536 138.724 173.412 138.857C173.056 139.242 172.734 139.68 172.495 140.147C171.913 141.284 171.386 142.45 170.84 143.598C167.522 143.598 164.229 143.598 160.699 143.598C160.595 140.412 160.638 137.186 160.617 133.837C161.53 134.043 161.955 134.75 162.527 135.241C162.93 135.586 163.279 136.023 163.735 136.268C163.979 136.399 164.395 136.211 164.734 136.166C164.672 135.877 164.707 135.488 164.531 135.313C163.586 134.374 162.651 133.404 161.589 132.611C160.711 131.956 160.447 131.191 160.434 130.162C160.348 123.442 160.208 116.723 160.119 110.003C159.954 97.5766 159.811 85.1498 159.66 72.7228C159.655 72.3018 159.659 71.8805 159.659 71.4762C160.759 71.2456 161.367 72.7463 162.548 72.1232C162.399 70.7416 161.075 70.3845 160.367 69.5244C161.318 67.8822 162.271 66.2395 163.274 64.5082C167.25 65.4984 171.127 67.0401 174.363 69.8758C175.109 70.5289 175.814 71.3434 176.239 72.227C178.183 76.263 179.934 80.3811 181.019 84.752C181.25 85.6815 181.28 86.45 180.554 87.2299C180.099 87.7181 179.527 88.3512 180.036 89.4165C180.633 89.0471 181.146 88.7298 181.813 88.3169C182.863 92.1838 183.688 96.0549 184.491 100.134C181.517 100.338 178.715 100.53 175.744 100.733C175.63 100.157 175.491 99.6075 175.416 99.0496C174.439 91.8667 173.472 84.6824 172.499 77.499C172.417 76.8843 172.409 76.2257 171.782 75.8459ZM165.793 114.518C166.191 114.48 166.493 114.526 166.709 114.411C167.006 114.252 167.343 114.012 167.456 113.726C167.518 113.57 167.19 113.2 166.966 113.011C166.775 112.85 166.489 112.763 166.232 112.724C165.182 112.568 164.129 112.427 163.074 112.314C162.582 112.261 162.063 112.308 161.97 112.938C161.883 113.53 162.305 113.818 162.797 113.929C163.831 114.162 164.876 114.341 165.793 114.518ZM167.261 74.4391C167.653 74.2371 167.985 74.1793 168.087 73.9946C168.848 72.6181 169.579 71.2239 170.271 69.8118C170.349 69.6533 170.182 69.1957 170.037 69.1458C169.782 69.0586 169.279 69.0754 169.187 69.2305C168.359 70.6312 167.574 72.0595 166.848 73.5155C166.759 73.6921 167.091 74.0783 167.261 74.4391ZM180.774 98.4656C180.676 98.1441 180.651 97.8599 180.514 97.6477C179.831 96.5888 179.143 95.5317 178.395 94.5189C178.266 94.3436 177.767 94.2535 177.576 94.3629C177.379 94.4752 177.18 94.9733 177.273 95.1427C177.978 96.4254 178.734 97.6826 179.534 98.9081C179.643 99.0748 180.114 99.1136 180.368 99.0407C180.551 98.9886 180.652 98.6521 180.774 98.4656ZM174.626 127.598C174.607 126.967 173.924 126.668 173.373 127.08C172.353 127.842 171.406 128.708 170.479 129.584C170.326 129.728 170.339 130.185 170.447 130.42C170.513 130.563 170.903 130.59 171.151 130.606C171.293 130.614 171.468 130.526 171.586 130.43C172.494 129.69 173.403 128.949 174.286 128.179C174.47 128.019 174.548 127.737 174.626 127.598ZM163.496 86.9175C162.691 86.9113 162.266 87.646 162.743 88.1734C163.48 88.9876 164.375 89.6712 165.268 90.3209C165.459 90.4604 166.033 90.3303 166.245 90.1287C166.605 89.7857 166.448 89.3578 166.08 89.0229C165.49 88.4848 164.93 87.9127 164.323 87.3956C164.05 87.1634 163.694 87.0291 163.496 86.9175Z" fill="#FFC328"/>
<path d="M150.12 88.4984C149.08 101.48 148.039 114.461 146.981 127.652C146.564 127.318 146.327 127.04 146.027 126.912C145.681 126.766 145.17 126.572 144.923 126.719C144.4 127.032 144.63 127.556 144.922 127.968C145.261 128.446 145.602 128.929 145.997 129.359C146.659 130.08 146.808 130.857 146.722 131.846C146.376 135.829 146.15 139.821 145.862 143.809C145.774 145.019 145.632 146.226 145.499 147.593C144.661 147.548 143.97 147.599 143.319 147.463C132.264 145.154 121.213 142.823 110.162 140.491C109.81 140.417 109.471 140.277 109.138 140.171C110.618 129.281 112.086 118.467 113.566 107.655C113.583 107.533 113.759 107.434 113.942 107.237C114.178 107.571 114.414 107.837 114.577 108.142C117.314 113.29 121.049 117.648 125.274 121.608C125.962 122.253 126.801 122.749 127.611 123.247C128.317 123.681 129.073 123.577 129.715 123.091C130.477 122.514 131.247 121.924 131.905 121.235C135.575 117.394 138.696 113.165 140.958 108.328C141.861 106.397 142.922 104.54 143.802 102.6C145.101 99.7413 146.318 96.8451 147.539 93.9522C148.315 92.1142 149.037 90.2532 149.783 88.4026C149.896 88.4344 150.008 88.4663 150.12 88.4984ZM114.493 131.497C113.766 131.474 113.35 132.115 113.709 132.752C114.143 133.523 114.729 134.22 115.319 134.886C115.627 135.233 116.171 135.571 116.542 135.081C116.765 134.786 116.822 134.116 116.635 133.811C116.17 133.056 115.533 132.404 114.939 131.733C114.813 131.59 114.581 131.541 114.493 131.497ZM141.813 117.105C141.666 116.911 141.619 116.799 141.536 116.752C141.403 116.676 141.232 116.575 141.1 116.6C139.657 116.876 138.645 117.802 137.782 118.907C137.678 119.041 137.752 119.46 137.891 119.597C138.039 119.742 138.427 119.828 138.6 119.735C139.846 119.064 141.107 118.388 141.813 117.105ZM129.646 129.044C129.653 128.449 129.125 128.135 128.632 128.517C127.81 129.154 127.066 129.906 126.371 130.682C126.219 130.851 126.317 131.385 126.478 131.637C126.565 131.773 127.143 131.794 127.304 131.649C128.08 130.951 128.795 130.184 129.515 129.427C129.612 129.325 129.617 129.137 129.646 129.044ZM133.128 136.501C132.538 136.534 132.198 137.072 132.491 137.579C132.905 138.297 133.449 138.952 134.01 139.568C134.161 139.733 134.728 139.79 134.834 139.666C135.03 139.438 135.197 138.938 135.074 138.728C134.655 138.009 134.118 137.356 133.592 136.705C133.478 136.564 133.222 136.539 133.128 136.501ZM118.111 120.235C118.041 119.894 118.07 119.517 117.929 119.436C117.067 118.939 116.176 118.485 115.267 118.079C115.095 118.002 114.635 118.156 114.594 118.289C114.517 118.544 114.541 119.005 114.709 119.128C115.678 119.841 116.719 120.422 118.111 120.235Z" fill="#FFC328"/>
<path d="M139.057 51.7848C140.015 50.88 141.023 50.7536 141.959 51.2166C144.686 52.5661 147.214 54.1661 147.788 57.5196C147.899 58.1664 147.886 58.8344 147.949 59.7653C148.351 59.407 148.694 59.2028 148.898 58.9033C150.395 56.6985 152.004 54.5523 153.299 52.2323C154.356 50.338 154.973 48.2034 155.891 46.2241C156.469 44.9773 157.223 43.8097 157.939 42.6308C158.114 42.3416 158.444 42.1461 158.945 41.6843C158.694 46.7252 156.085 50.7269 154.874 55.2677C155.269 55.408 155.588 55.5828 155.924 55.627C156.504 55.7036 157.096 55.6846 157.681 55.7312C159.323 55.8619 159.403 55.9597 159.751 57.5651C159.862 58.0777 160.123 58.556 160.275 59.062C160.486 59.7579 160.662 60.4645 160.847 61.1678C161.021 61.8283 161.082 62.5435 161.38 63.1411C161.886 64.1533 161.876 65.0855 161.287 66.016C160.604 67.0954 159.972 68.222 159.173 69.2103C157.532 71.2374 155.764 73.1611 154.115 75.1816C153.621 75.7874 153.216 76.5337 152.993 77.2817C152.042 80.4623 150.611 83.4387 149.295 86.4697C148.043 89.3521 146.966 92.3098 145.799 95.2294C145.285 96.5157 144.799 97.8184 144.196 99.0627C142.474 102.612 140.706 106.139 138.944 109.668C136.849 113.866 133.941 117.472 130.699 120.818C128.783 122.796 128.209 122.808 126.2 120.97C121.645 116.801 117.789 112.074 114.846 106.514C115.936 105.509 117.045 104.528 118.108 103.5C121.443 100.273 124.788 97.0546 128.078 93.7821C132.386 89.4973 136.499 85.0333 140.244 80.2386C141.096 79.1463 142.091 78.1623 142.914 77.0493C144.368 75.0806 145.73 73.0438 147.155 71.0525C147.484 70.5919 147.371 70.202 147.236 69.7133C146.584 67.3545 145.794 65.0109 145.415 62.605C144.813 58.7904 143.071 55.6801 140.343 53.043C139.932 52.6472 139.528 52.2461 139.057 51.7848Z" fill="white"/>
<path d="M136.758 82.7895C134.58 85.1661 132.402 87.5425 130.029 90.1329C129.137 86.0458 128.314 82.2759 127.449 78.3082C128.432 78.3082 129.292 78.3082 130.312 78.3082C129.697 76.6028 128.195 77.3209 127.157 76.6379C126.436 75.7607 127.011 74.0788 125.413 72.9493C125.482 73.9427 125.455 74.6053 125.585 75.2352C126.422 79.3049 127.295 83.3674 128.153 87.4329C128.197 87.6386 128.215 87.8497 128.271 88.2436C122.615 92.8975 116.904 97.5959 111.065 102.401C110.889 101.955 110.731 101.647 110.644 101.32C109.329 96.3691 108.2 91.381 107.969 86.2421C107.696 80.1934 109.51 74.8023 113.195 70.0124C114.774 67.9605 116.714 66.3467 119.15 64.8026C118.978 65.6575 118.797 66.2457 118.765 66.8416C118.748 67.148 118.996 67.4688 119.125 67.7832C119.408 67.5989 119.84 67.4765 119.948 67.2189C120.315 66.3378 120.677 65.4268 120.832 64.4926C120.954 63.7533 121.314 63.3722 121.909 63.0566C123.087 62.4334 124.239 61.7624 125.42 61.148C128.199 59.7036 130.989 58.2807 133.731 56.8712C135.132 58.3439 136.511 59.8864 137.99 61.3258C139.719 63.009 141.669 64.4134 143.941 65.2898C144.672 65.572 144.998 66.0558 145.209 66.766C145.571 67.9805 146.018 69.1693 146.499 70.5717C144.985 72.5238 143.363 74.63 141.721 76.7209C141.195 77.3913 140.525 77.9642 140.081 78.6806C139.009 80.4073 137.657 81.4141 135.511 80.9328C135.23 80.8698 134.858 80.9723 134.601 81.1224C134.412 81.2323 134.225 81.563 134.254 81.7635C134.281 81.948 134.58 82.1932 134.791 82.2315C135.4 82.3413 136.026 82.3604 136.645 82.4149C136.682 82.5401 136.72 82.6648 136.758 82.7895ZM139.734 69.6466C140.047 69.4266 140.344 69.3283 140.443 69.1305C141.006 68.0086 141.54 66.8712 142.031 65.7162C142.105 65.5419 141.945 65.0801 141.817 65.0468C141.561 64.9801 141.074 65.0278 140.992 65.1873C140.371 66.3924 139.803 67.6273 139.282 68.8796C139.22 69.0288 139.544 69.3379 139.734 69.6466ZM133.874 64.4916C132.43 63.6557 131.133 64.4025 129.874 64.3778C129.621 64.3729 129.36 64.7512 129.054 64.9917C130.509 65.8913 132.451 65.7125 133.874 64.4916ZM125.206 87.5623C124.83 86.5745 124.479 85.58 124.059 84.6157C123.991 84.4594 123.583 84.3236 123.396 84.3826C123.211 84.4414 122.952 84.7982 122.993 84.9538C123.261 85.9722 123.57 86.9834 123.948 87.9653C124.016 88.1423 124.476 88.2636 124.737 88.2357C124.892 88.2191 125.01 87.8606 125.206 87.5623ZM115.972 91.9213C115.295 90.8716 114.981 90.7617 114.181 91.3129C113.525 91.7643 112.901 92.2698 112.312 92.8042C112.128 92.9703 112.102 93.3099 111.97 93.6606C113.789 93.9937 114.594 92.4787 115.972 91.9213ZM114.745 77.58C115.043 79.336 116.067 80.328 117.328 80.0818C117.031 78.4174 115.895 77.3175 114.745 77.58Z" fill="#FFC328"/>
<path d="M123.341 28.4248C124.244 27.7899 124.64 27.5308 125.015 27.2446C126.403 26.1865 127.615 23.9274 126.5 21.5148C126.269 21.0159 125.71 20.4899 126.265 19.9183C126.993 19.1683 127.715 18.3553 128.594 17.8296C129.182 17.4782 129.992 18.3813 129.809 19.2468C129.625 20.1188 129.227 20.9485 128.889 21.7832C128.754 22.1158 128.53 22.4124 128.237 22.9117C129.075 23.3893 129.839 23.8365 130.614 24.2643C132.074 25.0698 132.21 25.999 130.93 27.0757C130.506 27.4325 129.913 27.6175 129.369 27.7958C128.867 27.9605 128.315 27.9719 127.809 28.1299C127.602 28.1946 127.284 28.5391 127.322 28.6317C127.423 28.8796 127.655 29.1807 127.896 29.2491C129.921 29.8242 132.375 28.4403 133.001 26.4112C133.386 25.1616 133.071 24.2326 131.973 23.5009C131.49 23.1784 130.97 22.9105 130.372 22.563C130.536 22.102 130.698 21.6691 130.845 21.2315C130.998 20.7803 131.136 20.3247 131.329 19.7214C134.647 20.7581 137.959 21.6061 140.938 19.3137C141.948 19.8911 142.839 20.6717 143.856 20.9063C144.888 21.1441 146.044 20.8428 147.357 20.7653C148.893 21.9815 150.694 23.2824 152.346 24.7505C154.142 26.3462 155.284 28.4028 155.805 30.7584C156.985 36.0863 157.028 41.3333 154.648 46.4083C154.06 47.6616 153.602 48.9748 153.037 50.2399C152.712 50.9669 152.352 51.6917 151.906 52.3476C150.948 53.7537 149.924 55.1144 148.882 56.5558C148.768 56.4071 148.595 56.2711 148.54 56.0972C147.577 53.0674 145.082 51.6077 142.51 50.2584C141.402 49.6771 140.227 49.7811 139.131 50.3898C138.007 51.0136 137.872 51.9009 138.737 52.8706C139.624 53.8646 140.53 54.8415 141.415 55.8372C141.547 55.9863 141.611 56.1962 141.793 56.5415C137.481 56.1999 133.946 54.4128 130.637 52.0715C130.704 51.5329 130.771 51.0677 130.813 50.6002C130.821 50.5098 130.733 50.4108 130.672 50.2767C130.536 50.2942 130.291 50.2688 130.26 50.3387C129.422 52.2202 127.75 52.2844 126.076 52.2009C124.202 52.1073 122.414 50.5597 121.885 48.7654C121.57 47.6974 121.707 46.7027 122.518 45.9668C123.287 45.2694 124.255 44.9629 125.333 45.2553C126.785 45.6492 127.305 45.4292 127.942 44.0883C128.762 42.3634 128.83 40.4713 126.643 39.5213C126.213 39.3343 125.82 39.0229 125.466 38.7053C124.407 37.7551 124.293 36.8313 124.991 35.6042C125.359 34.9567 125.74 34.3043 126.003 33.6114C126.593 32.0524 126.278 30.6663 124.99 29.5696C124.546 29.1918 124.03 28.8982 123.341 28.4248ZM129.461 36.7039C129.617 36.1868 129.754 35.7489 129.882 35.3086C130.574 32.9301 131.971 31.301 134.539 30.9009C134.799 30.8604 135.095 30.8281 135.295 30.6824C135.557 30.4917 135.739 30.1922 135.955 29.9395C135.668 29.7533 135.396 29.5309 135.087 29.3948C134.908 29.3165 134.668 29.3688 134.457 29.3782C131.639 29.5017 128.635 32.532 128.57 35.3405C128.558 35.8433 128.478 36.431 129.461 36.7039ZM143.388 33.5109C143.273 33.5711 143.158 33.6314 143.043 33.6916C143.043 33.9413 142.935 34.2875 143.06 34.4258C144.429 35.9522 145.835 37.4459 147.341 39.0669C147.546 39.8104 146.335 40.7985 147.371 41.805C148.269 41.2257 148.205 40.2954 148.445 39.5208C148.691 38.7271 148.41 38.1278 147.768 37.5711C146.648 36.6011 145.616 35.5309 144.538 34.5122C144.169 34.1635 143.772 33.844 143.388 33.5109ZM143.283 28.2902C143.42 28.3532 143.557 28.4161 143.694 28.4794C143.916 28.3025 144.199 28.167 144.35 27.9425C145.318 26.51 146.577 25.5609 148.343 25.3728C148.709 25.3338 149.096 25.278 149.42 25.1204C149.665 25.0011 149.826 24.7078 150.024 24.4919C149.754 24.304 149.492 23.9657 149.213 23.9516C146.784 23.8286 144.908 24.8824 143.563 26.8527C143.31 27.2231 143.368 27.8057 143.283 28.2902ZM148.506 32.4278C148.512 31.721 147.928 30.9898 147.321 30.9458C146.441 30.8821 145.501 31.7595 145.54 32.6083C145.574 33.3474 146.136 33.8665 146.903 33.8679C147.772 33.8697 148.499 33.2163 148.506 32.4278ZM134.339 37.3076C133.475 37.2743 132.842 37.7887 132.791 38.5653C132.738 39.3803 133.387 40.0312 134.299 40.0791C135.12 40.1223 135.713 39.559 135.728 38.7214C135.743 37.8929 135.2 37.3407 134.339 37.3076ZM145.947 47.1193C146.049 47.1983 146.151 47.2776 146.253 47.3566C146.421 47.2534 146.649 47.1896 146.746 47.0407C147.491 45.9065 148.545 45.2529 149.846 44.9501C149.999 44.9145 150.181 44.8632 150.278 44.7548C150.468 44.5402 150.608 44.2804 150.768 44.0394C150.507 43.9134 150.185 43.6203 149.996 43.6899C149.106 44.0169 148.199 44.3577 147.401 44.8577C146.59 45.366 146.051 46.1495 145.947 47.1193Z" fill="white"/>
<path d="M176.262 105.255C178.539 104.832 180.578 104.56 182.758 104.714C183.083 106.741 183.403 108.677 183.703 110.615C184.273 114.301 184.79 117.996 185.416 121.673C185.63 122.925 185.607 124.121 185.21 125.297C183.83 129.385 182.417 133.463 181.016 137.544C180.964 137.696 180.899 137.844 180.84 137.995C180.747 137.944 180.655 137.893 180.562 137.842C179.137 127.04 177.711 116.238 176.262 105.255Z" fill="white"/>
<path d="M114.03 302.708C110.769 300.573 107.625 298.941 103.792 298.92C104.851 295.434 105.881 292.049 106.972 288.459C109.72 289.233 112.504 290.016 115.496 290.858C114.553 293.177 115.024 295.516 114.889 297.824C114.801 299.344 114.371 300.845 114.03 302.708Z" fill="white"/>
<path d="M102.384 315.258C100.946 316.336 101.024 318.669 99.031 319.51C98.5347 317.339 100.032 316.022 100.868 314.168C99.3407 314.957 98.91 316.354 97.8699 317.556C97.3491 315.482 98.5026 314.275 99.1476 312.892C98.2833 313.203 97.858 313.887 97.4661 314.619C97.1187 315.269 97.0992 315.259 96.0346 315.241C95.9259 314.34 96.3904 313.62 96.8011 312.902C98.3272 310.234 98.3346 310.241 101.381 310.166C103.891 310.104 106.389 310.176 108.835 310.816C109.394 310.961 109.943 311.14 110.518 311.31C110.518 311.75 110.568 312.116 110.51 312.464C110.206 314.296 109.901 316.129 109.543 317.952C109.311 319.136 108.712 320.149 107.743 320.883C107.221 321.279 106.595 321.507 105.964 321.08C105.396 320.696 105.369 320.126 105.512 319.513C105.692 318.736 105.87 317.958 106.018 317.175C106.087 316.813 106.19 316.4 106.08 316.078C105.958 315.72 105.645 315.234 105.351 315.185C105.073 315.139 104.529 315.524 104.425 315.829C104.173 316.574 104.081 317.379 103.974 318.166C103.831 319.217 103.552 320.134 102.408 320.532C101.435 320.87 100.753 320.407 100.963 319.406C101.114 318.689 101.466 318.011 101.767 317.332C102.058 316.678 102.399 316.045 102.718 315.403C102.607 315.354 102.496 315.306 102.384 315.258Z" fill="white"/>
<path d="M128.471 89.4823C128.641 90.1517 128.769 90.6567 128.924 91.2657C123.499 96.5642 118.411 102.222 112.318 107.236C111.939 105.968 111.581 104.925 111.34 103.856C111.278 103.584 111.517 103.166 111.738 102.925C112.093 102.536 112.546 102.237 112.96 101.902C117.68 98.0868 122.399 94.2708 127.122 90.4607C127.523 90.1369 127.957 89.8532 128.471 89.4823Z" fill="white"/>
<path d="M158.981 126.78C155.464 126.632 152.095 126.489 148.606 126.342C148.351 124.571 148.519 122.959 148.611 121.17C152.133 121.14 155.512 121.653 158.981 122.1C158.981 123.616 158.981 125.031 158.981 126.78Z" fill="white"/>
<path d="M150.496 97.9144C153.29 98.1199 155.926 98.3135 158.656 98.5142C158.656 100.54 158.656 102.431 158.656 104.385C155.838 104.206 153.053 104.029 150.044 103.837C150.192 101.897 150.339 99.9749 150.496 97.9144Z" fill="white"/>
<path d="M158.916 112.153C158.916 113.764 158.916 115.083 158.916 116.591C155.691 116.691 152.515 115.951 149.073 116.22C149.209 114.518 149.328 113.021 149.465 111.31C152.653 111.594 155.698 111.866 158.916 112.153Z" fill="white"/>
<path d="M151.031 90.7471C151.15 89.3245 151.265 87.9554 151.398 86.3579C153.762 86.4409 156.079 86.5224 158.508 86.6078C158.508 88.2875 158.508 89.804 158.508 91.4596C156.073 91.2277 153.668 90.9983 151.031 90.7471Z" fill="white"/>
<path d="M135.263 56.5232C137.68 57.002 139.851 57.4636 142.036 57.8446C142.655 57.9528 142.965 58.2466 143.186 58.7778C143.884 60.4558 144.338 62.1847 144.425 64.2523C140.523 62.5301 137.812 59.7147 135.263 56.5232Z" fill="white"/>
<path d="M190.092 301.307C186.815 298.35 186.815 298.35 185.347 298.324C185.633 298.619 185.787 298.905 186.017 298.996C187.525 299.593 188.484 300.818 189.495 301.979C189.968 302.521 190.058 303.099 189.32 303.785C188.373 302.23 186.673 301.772 185.338 300.791C184.451 300.139 183.697 299.305 182.857 298.528C183.588 297.176 184.694 296.433 185.821 295.762C186.616 295.289 188.316 296.05 189.115 297.145C189.454 297.61 189.719 298.13 189.947 298.734C188.974 298.024 188.179 296.964 186.356 297.171C188.077 298.273 189.717 299.053 190.092 301.307Z" fill="white"/>
<path d="M96.9889 310.768C96.2905 312.039 95.6783 312.981 95.24 313.997C94.7266 315.187 94.9452 315.652 96.0028 316.401C96.2389 316.569 96.5288 316.802 96.5868 317.053C96.8303 318.103 98.1162 318.575 98.0619 319.78C98.0567 319.896 98.2471 320.118 98.3597 320.127C99.5771 320.223 100.257 321.356 101.351 321.66C102.5 321.979 103.365 321.513 104.17 320.219C104.312 320.616 104.422 321.029 104.609 321.404C104.793 321.774 105.056 322.105 105.411 322.648C104.628 322.708 103.964 322.844 103.314 322.792C100.654 322.583 98.2152 321.761 96.1345 320.022C94.0809 318.306 93.3346 314.374 94.6399 312.108C95.1153 311.284 95.9403 311.128 96.9889 310.768Z" fill="white"/>
<path d="M153.462 80.209C153.876 77.2844 155.477 74.5465 158.178 71.9973C158.684 73.7755 158.518 77.3891 157.883 78.6117C157.304 79.7264 156.422 80.4594 155.158 80.547C154.625 80.5841 154.073 80.3398 153.462 80.209Z" fill="white"/>
<path d="M180.333 301.776C180.929 300.891 181.54 299.984 182.163 299.06C182.387 299.2 182.56 299.25 182.637 299.365C183.671 300.912 185.129 301.932 186.748 302.783C187.921 303.398 188.125 303.818 187.794 304.571C187.438 305.379 186.448 305.886 185.538 305.551C184.76 305.264 184.007 304.833 183.34 304.335C182.37 303.611 181.487 302.769 180.333 301.776Z" fill="white"/>
<path d="M176.137 103.852C176.032 103.165 175.947 102.605 175.833 101.867C178.814 101.701 181.701 101.54 184.593 101.379C184.731 101.752 184.856 101.99 184.904 102.243C184.983 102.656 185.012 103.078 185.093 103.755C182.068 103.034 179.14 103.385 176.137 103.852Z" fill="white"/>
<path d="M109.532 320.775C110.334 319.408 110.55 317.931 110.689 316.388C110.817 314.977 111.266 313.594 111.572 312.207C112.585 312.565 113.665 314.128 113.403 315.206C112.839 317.53 111.688 319.498 109.532 320.775Z" fill="white"/>
<path d="M180.005 302.803C180.785 303.444 181.473 304.084 182.235 304.617C183.226 305.311 184.214 306.068 185.316 306.53C186.65 307.089 187.935 306.598 188.554 305.304C188.966 304.442 189.622 304.325 190.358 304.085C190.009 306.394 187.819 307.969 185.651 307.439C183.556 306.927 181.723 305.841 179.972 304.612C179.235 304.094 179.538 303.549 180.005 302.803Z" fill="white"/>
<path d="M171.895 297.925C171.717 298.362 171.526 298.832 171.26 299.485C168.768 298.008 166.384 296.596 163.954 295.156C166.114 294.561 169.379 295.701 171.895 297.925Z" fill="white"/>
<path d="M109.331 141.398C111.362 141.791 113.12 142.13 114.982 142.49C114.461 143.785 113.988 144.961 113.459 146.278C112.08 144.647 110.791 143.124 109.331 141.398Z" fill="white"/>
<path d="M174.549 149.785C174.4 148.458 174.25 147.132 174.083 145.651C175.186 145.799 176.102 145.922 177.31 146.084C176.429 147.46 175.656 148.668 174.883 149.876C174.772 149.845 174.661 149.815 174.549 149.785Z" fill="white"/>
<path d="M169.015 294.735C170.554 294.641 172.093 294.548 173.947 294.435C173.337 295.417 172.905 296.113 172.39 296.942C171.217 296.299 170.095 295.684 168.974 295.069C168.988 294.957 169.002 294.846 169.015 294.735Z" fill="white"/>
<path d="M116.265 299.835C116.038 301.147 115.81 302.459 115.583 303.77C115.456 303.749 115.329 303.728 115.202 303.707C115.041 302.328 115.687 301.074 115.844 299.744C115.984 299.774 116.124 299.805 116.265 299.835Z" fill="white"/>
<path d="M165.793 114.518C164.876 114.341 163.831 114.161 162.798 113.929C162.305 113.818 161.883 113.53 161.971 112.938C162.063 112.309 162.582 112.262 163.074 112.314C164.129 112.427 165.182 112.568 166.232 112.724C166.489 112.763 166.775 112.85 166.966 113.011C167.19 113.2 167.518 113.57 167.456 113.726C167.343 114.013 167.006 114.252 166.709 114.411C166.493 114.526 166.191 114.48 165.793 114.518Z" fill="black"/>
<path d="M167.262 74.4391C167.091 74.0783 166.76 73.6923 166.848 73.5155C167.574 72.0598 168.359 70.6314 169.187 69.2305C169.278 69.0754 169.782 69.0586 170.037 69.1458C170.182 69.1957 170.349 69.653 170.271 69.8118C169.579 71.2239 168.848 72.6181 168.087 73.9946C167.985 74.1793 167.653 74.2368 167.262 74.4391Z" fill="black"/>
<path d="M180.775 98.4656C180.652 98.6521 180.551 98.9886 180.368 99.041C180.114 99.1138 179.644 99.0751 179.535 98.9084C178.734 97.6828 177.979 96.4256 177.274 95.143C177.181 94.9736 177.379 94.4755 177.576 94.3631C177.768 94.2537 178.266 94.3438 178.396 94.5192C179.143 95.5319 179.832 96.5891 180.514 97.648C180.651 97.8601 180.677 98.1443 180.775 98.4656Z" fill="black"/>
<path d="M174.626 127.598C174.548 127.737 174.47 128.019 174.286 128.179C173.403 128.949 172.495 129.69 171.586 130.43C171.468 130.526 171.294 130.614 171.152 130.606C170.903 130.59 170.513 130.563 170.447 130.42C170.34 130.185 170.327 129.728 170.48 129.584C171.407 128.708 172.354 127.842 173.374 127.08C173.924 126.667 174.608 126.967 174.626 127.598Z" fill="black"/>
<path d="M163.496 86.9175C163.694 87.0291 164.05 87.1634 164.323 87.3958C164.93 87.9131 165.49 88.4851 166.081 89.0232C166.448 89.358 166.605 89.786 166.245 90.129C166.034 90.3305 165.459 90.4604 165.268 90.3211C164.375 89.6714 163.48 88.9876 162.743 88.1737C162.266 87.646 162.691 86.9113 163.496 86.9175Z" fill="black"/>
<path d="M114.492 131.497C114.581 131.541 114.813 131.59 114.939 131.733C115.532 132.404 116.17 133.056 116.635 133.811C116.822 134.116 116.764 134.786 116.542 135.081C116.171 135.571 115.627 135.233 115.319 134.886C114.728 134.22 114.143 133.523 113.708 132.753C113.349 132.115 113.765 131.475 114.492 131.497Z" fill="black"/>
<path d="M141.813 117.105C141.106 118.388 139.845 119.064 138.599 119.735C138.426 119.828 138.039 119.742 137.89 119.596C137.751 119.46 137.677 119.041 137.782 118.907C138.644 117.801 139.656 116.876 141.099 116.6C141.232 116.575 141.402 116.676 141.535 116.752C141.619 116.8 141.665 116.911 141.813 117.105Z" fill="black"/>
<path d="M129.646 129.044C129.617 129.137 129.612 129.325 129.515 129.427C128.795 130.184 128.08 130.951 127.304 131.649C127.143 131.793 126.565 131.773 126.478 131.637C126.317 131.385 126.219 130.851 126.37 130.682C127.066 129.906 127.81 129.154 128.631 128.517C129.125 128.135 129.653 128.449 129.646 129.044Z" fill="black"/>
<path d="M133.128 136.501C133.222 136.539 133.478 136.564 133.591 136.705C134.118 137.356 134.654 138.009 135.074 138.728C135.197 138.938 135.029 139.438 134.833 139.666C134.727 139.79 134.16 139.733 134.01 139.568C133.448 138.952 132.904 138.297 132.49 137.579C132.197 137.072 132.538 136.535 133.128 136.501Z" fill="black"/>
<path d="M118.111 120.235C116.719 120.422 115.678 119.841 114.709 119.128C114.542 119.005 114.518 118.544 114.595 118.289C114.635 118.156 115.095 118.002 115.267 118.079C116.176 118.485 117.067 118.939 117.93 119.436C118.07 119.517 118.041 119.893 118.111 120.235Z" fill="black"/>
<path d="M139.734 69.6466C139.544 69.3377 139.221 69.0285 139.283 68.8796C139.803 67.6273 140.371 66.3924 140.993 65.1873C141.075 65.0278 141.561 64.9801 141.817 65.0468C141.946 65.0804 142.106 65.5419 142.032 65.7162C141.541 66.871 141.006 68.0084 140.444 69.1305C140.344 69.3283 140.047 69.4268 139.734 69.6466Z" fill="black"/>
<path d="M133.874 64.4916C132.452 65.7125 130.509 65.8913 129.054 64.9917C129.36 64.7512 129.621 64.3729 129.874 64.3778C131.133 64.4025 132.43 63.6557 133.874 64.4916Z" fill="black"/>
<path d="M125.206 87.5622C125.01 87.8606 124.892 88.2191 124.737 88.2357C124.476 88.2636 124.016 88.1423 123.948 87.9653C123.569 86.9834 123.261 85.9722 122.993 84.9538C122.952 84.7982 123.211 84.4414 123.396 84.3826C123.583 84.3236 123.991 84.4594 124.059 84.6157C124.479 85.58 124.83 86.5745 125.206 87.5622Z" fill="black"/>
<path d="M115.972 91.9213C114.594 92.4784 113.788 93.9937 111.97 93.6605C112.102 93.3101 112.128 92.9706 112.312 92.8041C112.901 92.2695 113.525 91.764 114.181 91.3128C114.981 90.7616 115.296 90.8715 115.972 91.9213Z" fill="black"/>
<path d="M114.745 77.58C115.895 77.3175 117.031 78.4174 117.328 80.0818C116.067 80.328 115.043 79.336 114.745 77.58Z" fill="black"/>
<path d="M129.462 36.7039C128.479 36.431 128.559 35.8433 128.57 35.3403C128.636 32.532 131.639 29.5015 134.457 29.378C134.669 29.3686 134.909 29.3163 135.087 29.3945C135.397 29.5306 135.668 29.7531 135.956 29.9393C135.739 30.1919 135.557 30.4915 135.295 30.6821C135.096 30.8278 134.799 30.8599 134.539 30.9007C131.972 31.3007 130.574 32.9298 129.882 35.3084C129.754 35.7489 129.618 36.1868 129.462 36.7039Z" fill="black"/>
<path d="M143.388 33.5109C143.772 33.8437 144.169 34.1635 144.538 34.5122C145.616 35.5309 146.648 36.6009 147.768 37.5711C148.41 38.1278 148.69 38.7271 148.444 39.5208C148.204 40.2954 148.268 41.2257 147.371 41.805C146.335 40.7985 147.546 39.8104 147.341 39.0669C145.835 37.4462 144.429 35.9522 143.059 34.4258C142.935 34.2875 143.043 33.9413 143.043 33.6916C143.158 33.6314 143.273 33.5711 143.388 33.5109Z" fill="black"/>
<path d="M143.283 28.2902C143.368 27.8057 143.31 27.2232 143.563 26.853C144.908 24.8826 146.784 23.8291 149.213 23.9519C149.492 23.9659 149.754 24.3043 150.024 24.4922C149.826 24.708 149.665 25.0014 149.42 25.1207C149.096 25.2782 148.71 25.334 148.343 25.373C146.577 25.5612 145.318 26.51 144.35 27.9428C144.199 28.1672 143.916 28.3028 143.694 28.4796C143.557 28.4164 143.42 28.3532 143.283 28.2902Z" fill="black"/>
<path d="M148.507 32.4278C148.5 33.2163 147.772 33.8694 146.903 33.8679C146.136 33.8667 145.575 33.3474 145.54 32.6083C145.501 31.7593 146.441 30.8819 147.322 30.9458C147.928 30.9898 148.512 31.7213 148.507 32.4278Z" fill="black"/>
<path d="M134.339 37.3076C135.201 37.3407 135.744 37.8929 135.729 38.7212C135.714 39.5588 135.121 40.1221 134.3 40.0789C133.387 40.031 132.739 39.38 132.792 38.5651C132.842 37.7884 133.475 37.2741 134.339 37.3076Z" fill="black"/>
<path d="M145.947 47.1193C146.051 46.1495 146.59 45.366 147.401 44.8578C148.199 44.3577 149.106 44.0167 149.996 43.69C150.185 43.6206 150.507 43.9134 150.768 44.0394C150.608 44.2804 150.468 44.5402 150.278 44.7548C150.181 44.8632 149.999 44.9146 149.846 44.9501C148.545 45.2529 147.491 45.9063 146.746 47.0408C146.649 47.1897 146.421 47.2534 146.253 47.3566C146.151 47.2776 146.049 47.1986 145.947 47.1193Z" fill="black"/>
<path d="M296.436 254.685C295.528 255.135 293.976 255.969 292.249 257.284C287.045 261.246 286.51 264.806 281.62 267.345C280.831 267.755 279.122 268.557 276.804 268.933C273.142 269.528 270.113 268.712 268.477 268.132C268.477 268.132 263.616 257.645 283.197 251.912L284.044 255.135C284.533 254.242 285.022 253.349 285.51 252.456C286.506 252.155 287.989 251.847 289.774 251.981C293.155 252.236 295.496 253.92 296.436 254.685Z" fill="#5C5A5A"/>
<path d="M288.325 217.995C286.82 223.185 284.453 226.275 282.53 228.153C279.605 231.007 277.527 231.232 273.162 235.431C270.828 237.676 269.281 239.193 268.166 241.677C266.384 245.647 266.859 249.522 267.294 251.594C267.294 251.594 275.844 250.725 283.434 244.041L281.255 240.346L284.972 242.33C284.972 242.33 292.197 231.626 288.325 217.995Z" fill="#5C5A5A"/>
<path d="M261.473 235.866C276.186 231.942 281.009 216.299 281.009 216.299C280.536 215.5 273.878 213.844 273.878 213.844L282.484 212.236C282.484 212.236 283.993 209.777 282.863 204.589C281.734 199.417 284.964 192 284.964 192C278.756 193.706 274.178 196.216 271.264 198.099C266.788 200.992 260.014 205.37 257.539 213.386C257.033 215.025 256.824 216.437 256.726 217.384L259.888 221.402L256.58 219.991C256.598 228.861 261.473 235.866 261.473 235.866Z" fill="#5C5A5A"/>
<path d="M248.719 244.719C248.719 244.719 260.385 220.334 227 212.981C227 212.981 230.833 216.875 230.597 224.833C230.36 232.791 232.795 233.979 232.795 233.979L238.918 232.878L234.06 237.737C234.06 237.737 241.059 246.165 248.719 244.719Z" fill="#5C5A5A"/>
<path d="M227.935 253.605C227.935 253.605 249.812 245.084 249.833 264.646C249.833 264.646 243.08 271.315 236.027 262L237.639 258.233L234.601 259.003C234.601 259.003 230.217 254.108 227.935 253.605Z" fill="#5C5A5A"/>
<path d="M258.853 283.539C258.861 283.538 258.869 283.537 258.875 283.535C259.099 283.492 259.245 283.276 259.202 283.054C254.842 260.443 235.991 255.125 235.801 255.074C235.584 255.015 235.355 255.145 235.297 255.364C235.238 255.583 235.368 255.809 235.587 255.867C235.772 255.917 254.133 261.118 258.393 283.21C258.436 283.424 258.639 283.568 258.853 283.539Z" fill="#231F20"/>
<path d="M259.444 287.917C259.664 287.887 259.82 287.69 259.798 287.468C258.483 274.461 255.463 261.705 250.82 249.553C247.414 240.643 243.114 232.014 238.035 223.907C237.914 223.715 237.667 223.653 237.468 223.777C237.277 223.897 237.217 224.151 237.339 224.343C242.389 232.406 246.667 240.986 250.053 249.847C254.669 261.931 257.673 274.617 258.98 287.552C259.002 287.778 259.204 287.942 259.43 287.92C259.434 287.918 259.439 287.918 259.444 287.917Z" fill="#231F20"/>
<path d="M260.793 296.893C260.803 296.892 260.81 296.891 260.82 296.889C261.042 296.844 261.186 296.627 261.14 296.404C257.697 279.55 257.335 262.512 260.067 245.762C261.797 235.153 264.782 224.708 268.939 214.717C269.026 214.508 268.927 214.267 268.718 214.18C268.507 214.09 268.268 214.191 268.181 214.401C263.999 224.451 260.997 234.958 259.256 245.63C256.508 262.479 256.872 279.617 260.337 296.569C260.379 296.781 260.58 296.921 260.793 296.893Z" fill="#231F20"/>
<path d="M259.724 289.766C259.937 289.737 260.095 289.548 260.078 289.33C259.332 278.513 260.153 258.124 274.031 243.102C276.219 240.734 278.676 238.563 281.334 236.652C281.519 236.519 281.56 236.263 281.428 236.078C281.294 235.893 281.035 235.854 280.855 235.984C278.152 237.928 275.652 240.135 273.427 242.543C259.34 257.793 258.504 278.438 259.259 289.386C259.273 289.612 259.47 289.784 259.696 289.768C259.706 289.768 259.716 289.767 259.724 289.766Z" fill="#231F20"/>
<path d="M257.678 290.041C257.853 290.017 257.998 289.883 258.029 289.7C258.917 284.224 261.393 276.199 268.14 269.07C272.007 264.984 276.864 261.726 282.185 259.65C282.397 259.567 282.501 259.329 282.419 259.117C282.336 258.906 282.095 258.808 281.887 258.883C276.452 261.004 271.493 264.331 267.542 268.505C260.652 275.786 258.124 283.978 257.217 289.567C257.181 289.791 257.332 290.003 257.558 290.039C257.598 290.046 257.638 290.047 257.678 290.041Z" fill="#231F20"/>
<path d="M243.058 285.423L247.018 305.682H270.978L274.949 285.423H243.058ZM244.419 286.548H273.576L270.055 304.557H247.951L244.419 286.548Z" fill="#231F20"/>
<path d="M244.419 286.548L247.951 304.557H270.055L273.576 286.548H244.419Z" fill="white"/>
<path d="M242.833 285.423H275.163C275.617 285.423 276.017 285.124 276.144 284.688L277.49 280.097C277.682 279.442 277.191 278.787 276.509 278.787H241.487C240.805 278.787 240.314 279.443 240.506 280.097L241.852 284.688C241.979 285.124 242.379 285.423 242.833 285.423Z" fill="#5C5A5A"/>
<path d="M342 32.8842V91.932C342 93.7047 340.552 95.1454 338.787 95.1454H209.724C207.951 95.1454 206.51 93.7047 206.51 91.932V32.8842C206.51 31.1115 207.951 29.6708 209.724 29.6708H338.787C340.551 29.6708 342 31.1115 342 32.8842Z" fill="#231F20"/>
<path d="M337.355 93.2577H208.134C206.611 93.2577 205.377 92.0237 205.377 90.5009V31.2962C205.377 29.7735 206.611 28.5394 208.134 28.5394H337.355C338.878 28.5394 340.112 29.7735 340.112 31.2962V90.5009C340.112 92.0237 338.878 93.2577 337.355 93.2577Z" fill="white"/>
<path d="M337.274 93.6351H208.215C206.442 93.6351 205 92.1929 205 90.4195V31.3776C205 29.6049 206.442 28.1627 208.215 28.1627H337.274C339.047 28.1627 340.489 29.6049 340.489 31.3776V90.4195C340.489 92.1929 339.047 93.6351 337.274 93.6351ZM208.215 28.9168C206.858 28.9168 205.754 30.0204 205.754 31.3776V90.4195C205.754 91.7767 206.858 92.8803 208.215 92.8803H337.274C338.631 92.8803 339.734 91.776 339.734 90.4195V31.3776C339.734 30.0204 338.631 28.9168 337.274 28.9168H208.215Z" fill="#231F20"/>
<path d="M294.024 42.8073H251.46C249.641 42.8073 248.165 41.3321 248.165 39.5118V3.67214C248.165 1.85256 249.64 0.376678 251.46 0.376678H294.024C295.843 0.376678 297.319 1.85183 297.319 3.67214V39.5118C297.319 41.3321 295.844 42.8073 294.024 42.8073Z" fill="white"/>
<path d="M293.927 43.1846H251.557C249.479 43.1846 247.788 41.494 247.788 39.415V3.76886C247.788 1.6906 249.479 0 251.557 0H293.927C296.005 0 297.696 1.6906 297.696 3.76886V39.415C297.696 41.4933 296.006 43.1846 293.927 43.1846ZM251.557 0.754063C249.895 0.754063 248.542 2.10684 248.542 3.76886V39.415C248.542 41.0778 249.895 42.4298 251.557 42.4298H293.927C295.589 42.4298 296.941 41.0771 296.941 39.415V3.76886C296.941 2.10684 295.589 0.754063 293.927 0.754063H251.557Z" fill="#231F20"/>
<path d="M313.947 67.1615H231.538C227.072 67.1615 223.453 63.5422 223.453 59.0771V58.603C223.453 54.138 227.072 50.5186 231.538 50.5186H313.947C318.412 50.5186 322.031 54.138 322.031 58.603V59.0771C322.031 63.5422 318.412 67.1615 313.947 67.1615Z" fill="white"/>
<path d="M313.71 67.5389H231.775C226.979 67.5389 223.076 63.6367 223.076 58.8397C223.076 54.0435 226.978 50.1412 231.775 50.1412H313.71C318.506 50.1412 322.408 54.0435 322.408 58.8397C322.408 63.6367 318.506 67.5389 313.71 67.5389ZM231.775 50.896C227.394 50.896 223.83 54.4597 223.83 58.8405C223.83 63.2212 227.394 66.7849 231.775 66.7849H313.71C318.091 66.7849 321.654 63.2212 321.654 58.8405C321.654 54.4597 318.091 50.896 313.71 50.896H231.775Z" fill="#231F20"/>
<path d="M288.916 84.4317H252.953C250.309 84.4317 248.165 82.2875 248.165 79.6428V79.3621C248.165 76.7174 250.309 74.5732 252.953 74.5732H288.916C291.56 74.5732 293.704 76.7174 293.704 79.3621V79.6428C293.704 82.2875 291.56 84.4317 288.916 84.4317Z" fill="#FFCD57"/>
<path d="M284.709 17.1266H281.888V14.4716C281.888 9.14479 277.301 4.86296 271.863 5.37007C267.124 5.81196 263.596 9.97726 263.596 14.7369V17.1266H260.767C259.8 17.1266 259.017 17.91 259.017 18.8765V35.1171C259.017 36.0837 259.8 36.8671 260.767 36.8671H284.717C285.683 36.8671 286.467 36.0837 286.467 35.1171V18.8846C286.468 17.9173 285.677 17.1266 284.709 17.1266ZM273.84 27.279V29.4364C273.84 30.0981 273.39 30.7129 272.738 30.8214C271.907 30.9584 271.185 30.3179 271.185 29.5126V27.2965C271.185 27.076 271.112 26.8539 270.952 26.7022C270.513 26.2867 270.242 25.7012 270.242 25.0549C270.242 23.6743 271.464 22.5882 272.874 22.8073C273.756 22.9429 274.503 23.6296 274.715 24.4972C274.916 25.3553 274.628 26.1783 274.064 26.7103C273.911 26.8547 273.84 27.0679 273.84 27.279ZM277.838 17.1266H267.647V14.69C267.647 11.6525 270.31 9.23053 273.417 9.63504C275.985 9.9692 277.838 12.282 277.838 14.8717V17.1266Z" fill="#FFCD57"/>
<path d="M310.184 56.4346L311.145 58.1538L309.055 58.8785L311.145 59.5696L310.117 61.3562L308.448 59.873L308.87 62.0809H306.898L307.302 59.873L305.634 61.3899L304.572 59.5696L306.645 58.8448L304.605 58.1538L305.566 56.4346L307.302 57.8841L306.864 55.6761H308.87L308.448 57.8841L310.184 56.4346Z" fill="black"/>
<path d="M296.138 56.4346L297.099 58.1538L295.009 58.8785L297.099 59.5696L296.071 61.3562L294.402 59.873L294.824 62.0809H292.852L293.256 59.873L291.588 61.3899L290.526 59.5696L292.599 58.8448L290.56 58.1538L291.52 56.4346L293.256 57.8841L292.818 55.6761H294.824L294.402 57.8841L296.138 56.4346Z" fill="black"/>
<path d="M282.093 56.4346L283.054 58.1538L280.964 58.8785L283.054 59.5696L282.026 61.3562L280.357 59.873L280.778 62.0809H278.806L279.211 59.873L277.542 61.3899L276.48 59.5696L278.554 58.8448L276.514 58.1538L277.475 56.4346L279.211 57.8841L278.773 55.6761H280.778L280.357 57.8841L282.093 56.4346Z" fill="black"/>
<path d="M268.048 56.4346L269.008 58.1538L266.918 58.8785L269.008 59.5696L267.98 61.3562L266.312 59.873L266.733 62.0809H264.761L265.166 59.873L263.497 61.3899L262.435 59.5696L264.508 58.8448L262.469 58.1538L263.429 56.4346L265.166 57.8841L264.727 55.6761H266.733L266.312 57.8841L268.048 56.4346Z" fill="black"/>
<path d="M254.002 56.4346L254.963 58.1538L252.873 58.8785L254.963 59.5696L253.935 61.3562L252.266 59.873L252.688 62.0809H250.716L251.12 59.873L249.451 61.3899L248.39 59.5696L250.463 58.8448L248.423 58.1538L249.384 56.4346L251.12 57.8841L250.682 55.6761H252.688L252.266 57.8841L254.002 56.4346Z" fill="black"/>
<path d="M239.956 56.4346L240.917 58.1538L238.827 58.8785L240.917 59.5696L239.889 61.3562L238.22 59.873L238.642 62.0809H236.67L237.074 59.873L235.406 61.3899L234.344 59.5703L236.417 58.8456L234.377 58.1545L235.338 56.4353L237.074 57.8848L236.636 55.6769H238.642L238.22 57.8848L239.956 56.4346Z" fill="black"/>
<path d="M256.944 80.229V81.3517H256.17V78.1523H257.424C257.805 78.1523 258.094 78.2468 258.293 78.4344C258.493 78.6227 258.592 78.8777 258.592 79.1972C258.592 79.3958 258.548 79.5739 258.459 79.7293C258.37 79.8846 258.238 80.0063 258.063 80.0957C257.887 80.1851 257.675 80.229 257.424 80.229H256.944ZM257.805 79.198C257.805 78.9173 257.649 78.7766 257.339 78.7766H256.945V79.6098H257.339C257.649 79.6098 257.805 79.472 257.805 79.198Z" fill="black"/>
<path d="M261.407 80.7676H260.208L260.009 81.3517H259.194L260.366 78.175H261.258L262.43 81.3517H261.606L261.407 80.7676ZM261.208 80.1792L260.81 79.0038L260.407 80.1792H261.208Z" fill="black"/>
<path d="M265.351 80.9171C265.265 81.0593 265.139 81.1722 264.971 81.2564C264.803 81.3407 264.6 81.3832 264.362 81.3832C264.003 81.3832 263.707 81.2953 263.475 81.1209C263.243 80.9457 263.116 80.701 263.095 80.388H263.918C263.931 80.5082 263.973 80.6035 264.047 80.6724C264.121 80.742 264.216 80.7772 264.33 80.7772C264.43 80.7772 264.508 80.7501 264.565 80.6951C264.623 80.6409 264.652 80.5683 264.652 80.4775C264.652 80.3961 264.626 80.3287 264.573 80.2745C264.52 80.2202 264.454 80.1755 264.376 80.1404C264.297 80.1067 264.189 80.0642 264.05 80.0165C263.847 79.9476 263.682 79.8795 263.554 79.815C263.426 79.7505 263.316 79.6538 263.224 79.5255C263.131 79.3973 263.086 79.2309 263.086 79.025C263.086 78.8352 263.134 78.6703 263.231 78.5326C263.328 78.3933 263.461 78.2871 263.632 78.2131C263.802 78.1398 263.998 78.1024 264.218 78.1024C264.574 78.1024 264.857 78.1874 265.067 78.356C265.276 78.5245 265.395 78.7575 265.422 79.0529H264.585C264.569 78.9473 264.531 78.8638 264.469 78.8015C264.408 78.74 264.324 78.7084 264.218 78.7084C264.127 78.7084 264.054 78.7326 263.998 78.781C263.943 78.8294 263.915 78.9004 263.915 78.9942C263.915 79.0705 263.94 79.1342 263.989 79.1862C264.039 79.239 264.102 79.2822 264.177 79.3152C264.253 79.3489 264.361 79.3914 264.503 79.442C264.708 79.5123 264.876 79.5805 265.006 79.6479C265.136 79.7153 265.247 79.8143 265.341 79.944C265.435 80.0744 265.481 80.2422 265.481 80.4518C265.48 80.6204 265.438 80.7757 265.351 80.9171Z" fill="black"/>
<path d="M268.533 80.9171C268.447 81.0593 268.32 81.1722 268.152 81.2564C267.985 81.3407 267.782 81.3832 267.543 81.3832C267.184 81.3832 266.888 81.2953 266.657 81.1209C266.424 80.9457 266.298 80.701 266.276 80.388H267.1C267.113 80.5082 267.155 80.6035 267.229 80.6724C267.303 80.742 267.398 80.7772 267.512 80.7772C267.612 80.7772 267.69 80.7501 267.747 80.6951C267.804 80.6409 267.834 80.5683 267.834 80.4775C267.834 80.3961 267.807 80.3287 267.754 80.2745C267.702 80.2202 267.636 80.1755 267.557 80.1404C267.479 80.1067 267.37 80.0642 267.231 80.0165C267.029 79.9476 266.864 79.8795 266.736 79.815C266.608 79.7505 266.498 79.6538 266.405 79.5255C266.313 79.3973 266.268 79.2309 266.268 79.025C266.268 78.8352 266.316 78.6703 266.413 78.5326C266.509 78.3933 266.643 78.2871 266.814 78.2131C266.984 78.1398 267.179 78.1024 267.4 78.1024C267.756 78.1024 268.039 78.1874 268.248 78.356C268.458 78.5245 268.577 78.7575 268.604 79.0529H267.766C267.751 78.9473 267.713 78.8638 267.651 78.8015C267.59 78.74 267.505 78.7084 267.4 78.7084C267.309 78.7084 267.236 78.7326 267.18 78.781C267.124 78.8294 267.096 78.9004 267.096 78.9942C267.096 79.0705 267.121 79.1342 267.171 79.1862C267.221 79.239 267.283 79.2822 267.359 79.3152C267.434 79.3489 267.543 79.3914 267.685 79.442C267.89 79.5123 268.058 79.5805 268.188 79.6479C268.317 79.7153 268.429 79.8143 268.522 79.944C268.616 80.0744 268.662 80.2422 268.662 80.4518C268.662 80.6204 268.618 80.7757 268.533 80.9171Z" fill="black"/>
<path d="M273.894 78.1523L273.129 81.3517H272.17L271.658 79.2112L271.142 81.3517H270.183L269.418 78.1523H270.259L270.671 80.4694L271.232 78.1523H272.078L272.639 80.4694L273.056 78.1523H273.894Z" fill="black"/>
<path d="M277.096 78.3127C277.342 78.4527 277.535 78.6469 277.677 78.896C277.819 79.1452 277.89 79.4266 277.89 79.7402C277.89 80.0539 277.818 80.336 277.674 80.5867C277.531 80.8373 277.337 81.0322 277.09 81.1722C276.844 81.3129 276.572 81.3825 276.273 81.3825C275.974 81.3825 275.702 81.3129 275.456 81.1722C275.21 81.0322 275.016 80.8373 274.872 80.5867C274.729 80.336 274.657 80.0539 274.657 79.7402C274.657 79.4266 274.729 79.1452 274.872 78.896C275.016 78.6469 275.21 78.4527 275.456 78.3127C275.702 78.172 275.974 78.1024 276.273 78.1024C276.576 78.1024 276.849 78.172 277.096 78.3127ZM275.669 79.069C275.52 79.2331 275.445 79.4574 275.445 79.741C275.445 80.0216 275.52 80.2452 275.669 80.4108C275.819 80.5771 276.021 80.6599 276.274 80.6599C276.525 80.6599 276.725 80.5771 276.876 80.4108C277.027 80.2452 277.102 80.0216 277.102 79.741C277.102 79.4603 277.027 79.2368 276.878 79.0712C276.728 78.9048 276.528 78.822 276.274 78.822C276.021 78.822 275.819 78.9041 275.669 79.069Z" fill="black"/>
<path d="M280.42 81.3517L279.727 80.1433H279.551V81.3517H278.777V78.1523H280.098C280.352 78.1523 280.566 78.1962 280.741 78.2834C280.916 78.3706 281.047 78.4901 281.134 78.6432C281.222 78.7957 281.265 78.9693 281.265 79.1665C281.265 79.3988 281.202 79.5959 281.073 79.7593C280.945 79.922 280.759 80.0334 280.515 80.0935L281.275 81.3517H280.42ZM279.551 79.6142H280.031C280.185 79.6142 280.297 79.5805 280.37 79.5124C280.443 79.4449 280.478 79.3438 280.478 79.2112C280.478 79.0844 280.442 78.9847 280.368 78.9129C280.294 78.8396 280.182 78.8037 280.031 78.8037H279.551V79.6142Z" fill="black"/>
<path d="M284.785 80.5801C284.651 80.8234 284.457 81.0124 284.205 81.1487C283.953 81.2843 283.657 81.3517 283.316 81.3517H282.108V78.1523H283.316C283.66 78.1523 283.958 78.2189 284.208 78.3516C284.458 78.4842 284.651 78.6711 284.785 78.9129C284.919 79.154 284.986 79.4317 284.986 79.7454C284.986 80.059 284.919 80.3375 284.785 80.5801ZM283.952 80.4188C284.119 80.2598 284.203 80.0341 284.203 79.7447C284.203 79.4552 284.119 79.2302 283.952 79.0705C283.785 78.9107 283.55 78.8301 283.248 78.8301H282.881V80.6585H283.248C283.55 80.6592 283.785 80.5801 283.952 80.4188Z" fill="black"/>
</svg>
