<svg width="269" height="46" viewBox="0 0 269 46" fill="none" xmlns="http://www.w3.org/2000/svg">
<path d="M0.82375 46V0.240028H49.7198V8.56003H11.0638V21.232H44.7278V29.552H11.0638V46H0.82375ZM55.8013 46V13.04H65.0813V46H55.8013ZM55.7373 7.60003V0.368027H65.1453V7.60003H55.7373ZM69.2338 46L81.6498 29.552L69.2338 13.104H80.1138L89.6498 25.84H94.3218L103.922 13.104H114.738L102.386 29.552L114.738 46H103.922L94.2578 33.2H89.6498L80.1138 46H69.2338Z" fill="#FFCD57"/>
<path d="M119.886 46V0.240028H130.126V18.992H162.382V0.240028H172.622V46H162.382V27.312H130.126V46H119.886ZM191.11 46C187.355 46 184.603 45.0614 182.854 43.184C181.147 41.3067 180.294 38.8747 180.294 35.888V13.04H189.574V34.8C189.574 37.36 190.854 38.64 193.414 38.64H206.726C209.286 38.64 210.566 37.36 210.566 34.8V13.04H219.846V35.888C219.846 38.8747 218.971 41.3067 217.222 43.184C215.515 45.0614 212.784 46 209.03 46H191.11ZM226.551 46V0.240028H235.831V46H226.551ZM228.151 46V38.64H250.231C253.005 38.64 255.117 37.8934 256.567 36.4C258.061 34.864 258.807 32.5814 258.807 29.552C258.807 26.48 258.061 24.1974 256.567 22.704C255.117 21.168 253.005 20.4 250.231 20.4H228.791V13.04H250.231C255.949 13.04 260.407 14.448 263.607 17.264C266.807 20.08 268.407 24.176 268.407 29.552C268.407 34.8854 266.807 38.96 263.607 41.776C260.407 44.592 255.949 46 250.231 46H228.151Z" fill="#001F3F"/>
</svg>
