<svg width="428" height="421" viewBox="0 0 428 421" fill="none" xmlns="http://www.w3.org/2000/svg">
<rect x="0.5" y="14.5" width="427" height="345" fill="white" stroke="#F9F9F9"/>
<path d="M20.1372 357.195H364.129C395.623 258.887 408.924 217.121 367.37 195.834C339.325 181.467 309.568 229.728 291.467 189.637C281.043 166.551 294.98 112.203 273.289 94.133C247.512 72.6562 218.795 93.1543 196.47 113.519C178.991 129.46 133.963 107.116 116.172 117.745C88.3835 134.349 83.7237 161.767 75.0887 183.549C62.2084 215.048 27.4314 207.299 5.33325 227.236C-18.4445 248.683 -5.04063 274.108 4.39986 297.551C11.8978 316.176 14.3307 338.902 20.1372 357.195Z" fill="#FAF4DF"/>
<g filter="url(#filter0_f_4007_420)">
<circle cx="316.5" cy="210.5" r="58.5" fill="#FFCD57" fill-opacity="0.6"/>
</g>
<path d="M46.6498 192.95L41.9556 189.101L43.5148 187.025L47.3136 188.949L47.5949 187.626L51.2103 191.409L49.8808 193.785L46.6498 192.95Z" fill="#EAC1A4"/>
<path d="M96.2035 190.155L75.1632 201.152L50.4158 189.717L48.0195 194.569L74.2424 214.539L103.013 206.865L96.2035 190.155Z" fill="#EBB044"/>
<path d="M149.738 205.198L154.158 202.182L152.95 200.238L149.465 201.634L149.321 200.45L145.854 203.491L146.836 205.681L149.738 205.198Z" fill="#EBCEB1"/>
<path d="M146.682 202.069L148.41 206.514C148.647 207.243 131.904 216.685 130.413 217.363C127.13 218.855 121.179 222.377 121.179 222.377C116.614 222.434 108.018 220.099 105.147 218.865C103.99 218.367 103.166 215.808 102.464 214.791C101.575 213.5 102.708 211.225 103.471 210.173C105.035 208.014 107.437 206.477 110.054 205.96C110.994 205.774 111.979 205.717 112.902 205.974C113.854 206.239 115.071 201.861 115.878 202.429C117.312 203.439 118.107 210.104 119.814 210.685C121.958 211.414 146.176 201.022 146.682 202.069Z" fill="#EBB044"/>
<path d="M96.6294 191.214C96.5305 191.217 96.4319 191.221 96.3337 191.226C91.6368 191.454 85.9493 197.614 82.6546 201.25C74.1501 210.635 68.2097 221.39 63.7641 233.414C61.3702 239.889 59.2564 246.469 57.2752 253.086C56.7278 254.914 52.8838 271.634 51.9517 271.752C61.5116 270.533 71.1363 269.579 80.6579 270.239C90.1796 270.899 99.6489 273.232 107.813 278.249C111.993 256.792 115.083 234.573 116.095 212.831C116.216 210.231 116.613 207.548 116.368 204.963C116.086 201.987 114.618 200.646 112.951 198.386C112.38 197.611 111.804 196.832 111.106 196.192C107.426 192.818 101.55 191.054 96.6294 191.214Z" fill="#EBB044"/>
<path d="M63.2759 264.105L73.2244 304.448L73.4469 334.184L78.2773 335.227L80.1651 307.572L84.9068 256.925L63.2759 264.105Z" fill="#EBCEB1"/>
<path d="M78.3382 336.061L79.1188 339.077L78.4341 344.994L74.5197 345.002L73.0537 336.448L73.5079 335.017L78.3382 336.061Z" fill="#1A3151"/>
<path d="M101.26 259.649L102.138 294.509L97.4805 343.743L92.7119 344.092L90.9988 298.956L81.2876 258.038L101.26 259.649Z" fill="#EBCEB1"/>
<path d="M97.3315 342.92L103.754 346.328L103.245 349.325L91.8979 347.937L92.4435 343.623L97.3315 342.92Z" fill="#1A3151"/>
<path d="M102.658 264.147L105.89 304.422L102.602 332.043L89.685 331.312L87.3828 299.909L81.7969 265.674L82.6646 260.343L101.281 260.616L102.658 264.147Z" fill="#1A3151"/>
<path d="M83.0752 301.492L81.5574 330.38L70.3294 329.805L70.5584 302.407L63.4785 268.002L65.0938 258.384L83.9775 259.559L83.0752 301.492Z" fill="#1A3151"/>
<path d="M105.001 267.471C93.4807 265.485 74.8135 260.675 63.293 258.69C69.322 238.691 78.918 216.475 90.1057 198.908C92.135 195.722 94.6703 192.398 98.3016 191.642C102.193 190.832 109.014 193.394 109.769 197.742C110.875 204.103 108.58 212.875 107.872 219.307C106.27 233.86 107.787 253.093 105.001 267.471Z" fill="white"/>
<path d="M117.746 180.625C119.3 172.076 108.805 169.629 103.466 174.984C99.948 178.513 100.11 185.8 103.675 189.312C102.982 190.289 102.331 191.296 101.724 192.329C102.911 192.879 104.097 193.43 105.283 193.98C105.651 194.15 106.095 194.318 106.439 194.106C106.648 193.978 106.759 193.741 106.86 193.517C107.198 192.764 107.536 192.01 107.874 191.257C107.978 191.267 108.081 191.275 108.186 191.28C110.796 191.409 113.3 189.91 114.892 187.84C116.484 185.769 117.279 183.194 117.746 180.625Z" fill="#EAC1A4"/>
<path d="M115.888 182.394C116.192 185.275 114.267 187.854 112.591 190.051C111.105 191.999 110.44 193.35 112.871 194.498C114.24 195.145 116.664 196.323 118.172 195.498C119.314 194.872 119.344 192.173 119.104 191.045C118.92 190.184 118.066 189.579 117.905 188.713C117.839 188.357 117.899 187.989 117.972 187.634C118.271 186.181 118.79 184.775 119.508 183.478C119.995 182.597 120.578 181.754 120.878 180.793C121.313 179.4 120.672 177.524 120.431 176.103C119.983 173.459 117.279 169.451 113.995 170.728C113.248 171.018 112.706 171.669 112.231 172.315C111.948 172.7 111.669 173.107 111.561 173.573C111.129 175.432 112.762 176.121 113.743 177.267C114.954 178.679 115.694 180.555 115.888 182.394Z" fill="#1A3151"/>
<path d="M102.247 179.855C101.85 181.151 102.22 182.771 101.25 183.719C100.819 184.142 100.211 184.318 99.6707 184.589C98.1949 185.329 97.1694 186.894 97.0822 188.541C94.4597 187.858 91.8368 187.175 89.2142 186.492C88.8188 186.389 88.4049 186.276 88.1088 185.994C87.4765 185.393 87.6634 184.359 87.898 183.519C88.3601 181.863 88.892 180.099 90.226 179.014C90.8447 178.511 91.5964 178.192 92.2136 177.687C95.1807 175.258 94.0465 169.599 97.4124 167.76C98.9144 166.94 100.76 167.26 102.445 166.961C105.384 166.439 107.767 164.039 110.734 163.708C116.336 163.084 119.987 170.544 115.876 174.505C112.524 177.736 103.847 174.635 102.247 179.855Z" fill="#1A3151"/>
<path d="M96.0045 192.399C96.0045 192.399 76.0806 240.404 80.4807 252.649C84.8808 264.893 86.9279 269.637 86.9279 269.637L56.4194 270.911C56.4194 270.911 75.8926 200.781 96.0045 192.399Z" fill="#EBB044"/>
<path d="M90.3623 178.44L26 188.17L38.8829 273.236L103.245 263.506L90.3623 178.44Z" fill="#145566"/>
<path opacity="0.26" d="M43.1382 268.863L44.1015 268.718L101.207 261.871L87.5278 181.645L85.0001 182.797L43.1382 268.863Z" fill="#080A0A"/>
<path d="M87.5269 181.64L29.6562 190.389L41.5754 269.091L99.446 260.342L87.5269 181.64Z" fill="#F9F9F9"/>
<path opacity="0.05" d="M29.2939 190.141L70.9204 183.848L34.4848 224.857L29.2939 190.141Z" fill="#040605"/>
<path opacity="0.12" d="M71.0919 183.699L45.9585 187.499L46.3124 189.836L71.4458 186.036L71.0919 183.699Z" fill="#000100"/>
<path d="M64.8726 177.414L64.4825 177.473L64.4431 177.213C64.0712 174.76 61.4634 173.12 58.618 173.55L54.8703 174.116C52.0248 174.547 50.0198 176.884 50.3917 179.337L50.4311 179.598L50.041 179.657C47.196 180.087 45.1906 182.424 45.5625 184.878L46.3146 189.841L71.4491 186.041L70.6969 181.078C70.3258 178.624 67.7177 176.984 64.8726 177.414ZM60.7837 178.137L54.1614 179.138C53.4843 179.241 52.8475 178.776 52.7459 178.105C52.6443 177.435 53.1147 176.803 53.7918 176.701L60.4137 175.7C61.0908 175.597 61.7277 176.062 61.8293 176.732C61.9312 177.402 61.4604 178.035 60.7837 178.137Z" fill="#F4F4F4"/>
<g opacity="0.47">
<path d="M49.1585 209.949C46.3263 210.377 43.4938 210.806 40.6616 211.234C40.4224 211.27 40.2495 211.501 40.2855 211.739C40.7105 214.544 41.1358 217.349 41.5608 220.154C41.5968 220.391 41.8299 220.562 42.0695 220.525C44.9017 220.097 47.7343 219.669 50.5665 219.241C50.6961 219.221 50.7878 219.159 50.8481 219.078C50.8527 219.073 50.8568 219.067 50.861 219.062C50.8633 219.058 50.8659 219.055 50.8678 219.052C50.9292 218.971 50.9622 218.865 50.9425 218.735C50.5176 215.93 50.0922 213.125 49.6673 210.32C49.6316 210.084 49.3981 209.913 49.1585 209.949ZM49.9914 218.431C47.4541 218.815 44.9169 219.199 42.3796 219.582C41.9986 217.069 41.618 214.556 41.237 212.043C43.7743 211.66 46.3115 211.276 48.8488 210.893C49.2294 213.406 49.6104 215.918 49.9914 218.431Z" fill="#899397"/>
<path d="M51.5164 225.509C48.6839 225.937 45.8517 226.365 43.0195 226.793C42.7803 226.829 42.6074 227.061 42.6434 227.298C43.0684 230.103 43.4937 232.908 43.9187 235.714C43.9547 235.951 44.1878 236.121 44.4278 236.085C47.26 235.657 50.0922 235.229 52.9247 234.8C53.0548 234.781 53.1461 234.719 53.2064 234.638C53.211 234.633 53.2151 234.627 53.2193 234.622C53.2216 234.618 53.2242 234.615 53.2261 234.612C53.2875 234.531 53.3209 234.425 53.3008 234.295C52.8758 231.49 52.4505 228.685 52.0255 225.88C51.9895 225.643 51.756 225.472 51.5164 225.509ZM52.3493 233.991C49.812 234.374 47.2748 234.758 44.7375 235.141C44.3565 232.628 43.9759 230.116 43.5949 227.603C46.1322 227.219 48.6695 226.836 51.2067 226.452C51.5877 228.965 51.9683 231.478 52.3493 233.991Z" fill="#899397"/>
<path d="M53.8743 241.068C51.0421 241.496 48.2096 241.924 45.3774 242.353C45.1382 242.389 44.9653 242.621 45.0013 242.858C45.4267 245.663 45.8516 248.468 46.2766 251.273C46.3126 251.51 46.5458 251.681 46.7857 251.645C49.6179 251.216 52.4505 250.788 55.2827 250.36C55.4127 250.34 55.5044 250.278 55.5643 250.197C55.5689 250.192 55.573 250.186 55.5772 250.181C55.5795 250.178 55.5821 250.175 55.584 250.171C55.6454 250.09 55.6784 249.985 55.6587 249.855C55.2338 247.05 54.8084 244.245 54.3835 241.44C54.3474 241.202 54.1143 241.032 53.8743 241.068ZM54.7072 249.55C52.1699 249.934 49.6327 250.317 47.0954 250.701C46.7144 248.188 46.3338 245.675 45.9529 243.162C48.4901 242.778 51.0274 242.395 53.5646 242.012C53.9456 244.525 54.3262 247.037 54.7072 249.55Z" fill="#899397"/>
</g>
<path d="M44.0059 213.985L45.8611 213.045L47.2391 214.815L55.5602 206.743L56.6777 206.793L47.1633 217.245L44.0059 213.985Z" fill="#145566"/>
<path d="M45.7158 230.046L47.5711 229.106L48.9491 230.876L57.2701 222.804L58.3877 222.854L48.8733 233.306L45.7158 230.046Z" fill="#145566"/>
<path d="M47.77 244.799L49.6253 243.859L51.0033 245.63L59.3243 237.557L60.4419 237.608L50.9278 248.059L47.77 244.799Z" fill="#145566"/>
<path opacity="0.32" d="M89.8209 239.123L59.8472 243.654L60.4844 247.862L90.4581 243.33L89.8209 239.123Z" fill="#899397"/>
<path opacity="0.32" d="M87.3233 222.644L57.3496 227.175L57.9868 231.383L87.9605 226.852L87.3233 222.644Z" fill="#899397"/>
<path opacity="0.32" d="M84.8262 206.165L54.8525 210.696L55.4898 214.904L85.4635 210.372L84.8262 206.165Z" fill="#899397"/>
<path d="M312.242 201.216L309.847 199.274L309.609 196.568L309.01 196.328L308.683 197.053L307.842 194.864L306.181 193.93L303.885 195.004L302.696 197.336L304.005 199.501L306.643 200.952L309.804 203.752L312.242 201.216Z" fill="#AA6755"/>
<path d="M311.783 199.071L325.249 209.154L349.812 196.306L352.636 212.165L327.845 222.409L320.85 221.581L306.357 202.347L311.783 199.071Z" fill="#1A3151"/>
<path d="M367.356 242.921C366.473 238.535 365.784 234.486 365.721 232.291C365.531 225.687 364.685 203.878 364.685 203.878L360.582 195.536L359.825 195.543C359.879 195.537 359.934 195.531 359.988 195.524C359.912 194.812 359.944 194.221 360.053 193.704C367.206 194.134 374.538 197.881 376.591 204.839C376.76 205.412 376.892 205.999 376.94 206.594C377.226 210.169 376.133 212.81 377.165 216.4C378.062 219.52 378.875 222.686 379.472 225.879C380.336 230.499 381.133 235.099 381.762 239.686C382.458 244.766 382.948 249.831 383.09 254.867C383.106 255.423 383.218 256.98 383.281 258.84C383.413 262.735 383.329 267.946 381.687 268.141C381.379 268.177 381.083 268.041 380.813 267.91C378.701 266.885 377.037 265.547 375.175 264.377L375.075 244.056L367.356 242.921Z" fill="#1A3151"/>
<path d="M329.623 263.806C330.043 259.482 330.479 255.159 331.012 250.846C332.074 242.245 333.519 233.665 335.965 225.339C336.9 222.158 337.978 219.021 339.055 215.886C340.368 212.068 341.68 208.25 342.992 204.432C344.623 199.687 347.376 196.344 352.196 194.684C353.057 194.388 353.963 194.159 354.896 193.992C354.919 194.09 354.94 194.189 354.953 194.294C355.009 194.75 355.139 195.255 355.428 195.585L352.264 195.615C352.264 195.615 343.339 226.779 343.011 232.15C342.886 234.191 342.471 238.648 342.01 243.344L337.163 244.057L336.956 262.016C336.684 262.094 336.414 262.169 336.147 262.24C334.609 262.648 333.358 263.768 332.08 264.646C330.193 265.943 329.366 266.456 329.623 263.806Z" fill="#1A3151"/>
<path d="M396.564 333.906L398.228 337.297L392.759 343.889L389.343 342.387L391.952 335.165L395.33 331.359L396.564 333.906Z" fill="#2E4661"/>
<path d="M396.036 332.56L380.814 299.909L372.702 260.369L368.953 252.635L348.032 258.764L349.85 264.865L366.481 304.764L391.47 336.017L396.036 332.56Z" fill="#9EA6AD"/>
<path d="M340.837 247.131L338.667 293.89L343.791 340.671L349.025 340.86L353.885 298.042L362.602 255.362L340.837 247.131Z" fill="#9EA6AD"/>
<path d="M349.377 345.207L338.931 348.241L338.341 344.698L344.031 340.682L349.076 340.864L349.377 345.207Z" fill="#2E4661"/>
<path d="M342.01 243.344C341.28 250.774 340.433 258.802 340.433 258.802C340.433 258.802 344.352 258.894 350.021 259.317C349.601 259.307 349.182 259.296 348.763 259.292C344.821 259.258 340.731 260.931 336.956 262.016L337.164 244.057L342.01 243.344Z" fill="#1A3151"/>
<path d="M368.467 261.577C371.17 261.717 371.506 261.217 371.506 261.217C371.506 261.217 369.068 251.433 367.356 242.921L375.074 244.057L375.174 264.378C374.52 263.967 373.841 263.576 373.109 263.228C371.641 262.53 370.074 261.998 368.467 261.577Z" fill="#1A3151"/>
<path d="M340.93 244.495C341.431 239.687 341.883 235.122 342.019 233.032C342.375 227.532 352.088 195.618 352.088 195.618L355.531 195.587C355.569 195.628 355.608 195.667 355.651 195.702C355.757 195.789 355.88 195.857 356.021 195.901C356.302 195.988 356.608 195.956 356.902 195.924C358.04 195.797 359.178 195.67 360.316 195.544L361.14 195.536L365.605 204.079C365.605 204.079 366.525 226.413 366.732 233.176C366.801 235.424 367.552 239.57 368.512 244.062C370.375 252.778 373.028 262.798 373.028 262.798C373.028 262.798 372.662 263.311 369.721 263.167C367.903 263.078 365.102 262.738 360.788 261.87C360.621 261.851 360.457 261.833 360.291 261.814C356.919 261.436 353.688 261.15 350.813 260.936C350.417 260.907 350.028 260.879 349.646 260.852C343.477 260.42 339.213 260.325 339.213 260.325C339.213 260.325 340.135 252.104 340.93 244.495Z" fill="white"/>
<path d="M349.887 184.061C350.093 183.22 349.698 182.363 349.511 181.518C349.464 181.304 349.455 181.083 349.468 180.86C350.972 180.6 352.489 180.042 353.594 179.561C355.894 178.558 360.373 177.489 362.76 178.674C364.649 179.611 364.069 182.598 363.974 184.487C363.95 184.972 363.912 185.467 364.024 185.939C364.139 186.425 364.442 186.754 364.631 187.163C364.42 187.899 364.075 188.598 363.514 189.231C362 190.938 360.461 191.777 360.053 193.704C359.943 194.221 359.911 194.812 359.987 195.524C359.933 195.531 359.879 195.537 359.824 195.543C358.778 195.667 357.733 195.791 356.687 195.914C356.416 195.946 356.136 195.977 355.878 195.892C355.748 195.849 355.635 195.783 355.538 195.698C355.498 195.664 355.462 195.625 355.427 195.585C355.139 195.255 355.008 194.75 354.953 194.294C354.94 194.189 354.919 194.09 354.896 193.992C354.488 192.233 352.543 191.442 351.495 189.881C350.308 188.113 349.687 186.053 349.418 183.956C349.413 183.92 349.409 183.884 349.404 183.849C349.559 183.932 349.719 184.004 349.887 184.061Z" fill="#AA6755"/>
<path d="M343.696 171.556C344.478 171.028 345.379 170.591 345.854 169.753C346.222 169.102 346.276 168.297 346.641 167.644C347.302 166.462 348.738 166.114 349.986 165.713C353.11 164.711 354.791 163.554 358.1 164.837C360.452 165.749 363.491 165.872 365.674 167.202C366.586 167.758 367.361 168.651 367.998 169.645C370.203 173.09 370.732 177.934 369.296 181.527C368.975 182.331 368.566 183.071 368.129 183.779C367.256 185.195 366.321 186.937 364.774 187.631C364.749 187.458 364.697 187.306 364.631 187.163C364.442 186.754 364.139 186.425 364.024 185.939C363.912 185.468 363.949 184.973 363.974 184.487C364.069 182.598 364.649 179.611 362.761 178.674C360.373 177.489 355.893 178.558 353.594 179.561C352.489 180.043 350.972 180.601 349.469 180.86C349.455 181.083 349.464 181.304 349.511 181.518C349.699 182.364 350.093 183.22 349.887 184.061C349.719 184.004 349.559 183.933 349.405 183.849C348.37 183.284 347.661 182.147 347.237 180.973C346.779 180.924 346.346 180.823 345.955 180.652C343.941 179.77 342.303 176.252 342.371 174.087C342.403 173.073 342.789 172.167 343.696 171.556Z" fill="#145566"/>
<path d="M302.83 129.03L300.85 129.717C300.535 129.827 300.402 130.204 300.552 130.559L308.719 149.761C309.121 150.707 309.171 151.716 308.858 152.601C308.544 153.486 307.909 154.134 307.07 154.425L285.067 162.06C284.227 162.352 283.275 162.256 282.387 161.787C281.499 161.319 280.789 160.54 280.386 159.594L272.427 140.877C272.275 140.522 271.897 140.322 271.582 140.432L269.602 141.119C269.287 141.229 269.154 141.606 269.304 141.961L277.263 160.677C278.065 162.564 279.477 164.115 281.238 165.043C282.999 165.972 284.891 166.163 286.565 165.58L308.566 157.945C310.24 157.365 311.503 156.08 312.124 154.325C312.744 152.571 312.644 150.565 311.842 148.678L303.675 129.476C303.523 129.12 303.145 128.921 302.83 129.03Z" fill="#CECCCC"/>
<path d="M370.976 277.364C376.52 279.272 382.563 276.328 384.473 270.789C385.479 267.869 385.137 264.814 383.775 262.295L382.027 259.916L318.197 173.077C323.73 164.751 323.879 152.807 317.673 142.672C314.047 136.75 308.854 132.43 303.157 130.041L311.674 150.07C312.92 153 311.811 156.135 309.211 157.036L287.209 164.671C284.613 165.575 281.464 163.917 280.218 160.987L271.872 141.356C268.258 149.351 268.838 159.564 274.253 168.404C280.07 177.906 289.923 183.292 299.434 183.176L365.471 273.018L366.327 274.185C367.519 275.598 369.098 276.717 370.976 277.364Z" fill="#CECCCC"/>
<path d="M368.993 277.191C374.538 279.099 380.58 276.156 382.491 270.617C383.497 267.697 383.155 264.641 381.793 262.122L380.045 259.744L316.215 172.905C321.748 164.579 321.897 152.635 315.691 142.499C312.065 136.577 306.872 132.258 301.175 129.869L309.692 149.898C310.937 152.828 309.829 155.963 307.229 156.863L285.227 164.498C282.631 165.403 279.481 163.745 278.235 160.815L269.89 141.184C266.275 149.178 266.855 159.392 272.27 168.232C278.088 177.734 287.94 183.119 297.452 183.004L363.488 272.846L364.344 274.013C365.537 275.425 367.116 276.545 368.993 277.191Z" fill="#E2E2E2"/>
<path d="M301.975 129.306L299.994 129.994C299.679 130.103 299.546 130.48 299.697 130.835L307.864 150.037C308.266 150.984 308.315 151.993 308.002 152.878C307.689 153.762 307.054 154.41 306.214 154.701L284.212 162.337C283.371 162.629 282.42 162.532 281.531 162.064C280.643 161.596 279.933 160.816 279.53 159.87L271.571 141.153C271.42 140.798 271.042 140.598 270.727 140.708L268.746 141.395C268.431 141.505 268.298 141.882 268.449 142.237L276.408 160.953C277.21 162.84 278.621 164.391 280.382 165.32C282.144 166.248 284.036 166.439 285.71 165.856L307.71 158.221C309.384 157.642 310.648 156.356 311.268 154.601C311.888 152.847 311.788 150.841 310.986 148.954L302.819 129.752C302.668 129.396 302.29 129.197 301.975 129.306Z" fill="#CECCCC"/>
<path d="M375.801 260.432L322.21 187.521C321.216 186.169 319.474 185.772 318.338 186.639L311.832 191.598C310.696 192.465 310.579 194.28 311.573 195.631L365.164 268.542C366.158 269.894 367.9 270.291 369.036 269.424L375.542 264.465C376.678 263.599 376.795 261.784 375.801 260.432Z" fill="#CECCCC"/>
<path d="M364.345 274.013L363.489 272.846C363.746 273.253 364.031 273.642 364.345 274.013Z" fill="#E2E2E2"/>
<path d="M340.523 232.975L337.461 233.342L335.35 231.63L334.759 231.892L335.054 232.631L332.894 231.711L331.068 232.253L330.242 234.649L331.091 237.124L333.558 237.691L336.436 236.809L340.649 236.488L340.523 232.975Z" fill="#AA6755"/>
<path d="M338.662 231.811L355.279 229.166L365.251 203.394L376.502 211.61L366.614 236.527L361.151 240.969L337.24 237.985L338.662 231.811Z" fill="#1A3151"/>
<path d="M338.774 299.892L338.737 329.522L302.589 329.474C302.653 328.795 302.683 328.106 302.683 327.414C302.7 314.359 292.123 303.761 279.057 303.744C265.991 303.731 255.386 314.298 255.369 327.353C255.369 328.048 255.396 328.734 255.457 329.413L69.6406 329.177L69.6675 308.352C69.6846 294.494 77.6042 281.855 90.0714 275.78L125.591 264.652L127.356 264.638L144.983 225.722C150.046 214.546 160.775 207.434 172.546 207.448L278.529 207.583C289.681 207.597 293.306 221.705 297.326 229.952C301.902 239.324 306.477 248.699 311.052 258.07C311.918 259.848 312.787 261.625 313.652 263.398L314.109 263.395L329.288 277.79C335.355 283.544 338.784 291.534 338.774 299.892Z" fill="#145566"/>
<path d="M225.817 260.29L296.528 260.38L280.519 220.842C279.722 218.874 277.885 217.595 275.851 217.592L225.872 217.529L225.817 260.29Z" fill="white"/>
<path d="M213.776 217.514L173.271 217.462C164.688 217.451 156.864 222.638 153.173 230.788L139.86 260.181L213.722 260.275L213.776 217.514Z" fill="white"/>
<g opacity="0.2">
<path d="M282.449 230.405C283.389 230.909 284.327 231.415 285.267 231.92L280.886 221.101C280.089 219.133 278.252 217.854 276.218 217.852L258.904 217.83C266.725 222.071 274.607 226.203 282.449 230.405Z" fill="#F2F3F4"/>
<path d="M283.808 239.837C270.838 232.803 257.198 224.824 244.361 217.553L228.118 217.791C239.238 227.345 253.294 235.84 265.712 243.49C273.176 248.088 280.798 252.435 288.605 256.426C291.164 257.733 293.843 258.92 296.528 260.119L289.598 243.003C287.671 241.941 285.741 240.885 283.808 239.837Z" fill="#F2F3F4"/>
<path d="M200.997 243.085C195.543 239.553 189.891 236.294 184.204 233.154C178.445 229.973 172.606 226.779 166.57 224.148C164.58 223.28 162.567 222.473 160.56 221.657C157.446 223.934 154.871 227.043 153.174 230.787L153.044 231.073C159.15 235.348 165.298 239.568 171.362 243.877C180.333 250.25 190.235 255.08 199.922 260.257L213.722 260.275L213.732 252.526C209.49 249.373 205.437 245.961 200.997 243.085Z" fill="#F2F3F4"/>
</g>
<path opacity="0.1" d="M171.512 329.307C171.751 328.101 171.875 326.861 171.876 325.597C171.892 313.154 159.997 303.052 145.307 303.033C139.571 303.026 134.262 304.562 129.914 307.173C138.97 309.088 146.946 313.621 153.452 319.555C156.766 322.578 159.345 325.81 161.332 329.23L171.512 329.307Z" fill="black"/>
<path opacity="0.1" d="M310.854 329.485C311.086 328.278 311.208 327.039 311.209 325.775C311.225 313.331 299.612 303.229 285.27 303.211C279.669 303.204 274.486 304.741 270.241 307.351C279.082 309.267 286.87 313.799 293.222 319.733C296.457 322.755 298.975 325.987 300.915 329.408L310.854 329.485Z" fill="black"/>
<path d="M163.404 327.711C163.979 314.67 153.864 303.632 140.811 303.058C127.759 302.484 116.712 312.59 116.137 325.631C115.562 338.672 125.677 349.709 138.729 350.283C151.782 350.858 162.829 340.752 163.404 327.711Z" fill="#1A3151"/>
<path d="M134.908 339.164C127.997 336.478 124.574 328.703 127.262 321.798C129.951 314.893 137.733 311.473 144.644 314.159C151.556 316.846 154.978 324.621 152.29 331.526C149.601 338.431 141.819 341.851 134.908 339.164Z" fill="#F2F3F4"/>
<path opacity="0.1" d="M142.122 336.01C144.687 335.818 147.274 334.918 149.09 333.098C148.291 335.44 146.28 337.331 143.892 337.984C143.081 338.206 142.239 338.292 141.4 338.347C140.511 338.406 139.615 338.43 138.733 338.302C136.36 337.958 134.184 336.449 133.031 334.347C133.408 335.028 136.04 335.511 136.694 335.631C138.481 335.956 140.306 336.146 142.122 336.01Z" fill="black"/>
<path opacity="0.3" d="M302.684 327.414C302.684 328.106 302.653 328.796 302.589 329.474L255.458 329.413C255.397 328.734 255.37 328.048 255.37 327.353C255.387 314.298 265.991 303.73 279.057 303.744C292.123 303.761 302.7 314.359 302.684 327.414Z" fill="#1A3151"/>
<path d="M282.15 333.172C285.983 331.488 287.724 327.018 286.038 323.188C284.352 319.359 279.878 317.62 276.045 319.304C272.212 320.988 270.472 325.458 272.157 329.288C273.843 333.117 278.317 334.857 282.15 333.172Z" fill="#EFEFEA"/>
<path opacity="0.1" d="M280.418 331.504C281.866 331.395 283.327 330.887 284.352 329.86C283.901 331.182 282.765 332.249 281.417 332.618C280.959 332.744 280.484 332.792 280.01 332.823C279.509 332.856 279.002 332.87 278.505 332.798C277.164 332.604 275.936 331.751 275.285 330.565C275.498 330.949 276.984 331.222 277.353 331.289C278.362 331.473 279.393 331.58 280.418 331.504Z" fill="black"/>
<path d="M206.629 277.875L195.813 277.861C195.248 277.861 194.791 277.403 194.792 276.838L194.796 273.358C194.797 272.793 195.255 272.336 195.82 272.337L206.636 272.351C207.201 272.352 207.658 272.81 207.657 273.374L207.653 276.855C207.653 277.419 207.194 277.876 206.629 277.875Z" fill="#1A3151"/>
<path d="M191.136 343.094L193.022 346.393L192.787 348.514L189.956 348.985L185.711 346.393L187.126 337.438L191.136 336.26V343.094Z" fill="#1A3151"/>
<path d="M193.023 313.166C193.023 313.166 188.541 321.414 194.673 326.598C200.806 331.783 211.419 340.03 211.419 340.03L191.371 335.553L189.956 342.623C189.956 342.623 220.382 352.755 221.09 352.049C221.797 351.342 229.345 344.744 229.345 344.744L213.07 309.161L195.145 311.282L193.023 313.166Z" fill="#8E9BA2"/>
<path d="M240.659 307.981C239.588 306.836 238.575 305.644 237.645 304.397L232.051 299.067L224.562 282.715L225.763 272.115C225.763 272.115 226.987 270.843 228.51 269.317C227.067 267.244 225.379 265.865 221.989 265.499C207.714 263.96 208.524 264.827 203.671 270.722C201.719 273.092 198.115 279.892 196.869 282.667C195.359 286.029 193.891 289.408 192.536 292.832C191.024 296.653 189.651 300.53 188.524 304.479C188.398 304.918 187.998 306.134 187.57 307.605C186.762 310.383 185.855 314.069 186.515 315.135C186.858 316.023 187.764 316.97 189.956 317.408C194.673 318.351 198.447 318.351 203.636 315.759C208.825 313.167 217.421 315.007 217.421 315.007C218.787 315.381 220.216 315.75 221.737 316.089C232.796 318.553 238.512 311.786 240.306 310.557C241.874 309.483 240.659 307.984 240.659 307.984V307.981Z" fill="#D1E7F5"/>
<path d="M258.627 275.13C258.622 275.017 259.602 274.187 259.729 274.056C260.119 273.652 260.482 273.212 260.705 272.693C260.941 272.144 261.009 271.54 261.074 270.947C261.114 270.589 261.153 270.231 261.193 269.874C261.208 269.738 261.224 269.597 261.296 269.48C261.361 269.376 261.463 269.302 261.564 269.232C262.084 268.874 262.634 268.559 263.207 268.293C263.214 268.935 262.86 271.56 263.665 271.632C265.5 271.796 267.373 271.681 269.216 271.659C269.35 271.657 269.493 271.659 269.605 271.733C269.687 271.788 269.74 271.877 269.788 271.963C270.392 273.052 270.632 274.339 270.461 275.572C270.45 275.649 270.436 275.729 270.394 275.795C270.343 275.873 270.258 275.919 270.176 275.963C269.061 276.559 267.917 277.08 266.766 277.603C266.341 277.796 266.009 278.091 265.587 278.29C265.381 278.388 264.799 278.779 264.568 278.747L259.622 278.065L258.627 275.13Z" fill="#EAC1A4"/>
<path d="M228.257 269.366L233.337 277.798L259.092 273.795L261.157 279.116L229.47 289.575L208.18 267.336L228.257 269.366Z" fill="#D1E7F5"/>
<path d="M235.447 344.508L240.195 347.67V349.844L236.041 350.635L229.513 347.472L230.106 344.508H235.447Z" fill="#1A3151"/>
<path d="M218.94 266.034C217.018 266.267 215.095 266.5 213.173 266.732C212.819 265.231 212.585 263.701 212.474 262.162C210.784 261.961 208.789 261.539 208.15 259.962C207.949 259.465 207.92 258.918 207.894 258.383C207.787 256.171 207.68 253.96 207.573 251.747C207.536 250.982 207.502 250.194 207.762 249.473C208.219 248.209 209.476 247.42 210.72 246.908C213.893 245.599 217.65 245.512 220.692 247.102C221.501 247.525 222.271 248.079 222.759 248.851C223.511 250.042 223.482 251.545 223.43 252.952C223.382 254.25 223.333 255.548 223.285 256.846C223.229 258.339 223.051 260.062 221.809 260.894C221.15 261.336 220.279 261.444 219.717 262.005C218.728 262.995 219.266 264.674 218.94 266.034Z" fill="#EAC1A4"/>
<path d="M212.634 315.972L241.61 302.562L248.214 311.045L236.893 345.686L229.345 344.743L231.468 324.006C231.468 324.006 225.1 329.426 213.779 328.955C208.59 323.77 208.59 324.006 208.59 324.006L212.634 315.972Z" fill="#8E9BA2"/>
<path d="M287.161 297.944C296.4 288.714 296.4 273.748 287.161 264.518C277.922 255.287 262.943 255.287 253.704 264.518C244.466 273.748 244.466 288.714 253.704 297.944C262.943 307.175 277.922 307.175 287.161 297.944Z" fill="#1A3151"/>
<path d="M277.016 292.915C283.482 289.287 285.779 281.109 282.148 274.649C278.516 268.189 270.331 265.893 263.865 269.521C257.399 273.149 255.102 281.328 258.733 287.788C262.365 294.247 270.55 296.543 277.016 292.915Z" fill="#F2F3F4"/>
<path opacity="0.1" d="M272.782 290.579C275.346 290.387 277.934 289.486 279.749 287.667C278.951 290.008 276.939 291.899 274.551 292.553C273.74 292.775 272.899 292.861 272.059 292.916C271.171 292.974 270.274 292.999 269.393 292.871C267.019 292.527 264.843 291.017 263.69 288.916C264.068 289.597 266.7 290.08 267.354 290.199C269.141 290.524 270.966 290.715 272.782 290.579Z" fill="black"/>
<path d="M259.171 292.244L239.051 287.275L228.442 269.281L220.968 266.014L226.886 295.259L260.439 298.413L259.171 292.244Z" fill="#D1E7F5"/>
<path d="M219.357 247.596L209.51 250.353L209.822 258.876L202.943 256.181L201.067 241.499L221.546 231.773L230.204 242.436L222.619 249.351L219.357 247.596Z" fill="#1A3151"/>
<path d="M256.937 294.387C256.932 294.274 257.912 293.445 258.039 293.314C258.429 292.909 258.791 292.47 259.015 291.95C259.251 291.402 259.318 290.798 259.384 290.204C259.423 289.847 259.463 289.489 259.502 289.131C259.517 288.995 259.534 288.854 259.606 288.738C259.67 288.634 259.773 288.559 259.874 288.49C260.393 288.131 260.944 287.817 261.517 287.55C261.523 288.193 261.17 290.817 261.974 290.89C263.81 291.054 265.683 290.939 267.525 290.916C267.66 290.915 267.803 290.916 267.914 290.991C267.997 291.046 268.049 291.134 268.097 291.221C268.701 292.31 268.941 293.596 268.77 294.829C268.76 294.907 268.746 294.987 268.704 295.052C268.653 295.13 268.568 295.177 268.486 295.221C267.371 295.816 266.227 296.337 265.076 296.86C264.651 297.054 264.32 297.349 263.897 297.548C263.691 297.645 263.11 298.036 262.878 298.004L257.932 297.323L256.937 294.387Z" fill="#EAC1A4"/>
<path d="M284.228 345.374L271.545 332.703C271.047 332.205 271.047 331.39 271.545 330.893C272.044 330.395 272.859 330.395 273.357 330.893L286.039 343.563C286.537 344.061 286.537 344.876 286.039 345.374C285.541 345.871 284.726 345.871 284.228 345.374Z" fill="#1A3151"/>
<path d="M271.488 330.962C271.076 331.487 271.381 332.538 272.204 333.361L283.569 344.716C284.393 345.538 285.445 345.843 285.971 345.432L271.488 330.962Z" fill="#145566"/>
<path d="M274.033 345.374L286.716 332.703C287.214 332.205 287.214 331.39 286.716 330.893C286.217 330.395 285.402 330.395 284.904 330.893L272.222 343.563C271.724 344.061 271.724 344.876 272.222 345.374C272.72 345.871 273.535 345.871 274.033 345.374Z" fill="#1A3151"/>
<path d="M286.774 330.962C287.185 331.487 286.88 332.538 286.057 333.361L274.692 344.716C273.869 345.538 272.816 345.843 272.291 345.432L286.774 330.962Z" fill="#145566"/>
<path d="M291.534 349.343H266.511C265.209 349.343 264.144 348.279 264.144 346.978C264.144 345.678 265.209 344.613 266.511 344.613H291.534C292.836 344.613 293.901 345.678 293.901 346.978C293.901 348.279 292.836 349.343 291.534 349.343Z" fill="#1A3151"/>
<path d="M264.156 347.144C264.273 348.368 265.666 349.343 267.357 349.343H290.689C292.38 349.343 293.773 348.368 293.89 347.144H264.156Z" fill="#145566"/>
<defs>
<filter id="filter0_f_4007_420" x="106" y="0" width="421" height="421" filterUnits="userSpaceOnUse" color-interpolation-filters="sRGB">
<feFlood flood-opacity="0" result="BackgroundImageFix"/>
<feBlend mode="normal" in="SourceGraphic" in2="BackgroundImageFix" result="shape"/>
<feGaussianBlur stdDeviation="76" result="effect1_foregroundBlur_4007_420"/>
</filter>
</defs>
</svg>
