<svg width="428" height="346" viewBox="0 0 428 346" fill="none" xmlns="http://www.w3.org/2000/svg">
<rect width="428" height="346" fill="white"/>
<path d="M47.1613 345.197H366.996C396.278 246.889 408.646 205.124 370.01 183.837C343.935 169.469 316.267 217.73 299.437 177.639C289.745 154.553 302.703 100.206 282.536 82.1355C258.569 60.6588 231.868 81.1569 211.111 101.521C194.86 117.463 152.994 95.1187 136.452 105.748C110.615 122.351 106.282 149.769 98.2538 171.551C86.278 203.051 53.9432 195.302 33.3969 215.238C11.289 236.686 23.7515 262.111 32.5291 285.554C39.5005 304.179 41.7626 326.904 47.1613 345.197Z" fill="#FAF4DF"/>
<path d="M370.601 223.045C370.601 223.045 378.795 220.72 385.59 222.839L390.236 223.448L392.121 229.595L392.978 240.71L388.259 255.571L367.385 255.693L367.193 226.425L370.601 223.045Z" fill="#E8F2FA"/>
<path d="M350.394 232.07C350.394 229.658 357.074 227.066 357.238 228.973L355.52 235.779C355.518 235.779 350.394 233.664 350.394 232.07Z" fill="#D6DEE6"/>
<path d="M399.578 209.777C398.967 207.964 397.021 206.997 395.231 207.614L375.934 214.27L375.981 221.578L397.441 214.176C399.231 213.558 400.187 211.589 399.578 209.777Z" fill="#C3C3C3"/>
<path d="M402.775 213.187C402.017 213.449 401.183 213.033 400.926 212.267L399.191 207.111C398.932 206.343 399.342 205.502 400.1 205.239L406.394 203.07C404.024 200.719 400.463 199.774 397.109 200.93C392.367 202.565 389.833 207.782 391.45 212.582C393.067 217.381 398.22 219.946 402.962 218.31C406.262 217.172 408.492 214.299 409 211.04L402.775 213.187Z" fill="#C3C3C3"/>
<path d="M356.567 224.438L350.852 229.065C350.852 229.065 351.141 231.21 351.072 233.054L356.665 231.922L356.567 224.438Z" fill="#F3CCB3"/>
<path d="M358.297 241.427L357.235 228.972C356.752 231.922 351.488 233.38 350.391 232.068C350.388 232.063 350.391 232.08 350.389 232.085C350.127 238.521 351.512 251.943 356.332 255.107C359.813 257.393 363.472 253.368 364.606 247.613C365.742 241.858 366.451 224.574 366.451 224.574C366.451 224.574 359.322 232.388 358.297 241.427Z" fill="#E3EDF5"/>
<path d="M359.963 220.766C360.946 222.83 359.564 225.567 356.877 226.877C354.189 228.188 351.214 227.575 350.231 225.511C349.248 223.446 350.872 218.867 353.622 220.038C356.061 221.079 358.376 217.433 359.963 220.766Z" fill="#EAC2AB"/>
<path d="M374.355 228.67C377.832 228.904 382.771 226.563 382.975 223.458C383.002 223.038 382.975 222.626 382.903 222.225C376.811 221.283 370.601 223.045 370.601 223.045L370.355 223.29C370.298 226.103 371.134 228.454 374.355 228.67Z" fill="#F3CCB3"/>
<path d="M367.892 335.767H363.284C363.228 336.535 362.909 337.797 362.422 338.177H368.188C367.979 337.365 367.892 335.767 367.892 335.767Z" fill="#F3CCB3"/>
<path d="M362.422 338.177C359.399 340.551 354.866 340.279 353.976 342.175C353.695 342.774 353.336 344.83 353.992 344.83L368.243 344.821C369.692 344.821 368.77 340.466 368.186 338.179H362.422V338.177Z" fill="#7B7B9E"/>
<path d="M389.258 335.767H385.017C385.055 336.479 384.957 337.797 384.728 338.177H389.56C389.379 337.739 389.258 336.266 389.258 335.767Z" fill="#F3CCB3"/>
<path d="M384.73 338.177C383.512 340.195 382.268 340.323 381.447 342.175C381.181 342.774 380.843 344.83 381.464 344.83L391.251 344.821C391.251 340.965 390.118 339.528 389.561 338.179H384.73V338.177Z" fill="#7B7B9E"/>
<path d="M391.251 305.711C391.251 290.488 396.024 275.946 390.416 264.449C387.507 258.485 398.287 236.757 391.586 224.748C389.494 220.999 385.59 222.838 385.59 222.838C385.59 222.838 382.239 236.609 380.082 238.101C378.473 239.213 370.331 239.506 368.723 238.053C366.454 236.004 366.499 227.551 370.601 223.046C370.601 223.046 368.729 223.005 368.125 223.142C367.191 223.353 366.454 224.577 366.454 224.577C366.454 224.577 360.786 234.214 365.261 257.054C365.838 260.186 366.084 264.216 364.929 268.498C363.632 273.311 361.89 282.573 361.89 296.919C361.89 304.721 362.518 333.284 362.986 335.77H368.246C368.817 330.988 372.427 319.449 372.97 306.84C373.172 302.144 374.83 294.964 375.651 290.467C377.248 304.103 379.479 312.007 384.637 335.77H389.896C390.495 331.868 391.251 311.221 391.251 305.711Z" fill="#1A3151"/>
<path d="M375.934 214.27L343.884 225.323C342.093 225.942 341.137 227.911 341.747 229.723C342.358 231.535 344.303 232.504 346.093 231.886L375.979 221.578L375.934 214.27ZM344.508 230.123C343.689 230.128 343.021 229.46 343.015 228.631C343.01 227.802 343.67 227.125 344.49 227.12C345.309 227.115 345.977 227.783 345.982 228.612C345.987 229.44 345.328 230.118 344.508 230.123Z" fill="#C3C3C3"/>
<path d="M381.615 225.736C381.615 225.736 376.398 230.138 372.866 226.105L373.694 216.901L380.703 216.855L381.615 225.736Z" fill="#F3CCB3"/>
<path d="M380.703 216.857L373.694 216.903L373.406 220.091C373.633 220.931 374.599 221.645 375.818 221.888C377.334 222.193 379.685 221.844 381.134 221.048L380.703 216.857Z" fill="#E8C1A7"/>
<path d="M386.022 209.896C387.128 204.241 383.756 200.702 378.931 199.735C374.106 198.767 369.657 200.741 368.549 206.396C367.444 212.051 370.101 219.245 374.926 220.212C379.75 221.176 384.917 215.551 386.022 209.896Z" fill="#F3CCB3"/>
<path d="M387.983 206.122C387.584 205.328 390.951 195.146 381.66 196.722C375.272 189.611 368.611 201.385 368.16 202.148C366.168 205.529 368.342 211.073 368.378 210.567C368.541 208.239 368.485 206.289 369.382 204.972C377.393 208.619 381.418 204.199 381.41 204.303C380.947 209.77 384.376 209.223 382.505 216.869C382.384 217.363 389.895 209.918 387.983 206.122Z" fill="#656685"/>
<path d="M384.691 212.188C385.321 210.746 384.951 209.773 384.131 209.407C383.31 209.041 382.135 209.915 381.507 211.356C380.878 212.798 381.035 214.265 381.854 214.631C382.672 214.997 384.062 213.631 384.691 212.188Z" fill="#F3CCB3"/>
<path d="M381.156 247.904C381.144 248.201 380.802 248.443 380.397 248.443H367.844C367.439 248.443 367.102 248.201 367.096 247.904L366.969 241.718C366.963 241.422 367.291 241.18 367.696 241.18H380.691C381.097 241.18 381.418 241.422 381.407 241.718L381.156 247.904Z" fill="#039A7E"/>
<path d="M380.013 251.169C378.736 251.169 377.834 251.079 377.528 250.565C376.871 249.463 375.72 248.856 374.84 248.085C373.992 247.339 374.127 246.14 374.174 245.103C374.214 244.212 373.914 243.589 372.949 243.936C371.89 244.316 371.786 245.947 371.818 246.939C371.853 248.019 372.447 248.828 373.068 249.645H368.943C368.393 249.645 367.947 250.096 367.947 250.653C367.947 251.21 368.393 251.662 368.943 251.662H368.523C367.972 251.662 367.526 252.113 367.526 252.67C367.526 253.227 367.972 253.678 368.523 253.678H369.09C368.539 253.678 368.093 254.13 368.093 254.687C368.093 255.243 368.539 255.695 369.09 255.695H370.019C369.468 255.695 369.022 256.146 369.022 256.703C369.022 257.26 369.468 257.711 370.019 257.711H375.621C375.621 257.711 375.623 257.711 375.624 257.711C375.626 257.711 375.626 257.711 375.628 257.711C377.947 257.711 377.435 256.703 380.705 256.703C381.947 256.701 380.76 251.169 380.013 251.169Z" fill="#F3CCB3"/>
<path d="M368.06 251.776H371.585V251.531H368.458C368.603 251.612 368.768 251.66 368.945 251.66H368.524C368.354 251.66 368.198 251.703 368.06 251.776Z" fill="#D5B19D"/>
<path d="M371.583 253.799V253.554H368.046C368.187 253.632 368.349 253.676 368.522 253.676H369.089C368.916 253.676 368.754 253.721 368.613 253.799H371.583Z" fill="#D5B19D"/>
<path d="M371.583 255.816V255.57H368.611C368.753 255.649 368.914 255.693 369.088 255.693H370.017C369.843 255.693 369.682 255.737 369.54 255.816H371.583Z" fill="#D5B19D"/>
<path d="M349.917 224.712C350.127 225.315 349.816 225.977 349.218 226.19C348.623 226.403 347.968 226.088 347.758 225.484L346.931 223.113C346.721 222.51 347.034 221.847 347.63 221.634C348.225 221.421 348.88 221.738 349.09 222.341L349.917 224.712Z" fill="#F3CCB3"/>
<path d="M347.978 225.174C348.155 225.673 348.648 225.95 349.08 225.797C349.513 225.642 349.723 225.112 349.551 224.612L347.978 225.174Z" fill="#FFEAD3"/>
<path d="M352.322 224.646C352.532 225.248 352.219 225.911 351.623 226.124C351.027 226.337 350.373 226.02 350.162 225.417L348.793 221.495C348.582 220.892 348.895 220.229 349.491 220.016C350.087 219.803 350.741 220.12 350.952 220.723L352.322 224.646Z" fill="#F3CCB3"/>
<path d="M350.383 225.107C350.56 225.606 351.051 225.884 351.485 225.729C351.919 225.574 352.13 225.044 351.956 224.543L350.383 225.107Z" fill="#FFEAD3"/>
<path d="M354.693 224.48C354.903 225.083 354.592 225.746 353.994 225.959C353.399 226.172 352.744 225.857 352.534 225.252L350.814 220.323C350.603 219.72 350.915 219.057 351.512 218.844C352.108 218.632 352.762 218.948 352.973 219.551L354.693 224.48Z" fill="#F3CCB3"/>
<path d="M352.754 224.94C352.931 225.439 353.424 225.719 353.857 225.562C354.289 225.407 354.5 224.877 354.328 224.376L352.754 224.94Z" fill="#FFEAD3"/>
<path d="M356.64 223.102C356.85 223.705 356.537 224.368 355.941 224.581C355.346 224.794 354.691 224.477 354.481 223.874L353.112 219.952C352.902 219.349 353.215 218.686 353.811 218.473C354.407 218.26 355.061 218.577 355.272 219.18L356.64 223.102Z" fill="#F3CCB3"/>
<path d="M349.869 225.15C349.893 225.216 349.921 225.277 349.955 225.337C349.997 225.134 349.989 224.92 349.916 224.712L349.09 222.343C349.013 222.121 348.875 221.939 348.705 221.806L349.869 225.15Z" fill="#D5B19D"/>
<path d="M352.24 224.985C352.272 225.076 352.316 225.162 352.368 225.24C352.404 225.048 352.392 224.843 352.323 224.647L350.955 220.725C350.881 220.514 350.753 220.34 350.593 220.209C350.603 220.268 350.618 220.33 350.638 220.388L352.24 224.985Z" fill="#D5B19D"/>
<path d="M354.304 223.937C354.373 224.135 354.491 224.3 354.637 224.428C354.629 224.334 354.61 224.24 354.577 224.148L352.971 219.551C352.951 219.492 352.924 219.437 352.895 219.383C352.852 219.587 352.86 219.803 352.932 220.015L354.304 223.937Z" fill="#D5B19D"/>
<path d="M354.701 223.562C354.877 224.061 355.369 224.339 355.803 224.184C356.235 224.029 356.446 223.499 356.274 222.999L354.701 223.562Z" fill="#FFEAD3"/>
<path d="M387.251 235.536C387.177 238.005 386.977 241.524 387.286 244.064C387.55 246.228 388.338 249.374 390.273 246.581C391.571 244.711 391.11 241.989 391.902 239.874L387.251 235.536Z" fill="#CFD9E0"/>
<path d="M390.8 223.997C396.019 230.53 406.503 248.948 402.269 253.675C397.792 258.672 388.71 257.316 379.454 257.378C379.454 257.378 379.064 255.632 379.064 253.69C379.064 251.776 379.412 250.698 379.412 250.698L392.724 248.826C392.724 248.826 388.059 241.207 387.409 238.334C386.598 234.74 388.841 221.544 390.8 223.997Z" fill="#E8F2FA"/>
<path d="M368.374 344.804C368.709 344.731 368.859 344.389 368.931 344.082C369.019 343.704 369.012 343.321 369.012 342.938H358.358C358.102 341.842 357.052 340.991 355.739 340.826C355.182 341.025 354.595 341.268 354.169 341.696C353.861 342.004 353.727 342.387 353.629 342.805C353.53 343.23 353.462 343.677 353.476 344.114C353.484 344.349 353.52 344.83 353.846 344.83L368.245 344.821C368.288 344.82 368.33 344.813 368.374 344.804C368.396 344.799 368.366 344.808 368.374 344.804Z" fill="#D5D5E6"/>
<path d="M381.548 344.828L391.251 344.82C391.251 344.494 391.243 344.171 391.224 343.847C391.208 343.547 391.147 343.237 391.147 342.938H389.011C387.815 340.187 383.594 340.011 381.999 342.45C381.898 342.605 381.809 342.767 381.736 342.938H381.232C381.161 343.292 381.114 343.656 381.114 344.019C381.114 344.251 381.119 344.828 381.464 344.828C381.491 344.83 381.519 344.828 381.548 344.828Z" fill="#D5D5E6"/>
<path d="M373.901 274.588C373.312 287.948 372.144 289.362 372.033 295.013C371.9 301.788 370.871 305.644 369.825 312.377C369.579 313.959 366.153 331.625 367.332 335.767H368.246C368.817 330.984 372.426 319.445 372.97 306.837C373.152 302.613 374.511 296.382 375.38 291.9L375.651 290.464C375.432 288.844 373.837 275.954 373.901 274.588Z" fill="#767272"/>
<path d="M369.017 334.173C369.017 334.009 368.884 333.875 368.723 333.875H362.742C362.58 333.875 362.447 334.009 362.447 334.173V335.469C362.447 335.632 362.58 335.767 362.742 335.767H368.723C368.884 335.767 369.017 335.632 369.017 335.469V334.173Z" fill="#039A7E"/>
<path d="M390.43 334.173C390.43 334.009 390.297 333.875 390.135 333.875H384.154C383.993 333.875 383.86 334.009 383.86 334.173V335.469C383.86 335.632 383.993 335.767 384.154 335.767H390.135C390.297 335.767 390.43 335.632 390.43 335.469V334.173Z" fill="#039A7E"/>
<path d="M375.787 265.481C372.43 265.481 368.992 265.347 365.571 265.079C365.414 265.068 365.268 264.998 365.167 264.889C365.068 264.78 365.019 264.637 365.034 264.495C365.101 263.899 365.14 263.281 365.15 262.659C365.153 262.514 365.222 262.375 365.34 262.276C365.45 262.184 365.591 262.135 365.741 262.135C365.754 262.135 365.768 262.135 365.779 262.136C368.235 262.276 370.709 262.348 373.127 262.348C378.652 262.348 384.114 261.99 389.824 261.256C389.851 261.252 389.88 261.251 389.908 261.251C390.05 261.251 390.186 261.297 390.294 261.38C390.423 261.481 390.497 261.627 390.497 261.782C390.499 262.693 390.62 263.397 390.866 263.931C390.937 264.085 390.923 264.26 390.83 264.403C390.738 264.546 390.575 264.643 390.393 264.664C385.402 265.214 380.624 265.481 375.787 265.481Z" fill="#039A7E"/>
<path d="M372.42 266.798C372.058 266.798 371.76 266.5 371.757 266.134L371.707 261.777C371.703 261.407 371.996 261.102 372.363 261.097L375.029 261.067C375.399 261.067 375.695 261.365 375.7 261.731L375.749 266.089C375.75 266.268 375.685 266.439 375.56 266.566C375.436 266.694 375.271 266.767 375.094 266.769L372.42 266.798ZM375.035 261.513L372.366 261.545C372.245 261.547 372.147 261.647 372.147 261.772L372.198 266.13C372.2 266.253 372.299 266.352 372.418 266.352H372.422L375.087 266.321C375.146 266.321 375.202 266.297 375.242 266.253C375.284 266.21 375.306 266.154 375.306 266.094L375.256 261.736C375.256 261.613 375.156 261.513 375.035 261.513Z" fill="#4FF6D8"/>
<path d="M371.383 264.182C371.265 264.182 371.166 264.086 371.163 263.966C371.158 263.843 371.254 263.739 371.377 263.734L373 263.673C373.118 263.666 373.224 263.765 373.229 263.887C373.234 264.012 373.138 264.114 373.016 264.119L371.392 264.18C371.388 264.182 371.385 264.182 371.383 264.182Z" fill="#4FF6D8"/>
<path d="M355.503 329.581C355.503 332.13 353.443 334.215 353.179 334.215H254.629C249.855 334.215 247.795 332.129 247.795 329.581V183.864C247.795 181.314 249.856 179.23 252.374 179.23H350.924C353.443 179.23 355.503 181.314 355.503 183.864V329.581Z" fill="#767272"/>
<path d="M350.557 184.234H252.741V324.548H350.557V184.234Z" fill="white"/>
<path d="M283.064 190.835C282.165 190.835 281.317 190.418 280.762 189.703C280.206 188.987 280.092 188.091 280.22 187.17L281.354 178.041C281.553 176.678 282.848 175.779 284.198 175.779H289.279C290.167 175.779 290.933 175.108 291.061 174.219L291.303 172.536C291.512 171.08 292.745 170 294.201 170H309.094C310.548 170 311.782 171.08 311.99 172.536L312.233 174.219C312.361 175.11 313.126 175.779 314.015 175.779H319.096C320.445 175.779 321.743 176.644 321.94 178.041L323.075 187.17C323.16 188.021 323.089 188.987 322.534 189.703C321.978 190.418 321.13 190.835 320.231 190.835H283.064Z" fill="#FFC328"/>
<path d="M277.652 219.319H262.997C262.603 219.319 262.284 218.996 262.284 218.597V203.766C262.284 203.367 262.603 203.044 262.997 203.044H273.943C274.336 203.044 274.656 203.367 274.656 203.766C274.656 204.164 274.336 204.488 273.943 204.488H263.711V217.875H276.938V208.4C276.938 208.002 277.258 207.678 277.652 207.678C278.045 207.678 278.365 208.002 278.365 208.4V218.597C278.365 218.996 278.045 219.319 277.652 219.319Z" fill="#81CC93"/>
<path d="M270.325 215.148C270.137 215.148 269.955 215.073 269.82 214.937L265.585 210.65C265.305 210.369 265.305 209.911 265.585 209.63C265.864 209.347 266.315 209.347 266.594 209.63L270.217 213.297L277.403 202.463C277.624 202.132 278.066 202.044 278.393 202.265C278.719 202.487 278.807 202.936 278.588 203.267L270.919 214.828C270.8 215.007 270.608 215.123 270.396 215.145C270.372 215.148 270.349 215.148 270.325 215.148Z" fill="#81CC93"/>
<path d="M277.652 249.556H262.997C262.603 249.556 262.284 249.233 262.284 248.834V234.003C262.284 233.604 262.603 233.28 262.997 233.28H273.943C274.336 233.28 274.656 233.604 274.656 234.003C274.656 234.401 274.336 234.725 273.943 234.725H263.711V248.112H276.938V238.637C276.938 238.238 277.258 237.915 277.652 237.915C278.045 237.915 278.365 238.238 278.365 238.637V248.834C278.365 249.233 278.045 249.556 277.652 249.556Z" fill="#81CC93"/>
<path d="M270.325 245.385C270.137 245.385 269.955 245.31 269.82 245.174L265.585 240.887C265.305 240.604 265.305 240.148 265.585 239.865C265.864 239.582 266.315 239.582 266.594 239.865L270.217 243.532L277.403 232.698C277.624 232.368 278.066 232.279 278.393 232.5C278.719 232.724 278.807 233.172 278.588 233.502L270.919 245.063C270.8 245.242 270.608 245.358 270.396 245.38C270.372 245.383 270.349 245.385 270.325 245.385Z" fill="#81CC93"/>
<path d="M277.652 279.791H262.997C262.603 279.791 262.284 279.468 262.284 279.069V264.238C262.284 263.839 262.603 263.516 262.997 263.516H273.943C274.336 263.516 274.656 263.839 274.656 264.238C274.656 264.636 274.336 264.96 273.943 264.96H263.711V278.347H276.938V268.872C276.938 268.474 277.258 268.15 277.652 268.15C278.045 268.15 278.365 268.474 278.365 268.872V279.069C278.365 279.469 278.045 279.791 277.652 279.791Z" fill="#81CC93"/>
<path d="M270.325 275.62C270.137 275.62 269.955 275.545 269.82 275.409L265.585 271.122C265.305 270.841 265.305 270.383 265.585 270.1C265.864 269.819 266.315 269.819 266.594 270.1L270.217 273.767L277.403 262.933C277.624 262.603 278.066 262.514 278.393 262.736C278.719 262.957 278.807 263.407 278.588 263.737L270.919 275.298C270.8 275.477 270.608 275.593 270.396 275.615C270.372 275.62 270.349 275.62 270.325 275.62Z" fill="#81CC93"/>
<path d="M277.652 310.028H262.997C262.603 310.028 262.284 309.705 262.284 309.306V294.475C262.284 294.076 262.603 293.752 262.997 293.752H273.943C274.336 293.752 274.656 294.076 274.656 294.475C274.656 294.873 274.336 295.197 273.943 295.197H263.711V308.584H276.938V299.109C276.938 298.71 277.258 298.387 277.652 298.387C278.045 298.387 278.365 298.71 278.365 299.109V309.306C278.365 309.705 278.045 310.028 277.652 310.028Z" fill="#81CC93"/>
<path d="M270.325 305.857C270.137 305.857 269.955 305.782 269.82 305.646L265.585 301.359C265.305 301.076 265.305 300.62 265.585 300.337C265.864 300.054 266.315 300.054 266.594 300.337L270.217 304.004L277.403 293.172C277.624 292.839 278.066 292.753 278.393 292.974C278.719 293.197 278.807 293.645 278.588 293.976L270.919 305.539C270.8 305.717 270.608 305.835 270.396 305.855C270.372 305.855 270.349 305.857 270.325 305.857Z" fill="#81CC93"/>
<path d="M340.008 203.766H299.177V205.99H340.008V203.766Z" fill="#B0B6C1"/>
<path d="M340.01 210.069H292.489V212.294H340.01V210.069Z" fill="#B0B6C1"/>
<path d="M332.59 216.373H292.489V218.597H332.59V216.373Z" fill="#B0B6C1"/>
<path d="M340.01 234.003H292.489V236.227H340.01V234.003Z" fill="#B0B6C1"/>
<path d="M340.01 240.306H292.489V242.531H340.01V240.306Z" fill="#B0B6C1"/>
<path d="M320.514 246.61H292.489V248.834H320.514V246.61Z" fill="#B0B6C1"/>
<path d="M340.01 264.238H292.489V266.462H340.01V264.238Z" fill="#B0B6C1"/>
<path d="M340.01 270.541H292.489V272.766H340.01V270.541Z" fill="#B0B6C1"/>
<path d="M335.254 276.845H292.489V279.069H335.254V276.845Z" fill="#B0B6C1"/>
<path d="M340.01 294.475H292.489V296.699H340.01V294.475Z" fill="#B0B6C1"/>
<path d="M340.01 300.778H292.489V303.002H340.01V300.778Z" fill="#B0B6C1"/>
<path d="M305.809 307.082H292.489V309.306H305.809V307.082Z" fill="#B0B6C1"/>
<path d="M304.273 181.527C304.273 180.061 303.098 178.87 301.648 178.87C300.199 178.87 299.022 180.059 299.022 181.527C299.022 182.994 300.197 184.184 301.648 184.184C303.098 184.182 304.273 182.994 304.273 181.527Z" fill="#FFC328"/>
<g clip-path="url(#clip0_4007_411)">
<path d="M381 73H317V162H381V73Z" fill="#FFC727"/>
<g opacity="0.2">
<path d="M381 73H317V162H381V73Z" fill="black"/>
</g>
<path d="M376.787 77.1998H321.218V157.842H376.787V77.1998Z" fill="#FFC727"/>
<path opacity="0.5" d="M376.787 77.1998H321.218V157.842H376.787V77.1998Z" fill="white"/>
<g opacity="0.5">
<path d="M326.512 79.8263C326.512 80.1759 326.23 80.4565 325.879 80.4565C325.528 80.4565 325.246 80.1759 325.246 79.8263C325.246 79.4767 325.528 79.1961 325.879 79.1961C326.23 79.1961 326.512 79.4767 326.512 79.8263Z" fill="#FFC727"/>
<path d="M326.512 87.3657C326.512 87.7153 326.23 87.9959 325.879 87.9959C325.528 87.9959 325.246 87.7153 325.246 87.3657C325.246 87.0161 325.528 86.7355 325.879 86.7355C326.23 86.7355 326.512 87.0161 326.512 87.3657Z" fill="#FFC727"/>
<path d="M326.512 94.905C326.512 95.2546 326.23 95.5352 325.879 95.5352C325.528 95.5352 325.246 95.2546 325.246 94.905C325.246 94.5554 325.528 94.2748 325.879 94.2748C326.23 94.2748 326.512 94.5554 326.512 94.905Z" fill="#FFC727"/>
<path d="M326.512 102.44C326.512 102.789 326.23 103.07 325.879 103.07C325.528 103.07 325.246 102.789 325.246 102.44C325.246 102.09 325.528 101.81 325.879 101.81C326.23 101.81 326.512 102.095 326.512 102.44Z" fill="#FFC727"/>
<path d="M326.512 109.979C326.512 110.329 326.23 110.609 325.879 110.609C325.528 110.609 325.246 110.329 325.246 109.979C325.246 109.629 325.528 109.349 325.879 109.349C326.23 109.349 326.512 109.634 326.512 109.979Z" fill="#FFC727"/>
<path d="M326.512 117.518C326.512 117.868 326.23 118.149 325.879 118.149C325.528 118.149 325.246 117.868 325.246 117.518C325.246 117.169 325.528 116.888 325.879 116.888C326.23 116.888 326.512 117.173 326.512 117.518Z" fill="#FFC727"/>
<path d="M326.512 125.058C326.512 125.407 326.23 125.688 325.879 125.688C325.528 125.688 325.246 125.407 325.246 125.058C325.246 124.708 325.528 124.428 325.879 124.428C326.23 124.428 326.512 124.708 326.512 125.058Z" fill="#FFC727"/>
<path d="M326.512 132.597C326.512 132.947 326.23 133.227 325.879 133.227C325.528 133.227 325.246 132.947 325.246 132.597C325.246 132.247 325.528 131.967 325.879 131.967C326.23 131.967 326.512 132.247 326.512 132.597Z" fill="#FFC727"/>
<path d="M326.512 140.136C326.512 140.486 326.23 140.767 325.879 140.767C325.528 140.767 325.246 140.486 325.246 140.136C325.246 139.787 325.528 139.506 325.879 139.506C326.23 139.506 326.512 139.787 326.512 140.136Z" fill="#FFC727"/>
<path d="M326.512 147.676C326.512 148.025 326.23 148.306 325.879 148.306C325.528 148.306 325.246 148.025 325.246 147.676C325.246 147.326 325.528 147.046 325.879 147.046C326.23 147.046 326.512 147.326 326.512 147.676Z" fill="#FFC727"/>
<path d="M333.585 80.4565C333.934 80.4565 334.217 80.1744 334.217 79.8263C334.217 79.4783 333.934 79.1961 333.585 79.1961C333.235 79.1961 332.952 79.4783 332.952 79.8263C332.952 80.1744 333.235 80.4565 333.585 80.4565Z" fill="#FFC727"/>
<path d="M333.585 87.9959C333.934 87.9959 334.217 87.7137 334.217 87.3657C334.217 87.0176 333.934 86.7355 333.585 86.7355C333.235 86.7355 332.952 87.0176 332.952 87.3657C332.952 87.7137 333.235 87.9959 333.585 87.9959Z" fill="#FFC727"/>
<path d="M334.222 94.905C334.222 95.2546 333.94 95.5352 333.589 95.5352C333.238 95.5352 332.956 95.2546 332.956 94.905C332.956 94.5554 333.238 94.2748 333.589 94.2748C333.935 94.2748 334.222 94.5554 334.222 94.905Z" fill="#FFC727"/>
<path d="M334.222 102.44C334.222 102.789 333.94 103.07 333.589 103.07C333.238 103.07 332.956 102.789 332.956 102.44C332.956 102.09 333.238 101.81 333.589 101.81C333.935 101.81 334.222 102.095 334.222 102.44Z" fill="#FFC727"/>
<path d="M334.222 109.979C334.222 110.329 333.94 110.609 333.589 110.609C333.238 110.609 332.956 110.329 332.956 109.979C332.956 109.629 333.238 109.349 333.589 109.349C333.935 109.349 334.222 109.634 334.222 109.979Z" fill="#FFC727"/>
<path d="M334.222 117.518C334.222 117.868 333.94 118.149 333.589 118.149C333.238 118.149 332.956 117.868 332.956 117.518C332.956 117.169 333.238 116.888 333.589 116.888C333.935 116.888 334.222 117.173 334.222 117.518Z" fill="#FFC727"/>
<path d="M333.585 125.688C333.934 125.688 334.217 125.406 334.217 125.058C334.217 124.71 333.934 124.428 333.585 124.428C333.235 124.428 332.952 124.71 332.952 125.058C332.952 125.406 333.235 125.688 333.585 125.688Z" fill="#FFC727"/>
<path d="M334.222 132.597C334.222 132.947 333.94 133.227 333.589 133.227C333.238 133.227 332.956 132.947 332.956 132.597C332.956 132.247 333.238 131.967 333.589 131.967C333.935 131.967 334.222 132.247 334.222 132.597Z" fill="#FFC727"/>
<path d="M334.222 140.136C334.222 140.486 333.94 140.767 333.589 140.767C333.238 140.767 332.956 140.486 332.956 140.136C332.956 139.787 333.238 139.506 333.589 139.506C333.935 139.506 334.222 139.787 334.222 140.136Z" fill="#FFC727"/>
<path d="M334.222 147.676C334.222 148.025 333.94 148.306 333.589 148.306C333.238 148.306 332.956 148.025 332.956 147.676C332.956 147.326 333.238 147.046 333.589 147.046C333.935 147.046 334.222 147.326 334.222 147.676Z" fill="#FFC727"/>
<path d="M341.927 79.8263C341.927 80.1759 341.646 80.4565 341.295 80.4565C340.943 80.4565 340.662 80.1759 340.662 79.8263C340.662 79.4767 340.943 79.1961 341.295 79.1961C341.641 79.1961 341.927 79.4767 341.927 79.8263Z" fill="#FFC727"/>
<path d="M341.927 87.3657C341.927 87.7153 341.646 87.9959 341.295 87.9959C340.943 87.9959 340.662 87.7153 340.662 87.3657C340.662 87.0161 340.943 86.7355 341.295 86.7355C341.641 86.7355 341.927 87.0161 341.927 87.3657Z" fill="#FFC727"/>
<path d="M341.927 94.905C341.927 95.2546 341.646 95.5352 341.295 95.5352C340.943 95.5352 340.662 95.2546 340.662 94.905C340.662 94.5554 340.943 94.2748 341.295 94.2748C341.641 94.2748 341.927 94.5554 341.927 94.905Z" fill="#FFC727"/>
<path d="M341.927 102.44C341.927 102.789 341.646 103.07 341.295 103.07C340.943 103.07 340.662 102.789 340.662 102.44C340.662 102.09 340.943 101.81 341.295 101.81C341.641 101.81 341.927 102.095 341.927 102.44Z" fill="#FFC727"/>
<path d="M341.927 109.979C341.927 110.329 341.646 110.609 341.295 110.609C340.943 110.609 340.662 110.329 340.662 109.979C340.662 109.629 340.943 109.349 341.295 109.349C341.641 109.349 341.927 109.634 341.927 109.979Z" fill="#FFC727"/>
<path d="M341.927 117.518C341.927 117.868 341.646 118.149 341.295 118.149C340.943 118.149 340.662 117.868 340.662 117.518C340.662 117.169 340.943 116.888 341.295 116.888C341.641 116.888 341.927 117.173 341.927 117.518Z" fill="#FFC727"/>
<path d="M341.927 125.058C341.927 125.407 341.646 125.688 341.295 125.688C340.943 125.688 340.662 125.407 340.662 125.058C340.662 124.708 340.943 124.428 341.295 124.428C341.641 124.428 341.927 124.708 341.927 125.058Z" fill="#FFC727"/>
<path d="M341.927 132.597C341.927 132.947 341.646 133.227 341.295 133.227C340.943 133.227 340.662 132.947 340.662 132.597C340.662 132.247 340.943 131.967 341.295 131.967C341.641 131.967 341.927 132.247 341.927 132.597Z" fill="#FFC727"/>
<path d="M341.927 140.136C341.927 140.486 341.646 140.767 341.295 140.767C340.943 140.767 340.662 140.486 340.662 140.136C340.662 139.787 340.943 139.506 341.295 139.506C341.641 139.506 341.927 139.787 341.927 140.136Z" fill="#FFC727"/>
<path d="M341.927 147.676C341.927 148.025 341.646 148.306 341.295 148.306C340.943 148.306 340.662 148.025 340.662 147.676C340.662 147.326 340.943 147.046 341.295 147.046C341.641 147.046 341.927 147.326 341.927 147.676Z" fill="#FFC727"/>
<path d="M349 80.4565C349.35 80.4565 349.633 80.1744 349.633 79.8263C349.633 79.4783 349.35 79.1961 349 79.1961C348.651 79.1961 348.367 79.4783 348.367 79.8263C348.367 80.1744 348.651 80.4565 349 80.4565Z" fill="#FFC727"/>
<path d="M349 87.9959C349.35 87.9959 349.633 87.7137 349.633 87.3657C349.633 87.0176 349.35 86.7355 349 86.7355C348.651 86.7355 348.367 87.0176 348.367 87.3657C348.367 87.7137 348.651 87.9959 349 87.9959Z" fill="#FFC727"/>
<path d="M349.633 94.905C349.633 95.2546 349.351 95.5352 349 95.5352C348.649 95.5352 348.367 95.2546 348.367 94.905C348.367 94.5554 348.649 94.2748 349 94.2748C349.351 94.2748 349.633 94.5554 349.633 94.905Z" fill="#FFC727"/>
<path d="M349.633 102.44C349.633 102.789 349.351 103.07 349 103.07C348.649 103.07 348.367 102.789 348.367 102.44C348.367 102.09 348.649 101.81 349 101.81C349.351 101.81 349.633 102.095 349.633 102.44Z" fill="#FFC727"/>
<path d="M349.633 109.979C349.633 110.329 349.351 110.609 349 110.609C348.649 110.609 348.367 110.329 348.367 109.979C348.367 109.629 348.649 109.349 349 109.349C349.351 109.349 349.633 109.634 349.633 109.979Z" fill="#FFC727"/>
<path d="M349.633 117.518C349.633 117.868 349.351 118.149 349 118.149C348.649 118.149 348.367 117.868 348.367 117.518C348.367 117.169 348.649 116.888 349 116.888C349.351 116.888 349.633 117.173 349.633 117.518Z" fill="#FFC727"/>
<path d="M349 125.688C349.35 125.688 349.633 125.406 349.633 125.058C349.633 124.71 349.35 124.428 349 124.428C348.651 124.428 348.367 124.71 348.367 125.058C348.367 125.406 348.651 125.688 349 125.688Z" fill="#FFC727"/>
<path d="M349.633 132.597C349.633 132.947 349.351 133.227 349 133.227C348.649 133.227 348.367 132.947 348.367 132.597C348.367 132.247 348.649 131.967 349 131.967C349.351 131.967 349.633 132.247 349.633 132.597Z" fill="#FFC727"/>
<path d="M349.633 140.136C349.633 140.486 349.351 140.767 349 140.767C348.649 140.767 348.367 140.486 348.367 140.136C348.367 139.787 348.649 139.506 349 139.506C349.351 139.506 349.633 139.787 349.633 140.136Z" fill="#FFC727"/>
<path d="M349.633 147.676C349.633 148.025 349.351 148.306 349 148.306C348.649 148.306 348.367 148.025 348.367 147.676C348.367 147.326 348.649 147.046 349 147.046C349.351 147.046 349.633 147.326 349.633 147.676Z" fill="#FFC727"/>
<path d="M356.706 80.4565C357.055 80.4565 357.339 80.1744 357.339 79.8263C357.339 79.4783 357.055 79.1961 356.706 79.1961C356.356 79.1961 356.073 79.4783 356.073 79.8263C356.073 80.1744 356.356 80.4565 356.706 80.4565Z" fill="#FFC727"/>
<path d="M356.706 87.9959C357.055 87.9959 357.339 87.7137 357.339 87.3657C357.339 87.0176 357.055 86.7355 356.706 86.7355C356.356 86.7355 356.073 87.0176 356.073 87.3657C356.073 87.7137 356.356 87.9959 356.706 87.9959Z" fill="#FFC727"/>
<path d="M357.339 94.905C357.339 95.2546 357.057 95.5352 356.706 95.5352C356.355 95.5352 356.073 95.2546 356.073 94.905C356.073 94.5554 356.355 94.2748 356.706 94.2748C357.057 94.2748 357.339 94.5554 357.339 94.905Z" fill="#FFC727"/>
<path d="M357.339 102.44C357.339 102.789 357.057 103.07 356.706 103.07C356.355 103.07 356.073 102.789 356.073 102.44C356.073 102.09 356.355 101.81 356.706 101.81C357.057 101.81 357.339 102.095 357.339 102.44Z" fill="#FFC727"/>
<path d="M357.339 109.979C357.339 110.329 357.057 110.609 356.706 110.609C356.355 110.609 356.073 110.329 356.073 109.979C356.073 109.629 356.355 109.349 356.706 109.349C357.057 109.349 357.339 109.634 357.339 109.979Z" fill="#FFC727"/>
<path d="M357.339 117.518C357.339 117.868 357.057 118.149 356.706 118.149C356.355 118.149 356.073 117.868 356.073 117.518C356.073 117.169 356.355 116.888 356.706 116.888C357.057 116.888 357.339 117.173 357.339 117.518Z" fill="#FFC727"/>
<path d="M356.706 125.688C357.055 125.688 357.339 125.406 357.339 125.058C357.339 124.71 357.055 124.428 356.706 124.428C356.356 124.428 356.073 124.71 356.073 125.058C356.073 125.406 356.356 125.688 356.706 125.688Z" fill="#FFC727"/>
<path d="M357.339 132.597C357.339 132.947 357.057 133.227 356.706 133.227C356.355 133.227 356.073 132.947 356.073 132.597C356.073 132.247 356.355 131.967 356.706 131.967C357.057 131.967 357.339 132.247 357.339 132.597Z" fill="#FFC727"/>
<path d="M357.339 140.136C357.339 140.486 357.057 140.767 356.706 140.767C356.355 140.767 356.073 140.486 356.073 140.136C356.073 139.787 356.355 139.506 356.706 139.506C357.057 139.506 357.339 139.787 357.339 140.136Z" fill="#FFC727"/>
<path d="M357.339 147.676C357.339 148.025 357.057 148.306 356.706 148.306C356.355 148.306 356.073 148.025 356.073 147.676C356.073 147.326 356.355 147.046 356.706 147.046C357.057 147.046 357.339 147.326 357.339 147.676Z" fill="#FFC727"/>
<path d="M365.044 79.8263C365.044 80.1759 364.762 80.4565 364.411 80.4565C364.06 80.4565 363.778 80.1759 363.778 79.8263C363.778 79.4767 364.06 79.1961 364.411 79.1961C364.762 79.1961 365.044 79.4767 365.044 79.8263Z" fill="#FFC727"/>
<path d="M365.044 87.3657C365.044 87.7153 364.762 87.9959 364.411 87.9959C364.06 87.9959 363.778 87.7153 363.778 87.3657C363.778 87.0161 364.06 86.7355 364.411 86.7355C364.762 86.7355 365.044 87.0161 365.044 87.3657Z" fill="#FFC727"/>
<path d="M365.044 94.905C365.044 95.2546 364.762 95.5352 364.411 95.5352C364.06 95.5352 363.778 95.2546 363.778 94.905C363.778 94.5554 364.06 94.2748 364.411 94.2748C364.762 94.2748 365.044 94.5554 365.044 94.905Z" fill="#FFC727"/>
<path d="M365.044 102.44C365.044 102.789 364.762 103.07 364.411 103.07C364.06 103.07 363.778 102.789 363.778 102.44C363.778 102.09 364.06 101.81 364.411 101.81C364.762 101.81 365.044 102.095 365.044 102.44Z" fill="#FFC727"/>
<path d="M365.044 109.979C365.044 110.329 364.762 110.609 364.411 110.609C364.06 110.609 363.778 110.329 363.778 109.979C363.778 109.629 364.06 109.349 364.411 109.349C364.762 109.349 365.044 109.634 365.044 109.979Z" fill="#FFC727"/>
<path d="M365.044 117.518C365.044 117.868 364.762 118.149 364.411 118.149C364.06 118.149 363.778 117.868 363.778 117.518C363.778 117.169 364.06 116.888 364.411 116.888C364.762 116.888 365.044 117.173 365.044 117.518Z" fill="#FFC727"/>
<path d="M365.044 125.058C365.044 125.407 364.762 125.688 364.411 125.688C364.06 125.688 363.778 125.407 363.778 125.058C363.778 124.708 364.06 124.428 364.411 124.428C364.762 124.428 365.044 124.708 365.044 125.058Z" fill="#FFC727"/>
<path d="M365.044 132.597C365.044 132.947 364.762 133.227 364.411 133.227C364.06 133.227 363.778 132.947 363.778 132.597C363.778 132.247 364.06 131.967 364.411 131.967C364.762 131.967 365.044 132.247 365.044 132.597Z" fill="#FFC727"/>
<path d="M365.044 140.136C365.044 140.486 364.762 140.767 364.411 140.767C364.06 140.767 363.778 140.486 363.778 140.136C363.778 139.787 364.06 139.506 364.411 139.506C364.762 139.506 365.044 139.787 365.044 140.136Z" fill="#FFC727"/>
<path d="M365.044 147.676C365.044 148.025 364.762 148.306 364.411 148.306C364.06 148.306 363.778 148.025 363.778 147.676C363.778 147.326 364.06 147.046 364.411 147.046C364.762 147.046 365.044 147.326 365.044 147.676Z" fill="#FFC727"/>
<path d="M372.117 80.4565C372.466 80.4565 372.75 80.1744 372.75 79.8263C372.75 79.4783 372.466 79.1961 372.117 79.1961C371.767 79.1961 371.484 79.4783 371.484 79.8263C371.484 80.1744 371.767 80.4565 372.117 80.4565Z" fill="#FFC727"/>
<path d="M372.117 87.9959C372.466 87.9959 372.75 87.7137 372.75 87.3657C372.75 87.0176 372.466 86.7355 372.117 86.7355C371.767 86.7355 371.484 87.0176 371.484 87.3657C371.484 87.7137 371.767 87.9959 372.117 87.9959Z" fill="#FFC727"/>
<path d="M372.75 94.905C372.75 95.2546 372.468 95.5352 372.117 95.5352C371.766 95.5352 371.484 95.2546 371.484 94.905C371.484 94.5554 371.766 94.2748 372.117 94.2748C372.468 94.2748 372.75 94.5554 372.75 94.905Z" fill="#FFC727"/>
<path d="M372.75 102.44C372.75 102.789 372.468 103.07 372.117 103.07C371.766 103.07 371.484 102.789 371.484 102.44C371.484 102.09 371.766 101.81 372.117 101.81C372.468 101.81 372.75 102.095 372.75 102.44Z" fill="#FFC727"/>
<path d="M372.75 109.979C372.75 110.329 372.468 110.609 372.117 110.609C371.766 110.609 371.484 110.329 371.484 109.979C371.484 109.629 371.766 109.349 372.117 109.349C372.468 109.349 372.75 109.634 372.75 109.979Z" fill="#FFC727"/>
<path d="M372.75 117.518C372.75 117.868 372.468 118.149 372.117 118.149C371.766 118.149 371.484 117.868 371.484 117.518C371.484 117.169 371.766 116.888 372.117 116.888C372.468 116.888 372.75 117.173 372.75 117.518Z" fill="#FFC727"/>
<path d="M372.117 125.688C372.466 125.688 372.75 125.406 372.75 125.058C372.75 124.71 372.466 124.428 372.117 124.428C371.767 124.428 371.484 124.71 371.484 125.058C371.484 125.406 371.767 125.688 372.117 125.688Z" fill="#FFC727"/>
<path d="M372.75 132.597C372.75 132.947 372.468 133.227 372.117 133.227C371.766 133.227 371.484 132.947 371.484 132.597C371.484 132.247 371.766 131.967 372.117 131.967C372.468 131.967 372.75 132.247 372.75 132.597Z" fill="#FFC727"/>
<path d="M372.75 140.136C372.75 140.486 372.468 140.767 372.117 140.767C371.766 140.767 371.484 140.486 371.484 140.136C371.484 139.787 371.766 139.506 372.117 139.506C372.468 139.506 372.75 139.787 372.75 140.136Z" fill="#FFC727"/>
<path d="M372.75 147.676C372.75 148.025 372.468 148.306 372.117 148.306C371.766 148.306 371.484 148.025 371.484 147.676C371.484 147.326 371.766 147.046 372.117 147.046C372.468 147.046 372.75 147.326 372.75 147.676Z" fill="#FFC727"/>
<path d="M326.512 155.215C326.512 155.565 326.23 155.845 325.879 155.845C325.528 155.845 325.246 155.565 325.246 155.215C325.246 154.865 325.528 154.585 325.879 154.585C326.23 154.585 326.512 154.865 326.512 155.215Z" fill="#FFC727"/>
<path d="M334.222 155.215C334.222 155.565 333.94 155.845 333.589 155.845C333.238 155.845 332.956 155.565 332.956 155.215C332.956 154.865 333.238 154.585 333.589 154.585C333.935 154.58 334.222 154.865 334.222 155.215Z" fill="#FFC727"/>
<path d="M341.927 155.215C341.927 155.565 341.646 155.845 341.295 155.845C340.943 155.845 340.662 155.565 340.662 155.215C340.662 154.865 340.943 154.585 341.295 154.585C341.641 154.58 341.927 154.865 341.927 155.215Z" fill="#FFC727"/>
<path d="M349.633 155.215C349.633 155.565 349.351 155.845 349 155.845C348.649 155.845 348.367 155.565 348.367 155.215C348.367 154.865 348.649 154.585 349 154.585C349.351 154.58 349.633 154.865 349.633 155.215Z" fill="#FFC727"/>
<path d="M357.339 155.215C357.339 155.565 357.057 155.845 356.706 155.845C356.355 155.845 356.073 155.565 356.073 155.215C356.073 154.865 356.355 154.585 356.706 154.585C357.057 154.58 357.339 154.865 357.339 155.215Z" fill="#FFC727"/>
<path d="M365.044 155.215C365.044 155.565 364.762 155.845 364.411 155.845C364.06 155.845 363.778 155.565 363.778 155.215C363.778 154.865 364.06 154.585 364.411 154.585C364.762 154.58 365.044 154.865 365.044 155.215Z" fill="#FFC727"/>
<path d="M372.75 155.215C372.75 155.565 372.468 155.845 372.117 155.845C371.766 155.845 371.484 155.565 371.484 155.215C371.484 154.865 371.766 154.585 372.117 154.585C372.468 154.58 372.75 154.865 372.75 155.215Z" fill="#FFC727"/>
</g>
<path d="M376.783 77.1998H375.193V157.911H376.783V77.1998Z" fill="#FFC727"/>
<path d="M363.122 150.587H361.746L362.281 150.072L361.746 149.557L362.281 149.037L361.746 148.527L362.281 148.007L361.746 147.496L362.281 146.981L361.746 146.461L362.281 145.951L361.746 145.431L362.281 144.916L361.746 144.401L362.281 143.885L361.746 143.37L362.281 142.855L361.746 142.34L362.281 141.82L361.746 141.309L362.281 140.79L361.746 140.279L362.281 139.759L361.746 139.244L362.281 138.733L361.746 138.214L362.281 137.698L361.746 137.183L362.281 136.668L361.746 136.153L362.281 135.638L361.746 135.122L362.281 134.603L361.746 134.092L362.281 133.572L361.746 133.057L362.281 132.542L361.746 132.027L362.281 131.511L361.746 130.996L362.281 130.481L361.746 129.966L362.281 129.451L361.746 128.931L362.281 128.42L361.746 127.9L362.281 127.385L361.746 126.875L362.281 126.355L361.746 125.84L362.281 125.325L361.746 124.809L362.281 124.294L361.746 123.779H363.122V150.587Z" fill="#A6A6A6"/>
<path d="M363.13 123.779L363.13 118.066L361.744 118.066L361.744 123.779L363.13 123.779Z" fill="#37474F"/>
<path d="M363.122 150.587V149.548H368.259C368.763 149.548 369.174 149.139 369.174 148.637V125.214C369.174 124.713 368.763 124.303 368.259 124.303H363.136V123.264H368.259C369.34 123.264 370.222 124.138 370.222 125.219V148.642C370.222 149.718 369.345 150.597 368.259 150.597L363.122 150.587Z" fill="#263238"/>
<path d="M351.093 132.367H346.907V121.433C346.907 120.798 347.425 120.283 348.062 120.283H349.933C350.571 120.283 351.088 120.798 351.088 121.433L351.093 132.367Z" fill="#455A64"/>
<path d="M350.409 132.367H347.591V133.48H350.409V132.367Z" fill="#455A64"/>
<path d="M349.448 133.48H348.552V145.468H349.448V133.48Z" fill="#A6A6A6"/>
<path d="M349.901 146.521C349.901 146.521 349.351 148.366 349.291 148.366H348.996C348.991 148.366 348.991 148.366 348.991 148.366H348.695C348.635 148.366 348.085 146.521 348.085 146.521L348.547 145.472H349.434L349.901 146.521Z" fill="#A6A6A6"/>
<path d="M348.035 121.852H347.305V131.189H348.035V121.852Z" fill="#263238"/>
<path d="M349.392 121.852H348.663V131.189H349.392V121.852Z" fill="#263238"/>
<path d="M350.746 121.852H350.016V131.189H350.746V121.852Z" fill="#263238"/>
<path d="M329.316 120.83H326.562V125.108H329.316V120.83Z" fill="#A6A6A6"/>
<path d="M329.316 122.105C329.316 122.105 330.896 122.105 331.178 122.105C331.459 122.105 332.554 120.83 333.427 120.83C334.3 120.83 333.557 120.83 334.388 120.83C335.22 120.83 338.712 121.672 338.712 123.825C338.712 125.978 338.712 125.108 338.712 125.108C338.712 125.108 338.232 123.977 337.446 123.765C336.541 123.517 335.83 124.156 335.654 124.763C335.437 125.522 335.317 126.7 335.317 126.7H331.898C331.898 126.7 331.529 125.035 331.219 124.497C330.914 123.958 329.316 124.087 329.316 124.087V122.105Z" fill="#A6A6A6"/>
<path d="M334.651 126.695H332.526V134.327H334.651V126.695Z" fill="#A6A6A6"/>
<path d="M335.169 130.762H332.009V147.749H335.169V130.762Z" fill="#455A64"/>
<path d="M337.562 105.954C337.562 107.504 336.666 108.848 335.358 109.496V106.258L333.589 105.632L331.82 106.258V109.496C330.512 108.848 329.616 107.504 329.616 105.954C329.616 103.769 331.395 101.998 333.589 101.998C335.779 101.998 337.562 103.769 337.562 105.954Z" fill="#A6A6A6"/>
<path d="M331.816 103.758L335.355 103.757L335.352 88.8165L331.813 88.8173L331.816 103.758Z" fill="#A6A6A6"/>
<path d="M332.859 99.1059L334.314 99.1057L334.313 93.4661L332.858 93.4664L332.859 99.1059Z" fill="#C7C7C7"/>
<path d="M333.585 84.2101C331.834 84.2101 330.416 85.6223 330.416 87.3703C330.416 89.1091 331.829 90.5259 333.585 90.5259C335.335 90.5259 336.754 89.1137 336.754 87.3703C336.749 85.6223 335.335 84.2101 333.585 84.2101ZM333.585 88.8147C332.776 88.8147 332.125 88.1661 332.125 87.3657C332.125 86.5607 332.776 85.9121 333.585 85.9121C334.393 85.9121 335.044 86.5607 335.044 87.3657C335.044 88.1661 334.393 88.8147 333.585 88.8147Z" fill="#A6A6A6"/>
<path d="M352.973 108.102C352.973 109.652 352.077 110.996 350.77 111.644V108.406L349 107.78L347.231 108.406V111.644C345.924 110.996 345.027 109.652 345.027 108.102C345.027 105.917 346.806 104.146 349 104.146C351.195 104.146 352.973 105.917 352.973 108.102Z" fill="#A6A6A6"/>
<path d="M347.231 105.906L350.77 105.906L350.766 88.8169L347.227 88.8176L347.231 105.906Z" fill="#A6A6A6"/>
<path d="M348.273 101.254L349.729 101.254L349.727 93.4664L348.272 93.4666L348.273 101.254Z" fill="#C7C7C7"/>
<path d="M348.996 84.2101C347.245 84.2101 345.827 85.6223 345.827 87.3703C345.827 89.1091 347.24 90.5259 348.996 90.5259C350.747 90.5259 352.165 89.1137 352.165 87.3703C352.165 85.6223 350.747 84.2101 348.996 84.2101ZM348.996 88.8147C348.187 88.8147 347.536 88.1661 347.536 87.3657C347.536 86.5607 348.187 85.9121 348.996 85.9121C349.804 85.9121 350.456 86.5607 350.456 87.3657C350.456 88.1661 349.804 88.8147 348.996 88.8147Z" fill="#A6A6A6"/>
<path d="M368.389 110.25C368.389 111.801 367.492 113.144 366.185 113.792V110.554L364.416 109.928L362.646 110.554V113.792C361.339 113.144 360.443 111.801 360.443 110.25C360.443 108.066 362.221 106.295 364.416 106.295C366.605 106.295 368.389 108.07 368.389 110.25Z" fill="#A6A6A6"/>
<path d="M362.645 108.055L366.184 108.054L366.18 88.8171L362.641 88.8179L362.645 108.055Z" fill="#A6A6A6"/>
<path d="M363.688 103.403L365.143 103.403L365.141 93.4667L363.686 93.467L363.688 103.403Z" fill="#C7C7C7"/>
<path d="M364.411 84.2101C362.66 84.2101 361.242 85.6223 361.242 87.3703C361.242 89.1091 362.656 90.5259 364.411 90.5259C366.162 90.5259 367.58 89.1137 367.58 87.3703C367.576 85.6223 366.162 84.2101 364.411 84.2101ZM364.411 88.8147C363.603 88.8147 362.951 88.1661 362.951 87.3657C362.951 86.5607 363.603 85.9121 364.411 85.9121C365.22 85.9121 365.871 86.5607 365.871 87.3657C365.866 88.1661 365.215 88.8147 364.411 88.8147Z" fill="#A6A6A6"/>
<path d="M355.731 74.4444H342.269V75.4196H355.731V74.4444Z" fill="#FFC727"/>
</g>
<path d="M181.3 166.492L183.19 158.231C180.13 154.481 178.04 149.882 177.36 144.731C175.39 129.941 185.79 116.352 200.58 114.392C215.37 112.422 228.96 122.822 230.92 137.612C232.89 152.402 222.49 165.992 207.7 167.951C201.52 168.771 195.56 167.432 190.56 164.522L190.57 164.532L181.3 166.492Z" fill="white"/>
<path d="M181.3 166.492C181.3 166.492 181.51 166.442 181.91 166.352C182.32 166.262 182.91 166.132 183.69 165.962C185.26 165.622 187.56 165.112 190.55 164.462L190.51 164.602L190.5 164.591C190.47 164.561 190.47 164.501 190.5 164.471C190.53 164.441 190.57 164.442 190.6 164.462C193.66 166.212 198.03 167.931 203.41 168.061C204.75 168.091 206.14 168.031 207.57 167.841C208.98 167.581 210.46 167.361 211.92 166.871C214.85 165.981 217.81 164.531 220.51 162.441C223.2 160.361 225.63 157.641 227.45 154.421C229.28 151.201 230.5 147.471 230.85 143.521C231.62 135.641 228.48 126.901 221.93 121.141C218.59 118.231 214.64 116.091 210.48 115.141C206.34 114.141 202.07 114.161 198.13 115.041C194.18 115.911 190.6 117.731 187.63 120.041C184.66 122.361 182.3 125.212 180.63 128.241C178.95 131.261 177.96 134.461 177.53 137.521C177.48 137.901 177.44 138.291 177.39 138.661C177.34 139.041 177.3 139.411 177.3 139.791C177.28 140.541 177.27 141.281 177.25 142.001C177.38 143.441 177.43 144.851 177.7 146.171C178.69 151.491 181.06 155.521 183.23 158.201C183.25 158.221 183.25 158.251 183.25 158.271C182.62 160.931 182.13 162.981 181.8 164.382C181.63 165.071 181.51 165.601 181.42 165.971C181.35 166.301 181.3 166.492 181.3 166.492C181.3 166.492 181.33 166.321 181.41 165.971C181.49 165.601 181.6 165.081 181.75 164.401C182.06 162.981 182.52 160.912 183.11 158.212L183.13 158.281C180.92 155.601 178.5 151.561 177.47 146.201C177.19 144.871 177.13 143.451 177 141.991C177.01 141.261 177.02 140.511 177.04 139.751C177.03 139.371 177.07 138.991 177.12 138.611C177.17 138.231 177.21 137.841 177.26 137.451C177.68 134.351 178.68 131.121 180.37 128.061C182.05 125.001 184.43 122.101 187.43 119.751C190.43 117.401 194.06 115.551 198.06 114.671C202.05 113.771 206.38 113.751 210.58 114.761C214.8 115.731 218.81 117.891 222.19 120.841C222.63 121.181 223 121.581 223.38 121.971L224.52 123.151L225.54 124.421C225.89 124.841 226.23 125.261 226.51 125.721C226.81 126.171 227.1 126.622 227.4 127.072C227.71 127.512 227.92 128.011 228.18 128.481C228.42 128.961 228.69 129.421 228.91 129.911C229.11 130.401 229.31 130.901 229.51 131.391C231.04 135.331 231.61 139.541 231.23 143.541C230.87 147.541 229.63 151.321 227.77 154.581C225.91 157.841 223.46 160.592 220.72 162.682C217.99 164.792 214.98 166.242 212.02 167.132C210.55 167.622 209.05 167.841 207.62 168.091C206.18 168.281 204.77 168.331 203.42 168.301C197.98 168.151 193.59 166.381 190.53 164.591L190.63 164.462L190.64 164.471C190.67 164.501 190.67 164.561 190.64 164.591C190.63 164.601 190.61 164.611 190.6 164.611C187.57 165.231 185.24 165.701 183.65 166.021C182.88 166.172 182.3 166.291 181.89 166.371C181.49 166.461 181.3 166.492 181.3 166.492Z" fill="#263238"/>
<path d="M181.3 166.492C181.3 166.492 181.51 166.442 181.91 166.352C182.32 166.262 182.91 166.132 183.69 165.962C185.26 165.622 187.56 165.112 190.55 164.462L190.51 164.602L190.5 164.591C190.47 164.561 190.47 164.501 190.5 164.471C190.53 164.441 190.57 164.442 190.6 164.462C193.66 166.212 198.03 167.931 203.41 168.061C204.75 168.091 206.14 168.031 207.57 167.841C208.98 167.581 210.46 167.361 211.92 166.871C214.85 165.981 217.81 164.531 220.51 162.441C223.2 160.361 225.63 157.641 227.45 154.421C229.28 151.201 230.5 147.471 230.85 143.521C231.62 135.641 228.48 126.901 221.93 121.141C218.59 118.231 214.64 116.091 210.48 115.141C206.34 114.141 202.07 114.161 198.13 115.041C194.18 115.911 190.6 117.731 187.63 120.041C184.66 122.361 182.3 125.211 180.63 128.241C178.95 131.261 177.96 134.461 177.53 137.521C177.48 137.901 177.44 138.291 177.39 138.661C177.34 139.041 177.3 139.411 177.3 139.791C177.28 140.541 177.27 141.281 177.25 142.001C177.38 143.441 177.43 144.851 177.7 146.171C178.69 151.491 181.06 155.521 183.23 158.201C183.25 158.221 183.25 158.251 183.25 158.271C182.62 160.931 182.13 162.982 181.8 164.382C181.63 165.072 181.51 165.601 181.42 165.971C181.35 166.301 181.3 166.492 181.3 166.492ZM181.3 166.492C181.3 166.492 181.33 166.321 181.41 165.971C181.49 165.601 181.6 165.081 181.75 164.401C182.06 162.981 182.52 160.912 183.11 158.212L183.13 158.281C180.92 155.601 178.5 151.561 177.47 146.201C177.19 144.871 177.13 143.451 177 141.991C177.01 141.261 177.02 140.511 177.04 139.751C177.03 139.371 177.07 138.991 177.12 138.611C177.17 138.231 177.21 137.841 177.26 137.451C177.68 134.351 178.68 131.121 180.37 128.061C182.05 125.001 184.43 122.101 187.43 119.751C190.43 117.401 194.06 115.551 198.06 114.671C202.05 113.771 206.38 113.751 210.58 114.761C214.8 115.731 218.81 117.891 222.19 120.841C222.63 121.181 223 121.581 223.38 121.971L224.52 123.151L225.54 124.421C225.89 124.841 226.23 125.261 226.51 125.721C226.81 126.171 227.1 126.622 227.4 127.072C227.71 127.512 227.92 128.011 228.18 128.481C228.42 128.961 228.69 129.421 228.91 129.911C229.11 130.401 229.31 130.901 229.51 131.391C231.04 135.331 231.61 139.541 231.23 143.541C230.87 147.541 229.63 151.321 227.77 154.581C225.91 157.841 223.46 160.592 220.72 162.682C217.99 164.792 214.98 166.242 212.02 167.132C210.55 167.622 209.05 167.841 207.62 168.091C206.18 168.281 204.77 168.331 203.42 168.301C197.98 168.151 193.59 166.381 190.53 164.591L190.63 164.462L190.64 164.471C190.67 164.501 190.67 164.561 190.64 164.591C190.63 164.601 190.61 164.611 190.6 164.611C187.57 165.231 185.24 165.701 183.65 166.021C182.88 166.171 182.3 166.291 181.89 166.371C181.49 166.461 181.3 166.492 181.3 166.492Z" stroke="#263238" stroke-width="0.5" stroke-miterlimit="10" stroke-linejoin="round"/>
<path d="M190.39 142.351L194.16 138.181L202.16 144.601L214.05 130.951L217.94 134.741L201.98 152.291L190.39 142.351Z" fill="#FFCD57"/>
<path d="M185.659 272.855C186.705 274.733 187.75 276.614 188.795 278.491C190.451 281.471 192.108 284.451 193.765 287.432C194.146 288.118 194.53 288.805 194.911 289.492C195.047 289.739 195.425 289.517 195.289 289.27C194.244 287.393 193.199 285.512 192.153 283.634C190.497 280.654 188.84 277.674 187.183 274.694C186.802 274.007 186.418 273.32 186.037 272.634C185.897 272.383 185.52 272.605 185.659 272.855Z" fill="#263238"/>
<path d="M206.571 291.912C206.571 291.912 210.849 294.064 212.069 294.987C213.289 295.907 214.303 300.711 214.303 300.711L199.322 293.314L178.229 283.123L179.319 281.176L185.419 283.226L185.96 282.461C185.96 282.461 194.129 284.955 194.52 285.498C194.908 286.04 195.093 286.731 195.093 286.731L199.225 288.788C199.225 288.788 199.784 288.28 200.074 288.326C200.357 288.372 206.571 291.912 206.571 291.912Z" fill="#263238"/>
<path d="M28.502 307.781L27.3486 319.18L65.156 328.845L194.565 326.045L211.23 325.041L208.486 300.997L42.4338 295.237L28.502 307.781Z" fill="#145566"/>
<path opacity="0.4" d="M28.502 307.781L27.3486 319.18L65.156 328.845L194.565 326.045L211.23 325.041L208.486 300.997L42.4338 295.237L28.502 307.781Z" fill="black"/>
<path d="M215.372 303.075C215.054 299.485 210.992 295.794 209.979 295.237C207.295 293.758 191.779 288.09 181.996 284.339L180.749 281.225C180.487 280.57 179.962 280.073 179.312 279.83C169.208 276.043 144.591 257.05 107.651 254.686C69.4063 252.238 49.9661 259.907 49.9661 259.907V263.331C35.7827 273.444 33.0739 293.994 33.0739 293.994C33.0739 293.994 28.6106 298.397 27.4956 301C26.6568 302.959 27.0797 313.896 27.3419 319.183C29.1209 309.489 37.7365 302.265 47.869 302.966C57.3095 303.617 65.0548 311.318 65.9426 320.959C66.1977 323.727 65.9006 326.39 65.1492 328.849L170.371 326.979C169.963 324.96 169.847 322.836 170.085 320.645C171.084 311.399 178.389 303.97 187.431 303.026C199.13 301.807 208.993 311.173 208.993 322.896C208.993 324.055 208.892 325.193 208.707 326.299L209.15 326.292C209.15 326.292 215.365 326.292 215.365 325.15C215.372 324.002 215.69 306.664 215.372 303.075Z" fill="#145566"/>
<path d="M56.7051 262.971C56.8414 263.387 69.4765 276.321 72.1922 277.991C74.908 279.661 155.884 285.223 155.884 285.223L156.426 272.845C156.426 272.845 126.944 255.877 96.7808 257.687C66.6174 259.498 56.7051 262.971 56.7051 262.971Z" fill="#455A64"/>
<path d="M212.667 321.325C212.667 321.325 212.656 321.261 212.646 321.138C212.635 321.008 212.621 320.828 212.607 320.596C212.6 320.476 212.59 320.342 212.579 320.194C212.562 320.046 212.541 319.888 212.52 319.712C212.499 319.539 212.475 319.349 212.454 319.152C212.419 318.954 212.384 318.743 212.345 318.517C212.195 317.623 211.933 316.538 211.51 315.316C211.091 314.097 210.5 312.744 209.679 311.346C208.854 309.954 207.816 308.496 206.484 307.136C205.827 306.449 205.089 305.794 204.303 305.16C203.499 304.547 202.653 303.938 201.727 303.406C198.057 301.24 193.384 299.898 188.463 300.021C186.006 300.074 183.615 300.5 181.42 301.247C179.222 301.99 177.24 303.096 175.573 304.427C173.898 305.755 172.521 307.277 171.382 308.799C170.242 310.328 169.334 311.86 168.586 313.301C167.097 316.189 166.202 318.676 165.58 320.384C165.279 321.237 165.045 321.903 164.884 322.361C164.807 322.582 164.748 322.751 164.706 322.875C164.664 322.991 164.64 323.047 164.64 323.047C164.64 323.047 164.654 322.984 164.689 322.868C164.727 322.744 164.783 322.572 164.853 322.346C165 321.888 165.216 321.216 165.517 320.356C166.122 318.641 166.999 316.143 168.477 313.237C169.222 311.789 170.127 310.243 171.27 308.704C172.409 307.168 173.794 305.632 175.478 304.29C177.156 302.945 179.159 301.824 181.371 301.071C183.584 300.313 185.992 299.883 188.466 299.831C193.426 299.704 198.127 301.06 201.821 303.251C202.755 303.786 203.604 304.403 204.411 305.023C205.205 305.664 205.942 306.323 206.603 307.02C207.938 308.394 208.976 309.866 209.797 311.272C210.615 312.681 211.202 314.044 211.615 315.273C212.031 316.503 212.282 317.595 212.422 318.496C212.457 318.722 212.496 318.933 212.524 319.134C212.545 319.335 212.566 319.521 212.583 319.697C212.6 319.87 212.618 320.032 212.635 320.18C212.642 320.328 212.649 320.462 212.656 320.582C212.667 320.814 212.674 320.997 212.677 321.128C212.67 321.265 212.667 321.325 212.667 321.325Z" fill="#263238"/>
<path opacity="0.3" d="M176.963 300.997C176.963 300.997 186.6 295.308 200.919 299.926C200.919 299.926 199.769 294.138 188.941 294.047C178.113 293.959 176.963 300.997 176.963 300.997Z" fill="white"/>
<path d="M188.459 286.79C188.459 286.79 191.07 289.115 195.704 291.901C200.339 294.688 206.728 294.047 206.728 294.047C206.728 294.047 203.635 289.309 201.73 287.882C200.175 286.72 188.459 286.79 188.459 286.79Z" fill="white"/>
<path d="M188.459 286.79C188.456 286.79 188.498 286.783 188.567 286.78C188.648 286.776 188.753 286.773 188.882 286.769C189.172 286.766 189.578 286.762 190.091 286.759C191.143 286.759 192.664 286.769 194.544 286.836C195.484 286.871 196.512 286.921 197.616 287.009C198.169 287.051 198.738 287.107 199.326 287.181C199.909 287.262 200.514 287.347 201.122 287.523C201.272 287.569 201.426 287.622 201.573 287.692C201.646 287.731 201.72 287.777 201.79 287.822L201.978 287.977C202.108 288.076 202.227 288.185 202.345 288.298C202.464 288.411 202.583 288.52 202.695 288.643C203.156 289.112 203.59 289.622 204.016 290.154C204.872 291.215 205.694 292.359 206.508 293.554C206.61 293.709 206.711 293.86 206.805 294.001L206.893 294.131L206.739 294.142C203.922 294.336 201.22 294.043 198.882 293.353C197.714 293.004 196.641 292.546 195.708 291.99C194.782 291.433 193.936 290.887 193.174 290.38C191.65 289.358 190.465 288.467 189.665 287.826C189.266 287.505 188.962 287.252 188.76 287.072C188.665 286.988 188.592 286.921 188.532 286.868C188.48 286.819 188.452 286.787 188.459 286.79C188.463 286.794 188.491 286.808 188.543 286.85C188.606 286.9 188.683 286.963 188.781 287.04C188.99 287.21 189.301 287.456 189.707 287.766C190.518 288.39 191.713 289.263 193.24 290.267C194.006 290.767 194.855 291.306 195.781 291.856C196.708 292.398 197.77 292.846 198.927 293.187C201.241 293.86 203.936 294.149 206.718 293.955L206.651 294.096C206.557 293.955 206.456 293.804 206.354 293.652C205.543 292.462 204.726 291.32 203.876 290.264C203.453 289.735 203.023 289.228 202.569 288.763C202.457 288.643 202.342 288.534 202.227 288.425C202.111 288.312 201.996 288.206 201.87 288.108L201.688 287.956C201.625 287.918 201.566 287.879 201.5 287.844C201.363 287.78 201.22 287.727 201.073 287.682C200.486 287.509 199.885 287.417 199.305 287.336C198.724 287.259 198.155 287.202 197.606 287.153C196.505 287.058 195.477 287.005 194.541 286.959C192.664 286.875 191.143 286.847 190.091 286.826C189.574 286.815 189.169 286.808 188.882 286.801C188.753 286.797 188.648 286.794 188.567 286.794C188.494 286.797 188.463 286.79 188.459 286.79Z" fill="#263238"/>
<path d="M93.1247 257.92L91.7476 280.312L100.346 281.052L98.0144 257.582L93.1247 257.92Z" fill="#263238"/>
<path d="M156.429 272.845C156.429 272.845 172.944 283.321 172.937 285.889C172.933 287.248 155.884 285.223 155.884 285.223L156.429 272.845Z" fill="#263238"/>
<path d="M166.412 286.984C166.412 286.984 166.426 287.199 166.44 287.618C166.454 288.041 166.471 288.661 166.496 289.471C166.541 291.095 166.597 293.476 166.642 296.509C166.663 298.027 166.684 299.704 166.688 301.536C166.688 303.364 166.691 305.343 166.611 307.46C166.565 308.517 166.51 309.616 166.258 310.719C166.017 311.821 165.674 312.927 165.283 314.051C164.482 316.288 163.493 318.581 162.347 320.923L162.326 320.966H162.277C151.746 320.969 139.24 320.973 125.868 320.98C115.054 320.976 104.809 320.973 95.7567 320.973H95.7008L95.6798 320.923C95.1241 319.493 94.8095 318.031 94.5054 316.605C94.2013 315.178 93.9532 313.773 93.7155 312.399C93.2541 309.651 92.8871 307.027 92.5831 304.554C91.9959 299.605 91.5869 295.237 91.7128 291.62C91.7932 288.006 92.0238 285.163 92.1951 283.222C92.2825 282.25 92.3629 281.507 92.4223 281.006C92.4537 280.76 92.4747 280.57 92.4922 280.439C92.5097 280.312 92.5201 280.249 92.5201 280.249C92.5201 280.249 92.5167 280.316 92.5062 280.443C92.4922 280.573 92.4747 280.763 92.4502 281.013C92.4048 281.521 92.3384 282.264 92.251 283.233C92.0937 285.174 91.8805 288.02 91.8141 291.627C91.6988 295.237 92.1217 299.598 92.7194 304.544C93.027 307.017 93.3974 309.637 93.8658 312.381C94.1035 313.752 94.3551 315.153 94.6592 316.577C94.9633 317.996 95.2848 319.461 95.8301 320.863L95.7532 320.814C104.806 320.811 115.054 320.807 125.864 320.807C139.233 320.811 151.739 320.818 162.273 320.821L162.203 320.863C163.35 318.535 164.343 316.242 165.146 314.016C165.541 312.899 165.884 311.797 166.125 310.705C166.377 309.613 166.433 308.524 166.482 307.467C166.565 305.357 166.569 303.378 166.576 301.55C166.579 299.721 166.565 298.041 166.551 296.523C166.506 293.494 166.471 291.112 166.447 289.485C166.433 288.675 166.422 288.055 166.415 287.632C166.412 287.424 166.412 287.269 166.408 287.157C166.408 287.037 166.412 286.984 166.412 286.984Z" fill="#263238"/>
<path d="M175.111 292.796C175.111 293.487 173.961 294.047 172.538 294.047C171.116 294.047 169.966 293.487 169.966 292.796C169.966 292.106 171.116 291.546 172.538 291.546C173.961 291.546 175.111 292.109 175.111 292.796Z" fill="white"/>
<path opacity="0.3" d="M99.6258 290.792C102.075 290.792 104.061 289.645 104.061 288.231C104.061 286.817 102.075 285.67 99.6258 285.67C97.1762 285.67 95.1904 286.817 95.1904 288.231C95.1904 289.645 97.1762 290.792 99.6258 290.792Z" fill="black"/>
<path opacity="0.3" d="M30.2251 300.56C30.2251 300.56 37.7292 293.444 41.7382 292.782C45.7472 292.12 57.0017 292.257 71.6185 300.997L30.2251 300.56Z" fill="white"/>
<path d="M34.8984 286.248H44.8772C44.8772 286.248 47.2085 269.47 49.9696 263.327C49.9696 263.327 38.0126 271.126 34.8984 286.248Z" fill="white"/>
<path opacity="0.3" d="M162.277 320.885H93.9601L73.1777 323.703H162.826L162.277 320.885Z" fill="black"/>
<g opacity="0.3">
<path d="M156.412 273.26L156.429 272.845C156.429 272.845 154.357 271.654 150.75 269.935C152.927 271.126 154.884 272.302 156.412 273.26Z" fill="black"/>
<path d="M134.455 267.399L136.783 264.186C136.783 264.186 136.783 264.186 136.787 264.186C125.78 260.326 111.363 256.814 96.7843 257.687C66.6209 259.495 56.7051 262.971 56.7051 262.971C56.8414 263.387 69.4765 276.321 72.1922 277.991C74.908 279.661 155.884 285.223 155.884 285.223L156.118 279.914C153.298 275.723 134.455 267.399 134.455 267.399ZM87.1236 276.047L80.703 276.54L73.5833 269.854C73.9678 269.756 87.6024 265.335 87.7947 266.906C87.9869 268.48 87.1236 276.047 87.1236 276.047ZM145.979 279.914H143.676L143.004 283.321H141.659C141.659 283.321 142.714 280.076 141.659 279.488C140.603 278.9 138.681 282.732 138.681 282.732C138.681 282.732 106.134 280.471 106.134 281.052C106.134 281.633 105.942 279.914 105.942 279.914C105.942 279.914 107.958 278.995 107.668 276.54C107.382 274.085 102.866 268.283 102.866 268.283L103.537 265.039C107.665 263.172 118.804 265.824 129.94 269.076C141.079 272.327 145.975 278.012 145.975 278.012V279.914H145.979Z" fill="black"/>
</g>
<path opacity="0.3" d="M100.345 259.343C100.345 259.343 101.579 272.017 102.869 272.845C104.158 273.673 146.856 272.725 145.978 270.7C145.101 268.671 121.893 259.523 100.345 259.343Z" fill="white"/>
<path d="M153.644 275.138C152.857 276.772 151.945 279.291 152.158 281.894C152.288 283.455 153.602 284.631 155.133 284.631H163.584C163.584 284.631 165.195 283.197 164.426 281.616C163.654 280.038 163.025 280.344 163.025 280.344C163.025 280.344 160.676 275.818 157.15 274.183C155.835 273.581 154.28 273.817 153.644 275.138Z" fill="#145566"/>
<path d="M46.0342 340.998C55.7168 340.998 63.5661 332.964 63.5661 323.054C63.5661 313.144 55.7168 305.111 46.0342 305.111C36.3517 305.111 28.5024 313.144 28.5024 323.054C28.5024 332.964 36.3517 340.998 46.0342 340.998Z" fill="#263238"/>
<path d="M28.5058 322.751C28.5058 322.766 28.5024 322.783 28.5024 322.797C28.3625 332.706 36.0974 340.857 45.779 340.998C55.4607 341.142 63.4227 333.224 63.5625 323.315C63.5625 323.301 63.5625 323.283 63.5625 323.269L28.5058 322.751Z" fill="#263238"/>
<path d="M33.7279 322.875C33.63 329.832 39.0615 335.552 45.8561 335.654C52.6542 335.756 58.243 330.194 58.3409 323.238C58.4388 316.281 53.0073 310.56 46.2126 310.458C39.4145 310.359 33.8257 315.918 33.7279 322.875Z" fill="#FAFAFA"/>
<path d="M46.2128 310.458C39.4147 310.356 33.8259 315.918 33.728 322.875L58.3411 323.238C58.4389 316.281 53.0109 310.56 46.2128 310.458Z" fill="#E0E0E0"/>
<path d="M38.5369 322.945C38.4775 327.183 41.7839 330.67 45.9257 330.73C50.0675 330.79 53.4718 327.405 53.5312 323.167C53.5906 318.929 50.2842 315.442 46.1424 315.382C42.0006 315.322 38.5963 318.708 38.5369 322.945Z" fill="#263238"/>
<path d="M189.497 340.998C199.18 340.998 207.029 332.964 207.029 323.054C207.029 313.144 199.18 305.111 189.497 305.111C179.815 305.111 171.965 313.144 171.965 323.054C171.965 332.964 179.815 340.998 189.497 340.998Z" fill="#263238"/>
<path d="M171.969 322.751C171.969 322.766 171.966 322.783 171.966 322.797C171.826 332.706 179.561 340.857 189.242 340.998C198.924 341.142 206.886 333.224 207.026 323.315C207.026 323.301 207.022 323.283 207.022 323.269L171.969 322.751Z" fill="#263238"/>
<path d="M177.187 322.875C177.089 329.832 182.52 335.552 189.315 335.654C196.113 335.756 201.702 330.194 201.8 323.238C201.898 316.281 196.466 310.56 189.672 310.458C182.877 310.359 177.285 315.918 177.187 322.875Z" fill="#FAFAFA"/>
<path d="M189.672 310.458C182.874 310.356 177.285 315.918 177.187 322.875L201.8 323.238C201.901 316.281 196.47 310.56 189.672 310.458Z" fill="#E0E0E0"/>
<path d="M182 322.945C181.94 327.183 185.247 330.67 189.389 330.73C193.53 330.79 196.935 327.405 196.994 323.167C197.054 318.929 193.747 315.442 189.605 315.382C185.464 315.322 182.059 318.708 182 322.945Z" fill="#263238"/>
<path d="M199.5 250.864C199.5 250.864 191.262 261.569 188.375 267.152C185.743 272.239 182.22 282.363 181.44 283.212C180.661 284.06 177.417 284.05 177.417 284.05C177.417 284.05 181.238 271.947 186.82 263.08C190.755 256.817 198.14 247.032 199.5 250.864Z" fill="#145566"/>
<path d="M49.9701 263.327C49.9736 263.331 49.8932 263.401 49.7394 263.531C49.5716 263.669 49.3444 263.852 49.0613 264.084C48.7642 264.32 48.4007 264.613 48.0023 264.976C47.6003 265.335 47.1215 265.726 46.6427 266.205C46.398 266.441 46.1393 266.688 45.8737 266.945C45.6046 267.198 45.3494 267.491 45.0698 267.776C44.5071 268.343 43.9514 268.995 43.3607 269.671C42.2108 271.052 41.0224 272.637 39.9144 274.395C38.8204 276.163 37.9152 277.924 37.1707 279.569C36.8177 280.397 36.4752 281.183 36.2096 281.94C36.0732 282.317 35.9229 282.676 35.8111 283.028C35.6958 283.381 35.5874 283.722 35.4826 284.046C35.2589 284.691 35.1156 285.293 34.9653 285.815C34.8115 286.336 34.7066 286.79 34.6192 287.16C34.5319 287.52 34.4655 287.805 34.413 288.016C34.3641 288.21 34.3361 288.312 34.3291 288.312C34.3222 288.312 34.3396 288.206 34.3781 288.009C34.42 287.794 34.4794 287.509 34.5528 287.146C34.6262 286.769 34.7241 286.311 34.8674 285.79C35.0107 285.265 35.1435 284.659 35.3602 284.011C35.4616 283.684 35.5699 283.342 35.6818 282.986C35.7901 282.63 35.9369 282.268 36.0697 281.891C36.3319 281.13 36.6709 280.341 37.0204 279.506C37.7579 277.854 38.6632 276.079 39.7607 274.303C40.8721 272.538 42.071 270.95 43.2314 269.565C43.829 268.889 44.3883 268.237 44.958 267.674C45.2411 267.389 45.4997 267.1 45.7724 266.846C46.045 266.592 46.3036 266.346 46.5518 266.113C47.0411 265.638 47.5234 265.254 47.9359 264.902C48.3448 264.546 48.7118 264.261 49.0194 264.032C49.313 263.81 49.5471 263.634 49.7184 263.503C49.8792 263.383 49.9666 263.324 49.9701 263.327Z" fill="#263238"/>
<path d="M255.675 326.516L255.963 335.559C255.963 335.559 245.674 338.852 245.542 340.529L265.37 340.667L265.577 326.561L255.675 326.516Z" fill="#263238"/>
<path d="M265.376 340.667L265.336 339.244L246.337 339.647C246.337 339.647 245.45 339.978 245.548 340.534L265.376 340.667Z" fill="#455A64"/>
<path d="M255.641 335.467C255.641 335.554 256.124 335.594 256.603 335.875C257.086 336.145 257.328 336.517 257.415 336.481C257.507 336.466 257.363 335.951 256.781 335.625C256.211 335.289 255.623 335.39 255.641 335.467Z" fill="white"/>
<path d="M253.555 336.216C253.532 336.298 253.953 336.446 254.275 336.813C254.615 337.17 254.69 337.562 254.788 337.557C254.88 337.572 254.949 337.068 254.534 336.624C254.131 336.17 253.561 336.13 253.555 336.216Z" fill="white"/>
<path d="M252.357 338.408C252.443 338.429 252.581 338.001 252.339 337.532C252.098 337.057 251.642 336.869 251.602 336.94C251.544 337.012 251.838 337.266 252.034 337.654C252.236 338.036 252.259 338.398 252.357 338.408Z" fill="white"/>
<path d="M235.761 326.454L236.049 335.498C236.049 335.498 225.76 338.791 225.628 340.468L245.456 340.605L245.663 326.5L235.761 326.454Z" fill="#263238"/>
<path d="M245.462 340.605L245.421 339.183L226.423 339.586C226.423 339.586 225.536 339.917 225.634 340.473L245.462 340.605Z" fill="#455A64"/>
<path d="M235.726 335.406C235.726 335.493 236.21 335.533 236.688 335.814C237.172 336.084 237.414 336.456 237.501 336.42C237.593 336.405 237.449 335.89 236.867 335.564C236.297 335.227 235.709 335.324 235.726 335.406Z" fill="white"/>
<path d="M233.641 336.15C233.618 336.232 234.039 336.38 234.361 336.747C234.701 337.103 234.776 337.496 234.874 337.491C234.966 337.506 235.035 337.001 234.62 336.558C234.217 336.109 233.647 336.069 233.641 336.15Z" fill="white"/>
<path d="M232.443 338.347C232.529 338.368 232.667 337.939 232.425 337.47C232.183 336.996 231.728 336.808 231.688 336.879C231.63 336.951 231.924 337.205 232.12 337.593C232.322 337.975 232.345 338.337 232.443 338.347Z" fill="white"/>
<path d="M197.13 259.915C196.779 260.042 192.136 265.813 191.6 267.215C191.064 268.617 191.03 271.991 191.03 271.991C191.03 271.991 189.705 273.786 190.218 273.801C190.73 273.811 192.234 273.454 192.591 272.878C192.591 272.878 193.939 275.427 194.423 274.316C194.907 273.204 195.114 272.715 195.114 272.715C195.114 272.715 196.013 273.327 196.491 272.44C196.969 271.558 196.906 270.824 196.906 270.824C196.906 270.824 197.678 271.864 198.265 270.905C198.847 269.942 199.267 268.341 199.267 268.341L198.83 266.623L201.606 263.397L197.13 259.915Z" fill="#FFBF9D"/>
<path d="M197.332 264.508C197.424 264.666 197.412 264.854 197.309 265.007L191.358 273.546C191.249 273.699 191.058 273.796 190.851 273.791C189.924 273.775 189.324 274.153 189.083 275.116C188.806 276.207 189.313 277.247 189.313 277.247L189.492 277.288L189.808 276.141C189.987 275.498 190.719 275.106 191.439 275.264L191.467 275.269C192.193 275.427 192.637 276.074 192.458 276.712L192.141 277.859L192.314 277.894C192.314 277.894 193.403 277.165 193.645 276.09C193.824 275.289 193.668 274.78 193.184 274.428C192.954 274.26 192.885 273.974 193.046 273.75L198.645 265.721C198.749 265.568 198.945 265.482 199.146 265.487C199.924 265.497 200.684 265.125 201.059 264.442C201.479 263.672 201.232 262.724 200.471 262.199C199.475 261.51 198.058 261.755 197.412 262.678C196.998 263.254 196.998 263.947 197.332 264.508ZM197.867 262.943L199.118 262.346C199.158 262.326 199.204 262.326 199.244 262.352L200.454 263.009C200.494 263.03 200.517 263.07 200.512 263.106L200.471 264.36C200.471 264.401 200.442 264.436 200.402 264.457L199.152 265.053C199.112 265.074 199.066 265.074 199.025 265.048L197.816 264.391C197.775 264.37 197.752 264.329 197.758 264.294L197.798 263.04C197.798 262.999 197.827 262.958 197.867 262.943Z" fill="#263238"/>
<path d="M196.053 265.41C196.623 266.027 196.6 266.965 196.156 267.658C195.707 268.351 194.906 268.82 194.06 269.091" fill="#FFBF9D"/>
<path d="M194.059 269.096C194.042 269.06 194.319 268.948 194.728 268.724C195.131 268.499 195.667 268.142 196.024 267.597C196.375 267.052 196.41 266.45 196.306 266.058C196.208 265.655 196.012 265.441 196.053 265.415C196.07 265.395 196.341 265.573 196.508 266.012C196.675 266.44 196.68 267.118 196.283 267.735C195.885 268.341 195.275 268.703 194.831 268.892C194.376 269.08 194.071 269.126 194.059 269.096Z" fill="#FF9A6C"/>
<path d="M196.243 259.951L202.349 263.86C202.349 263.86 215.714 252.758 216.843 251.172C217.972 249.592 220.323 244.749 220.323 244.749L215.754 230.129C215.754 230.129 213.398 232.255 212.793 235.242C212.189 238.23 207.211 244.795 205.921 246.411C204.631 248.027 196.243 259.951 196.243 259.951Z" fill="#1A3151"/>
<path d="M196.128 223.915C195.425 224.634 194.146 224.848 193.213 224.405C192.93 224.272 192.677 224.079 192.556 223.814C192.435 223.554 192.475 223.222 192.706 223.023C192.187 223.079 191.646 222.967 191.248 222.677C190.851 222.386 190.626 221.907 190.718 221.458C190.811 221.005 191.243 220.607 191.761 220.546C191.387 220.184 191.289 219.618 191.513 219.159L193.587 218.165L196.128 223.915Z" fill="#263238"/>
<path d="M218.214 243.027L209.947 233.208C209.947 233.208 205.817 235.502 202.678 232.362C201.163 230.843 198.328 227.494 195.811 224.435C193.098 221.147 193.743 216.524 197.286 213.817L197.637 213.547C201.623 210.84 206.393 212.272 209.279 215.82L217.984 227.489L217.678 237.934L218.214 243.027Z" fill="#FFBF9D"/>
<path d="M209.941 233.208C209.941 233.208 212.407 231.618 213.841 228.692C213.841 228.692 214.648 231.649 210.731 234.146L209.941 233.208Z" fill="#FF9A6C"/>
<path d="M205.195 226.444C205.172 226.413 204.768 226.627 204.146 226.994C203.991 227.091 203.829 227.168 203.726 227.101C203.605 227.035 203.536 226.857 203.461 226.658C203.299 226.255 203.132 225.832 202.96 225.384C202.234 223.584 201.577 222.147 201.491 222.177C201.41 222.203 201.934 223.686 202.66 225.486C202.844 225.929 203.017 226.347 203.184 226.75C203.271 226.933 203.334 227.163 203.587 227.295C203.714 227.356 203.887 227.346 204.002 227.295C204.117 227.249 204.198 227.188 204.273 227.137C204.866 226.74 205.223 226.474 205.195 226.444Z" fill="#263238"/>
<path d="M203.858 221.994C203.979 222.019 204.221 221.494 204.855 221.153C205.483 220.806 206.14 220.831 206.163 220.729C206.174 220.684 206.019 220.602 205.725 220.582C205.437 220.561 205.016 220.622 204.619 220.837C204.227 221.051 203.985 221.356 203.881 221.591C203.789 221.831 203.807 221.983 203.858 221.994Z" fill="#263238"/>
<path d="M201.975 219.924C202.147 220.031 202.7 219.582 203.467 219.215C204.227 218.833 204.947 218.655 204.936 218.471C204.93 218.385 204.722 218.313 204.377 218.318C204.037 218.323 203.565 218.42 203.104 218.644C202.643 218.869 202.303 219.175 202.119 219.424C201.934 219.674 201.894 219.868 201.975 219.924Z" fill="#263238"/>
<path d="M200.091 226.607C200.316 226.852 200.742 226.887 201.042 226.678C201.341 226.474 201.405 226.107 201.18 225.858C200.955 225.613 200.529 225.577 200.229 225.781C199.93 225.995 199.867 226.362 200.091 226.607Z" fill="#263238"/>
<path d="M204.89 223.559C205.114 223.803 205.541 223.839 205.84 223.63C206.14 223.426 206.203 223.059 205.978 222.809C205.754 222.565 205.327 222.529 205.028 222.733C204.728 222.942 204.665 223.309 204.89 223.559Z" fill="#263238"/>
<path d="M198.248 225.435C198.369 225.445 198.518 224.889 199.077 224.461C199.63 224.028 200.287 223.961 200.293 223.859C200.298 223.808 200.126 223.752 199.838 223.778C199.55 223.798 199.141 223.921 198.795 224.186C198.449 224.456 198.265 224.792 198.207 225.032C198.144 225.282 198.19 225.429 198.248 225.435Z" fill="#263238"/>
<path d="M207.522 225.766C207.419 225.822 207.678 226.347 207.517 226.984C207.367 227.627 206.883 228.024 206.952 228.111C206.981 228.152 207.154 228.106 207.373 227.938C207.586 227.769 207.833 227.458 207.931 227.056C208.029 226.658 207.949 226.291 207.828 226.062C207.707 225.837 207.568 225.74 207.522 225.766Z" fill="#263238"/>
<path d="M196.583 223.61C196.79 223.681 197.205 223.314 197.798 223.023C198.38 222.723 198.956 222.59 198.991 222.401C199.002 222.31 198.847 222.218 198.547 222.203C198.253 222.182 197.833 222.254 197.424 222.458C197.021 222.661 196.733 222.947 196.606 223.176C196.479 223.406 196.491 223.574 196.583 223.61Z" fill="#263238"/>
<path d="M211.704 219.363C211.249 218.854 211.359 218.099 211.963 217.717C212.701 217.253 213.784 217.008 214.93 218.267C216.964 220.5 213.853 222.142 213.789 222.08C213.749 222.04 212.545 220.301 211.704 219.363Z" fill="#FFBF9D"/>
<path d="M213.703 220.582C213.709 220.566 213.772 220.577 213.876 220.551C213.974 220.526 214.124 220.459 214.216 220.317C214.406 220.036 214.296 219.501 213.939 219.088C213.761 218.879 213.536 218.721 213.306 218.619C213.081 218.512 212.851 218.487 212.695 218.563C212.534 218.634 212.505 218.772 212.528 218.859C212.551 218.945 212.609 218.981 212.597 218.991C212.597 219.001 212.511 218.991 212.447 218.884C212.419 218.833 212.401 218.757 212.419 218.67C212.442 218.583 212.511 218.497 212.614 218.436C212.822 218.308 213.144 218.339 213.398 218.446C213.663 218.548 213.922 218.721 214.118 218.955C214.51 219.419 214.631 220.026 214.348 220.388C214.204 220.556 214.014 220.617 213.887 220.622C213.761 220.633 213.697 220.592 213.703 220.582Z" fill="#FF9A6C"/>
<path d="M197.764 219.705C197.759 219.71 197.753 219.715 197.747 219.72C197.735 219.73 197.718 219.746 197.706 219.756L197.764 219.705Z" fill="#1A3151"/>
<path d="M210.731 213.348C210.495 213.19 210.189 213.134 209.896 213.17C209.907 212.966 209.867 212.762 209.775 212.578C209.51 212.058 208.841 211.732 208.196 211.804C208.283 211.11 207.902 210.397 207.251 210.014C206.6 209.632 205.702 209.601 205.005 209.938C204.406 209.26 203.375 208.898 202.395 209.025C201.422 209.153 200.535 209.77 200.16 210.58C198.645 209.933 196.554 210.702 195.978 212.125C194.791 212.232 193.535 212.359 192.585 213.001C191.634 213.644 191.185 214.995 191.992 215.754C191.197 216.096 190.436 216.549 189.923 217.192C189.411 217.829 189.186 218.68 189.497 219.404C189.808 220.123 190.736 220.633 191.588 220.434C191.519 221.377 192.372 222.284 193.426 222.391C193.731 222.422 194.042 222.386 194.336 222.294C194.457 222.437 194.584 222.58 194.734 222.712C194.734 222.712 194.664 222.519 194.572 222.208C195.177 221.948 195.667 221.453 195.799 220.867C196.675 220.949 197.597 220.551 198.063 219.883C198.53 219.215 198.518 218.313 198.034 217.671C198.68 217.696 199.336 217.416 199.728 216.957C200.12 216.493 200.235 215.861 200.022 215.326C201.076 215.448 202.194 214.954 202.729 214.133C203.156 214.546 203.784 214.75 204.417 214.75C204.74 215.137 205.074 215.596 205.604 216.086C211.526 221.525 214.302 222.223 212.021 219.272C211.779 218.955 212.442 218.048 211.491 216.753C211.612 216.626 211.716 216.488 211.791 216.335C211.946 216.014 211.975 215.637 211.82 215.321C211.658 215.005 211.301 214.765 210.909 214.755C211.278 214.337 211.197 213.669 210.731 213.348Z" fill="#263238"/>
<g opacity="0.3">
<path d="M204.325 214.633C204.325 214.633 204.544 214.944 204.711 215.107C204.734 215.137 204.757 215.168 204.786 215.199C205.126 215.397 205.558 215.464 205.955 215.377C206.388 215.28 206.768 215.005 206.958 214.648C207.424 214.939 208.104 214.852 208.588 214.572C209.078 214.291 209.418 213.853 209.752 213.43C209.815 213.348 209.878 213.261 209.93 213.175C209.919 213.175 209.901 213.175 209.89 213.175C209.901 212.971 209.861 212.767 209.769 212.583C209.504 212.063 208.836 211.737 208.191 211.809C208.191 211.809 208.07 212.675 207.373 212.961C206.676 213.246 205.748 213.134 205.748 213.134C205.748 213.134 205.875 213.644 205.454 214.046C205.04 214.444 204.325 214.633 204.325 214.633Z" fill="#FAFAFA"/>
</g>
<path d="M203.202 214.408C203.196 214.419 203.259 214.48 203.42 214.556C203.576 214.633 203.829 214.714 204.164 214.719C204.492 214.719 204.912 214.633 205.264 214.357C205.609 214.092 205.88 213.664 205.874 213.175L205.725 213.277C206.001 213.348 206.301 213.363 206.6 213.323C207.24 213.231 207.787 212.889 208.075 212.461C208.369 212.028 208.386 211.559 208.311 211.207C208.231 210.85 208.046 210.595 207.896 210.442C207.747 210.295 207.637 210.238 207.626 210.249C207.585 210.274 208.017 210.555 208.144 211.238C208.196 211.564 208.161 211.992 207.891 212.364C207.631 212.736 207.136 213.037 206.566 213.119C206.301 213.154 206.036 213.144 205.794 213.083L205.638 213.047V213.185C205.644 213.603 205.419 213.985 205.126 214.225C204.826 214.475 204.463 214.571 204.158 214.587C203.541 214.607 203.219 214.373 203.202 214.408Z" fill="#FAFAFA"/>
<path d="M212.166 236.027C212.212 236.078 213.433 236.619 214.297 235.589C215.167 234.559 215.161 232.775 215.161 232.775L216.78 233.953L217.195 241.247L212.166 236.027Z" fill="#E0E0E0"/>
<path d="M218.37 252.167L244.194 275.3L252.219 247.701C252.219 247.701 245.064 236.787 242.593 233.922C240.122 231.052 231.135 225.944 229.073 225.19C227.005 224.435 218.462 225.389 218.462 225.389L216.1 224.002L213.825 232.005L215.437 233.897L216.008 239.652L211.733 235.258C211.733 235.258 212.609 246.009 216.549 249.944" fill="#1A3151"/>
<path d="M234.568 265.966C234.92 266.934 244.782 300.268 246.988 307.782C249.195 315.296 253.797 330.706 254.679 333.219C254.679 333.219 267.283 333.402 266.943 332.245C266.603 331.088 265.981 308.337 264.679 305.804C263.377 303.27 261.868 303.372 262.029 301.298C262.185 299.228 263.124 295.308 262.761 291.689C262.398 288.069 262.392 282.508 262.45 273.276C262.507 264.044 262.455 264.798 261.816 261.923C261.182 259.048 251.965 247.365 251.965 247.365L234.568 265.966Z" fill="#1A3151"/>
<path d="M234.787 262.336C235.196 263.177 229.257 296.547 229.015 299.753C228.773 302.954 234.568 333.856 234.568 333.856L247.484 333.489C247.484 333.489 244.246 308.439 245.531 302.837C246.81 297.235 252.294 286.749 252.138 285.225C251.983 283.7 247.046 269.024 247.046 269.024L234.787 262.336Z" fill="#1A3151"/>
<path d="M245.416 303.474C245.404 303.479 245.358 303.362 245.277 303.133C245.191 302.883 245.076 302.552 244.938 302.144C244.638 301.282 244.264 300.028 243.797 298.473C242.893 295.359 241.763 291.031 240.646 286.229C239.528 281.427 238.607 277.063 237.979 273.898C237.662 272.318 237.42 271.033 237.259 270.146C237.184 269.723 237.126 269.381 237.086 269.121C237.051 268.887 237.034 268.764 237.046 268.759C237.057 268.759 237.092 268.877 237.144 269.111C237.201 269.371 237.276 269.708 237.374 270.126C237.57 271.038 237.846 272.307 238.186 273.862C238.866 277.018 239.822 281.376 240.94 286.173C242.052 290.975 243.146 295.303 243.999 298.423C244.436 299.982 244.782 301.241 245.047 302.108C245.168 302.521 245.26 302.857 245.335 303.112C245.398 303.347 245.427 303.469 245.416 303.474Z" fill="#263238"/>
<path d="M238.082 264.207C238.013 264.248 237.455 263.601 236.838 262.759C236.216 261.918 235.772 261.205 235.842 261.164C235.911 261.123 236.469 261.771 237.086 262.612C237.702 263.453 238.152 264.166 238.082 264.207Z" fill="#263238"/>
<path d="M239.125 263.152C239.05 263.188 238.624 262.622 238.169 261.893C237.714 261.164 237.403 260.542 237.477 260.506C237.552 260.471 237.979 261.036 238.434 261.765C238.889 262.494 239.194 263.116 239.125 263.152Z" fill="#263238"/>
<path d="M246.752 256.27C246.683 256.311 246.303 255.929 245.899 255.409C245.496 254.894 245.225 254.44 245.294 254.394C245.364 254.353 245.744 254.736 246.147 255.256C246.545 255.776 246.821 256.224 246.752 256.27Z" fill="#263238"/>
<path d="M248.279 256.255C248.204 256.291 247.743 255.669 247.242 254.868C246.741 254.068 246.395 253.39 246.464 253.354C246.539 253.319 247 253.941 247.501 254.741C248.002 255.541 248.348 256.219 248.279 256.255Z" fill="#263238"/>
<path opacity="0.4" d="M238.232 274.596C238.232 274.596 236.947 290.654 238.232 296.241C239.517 301.833 245.266 309.133 245.266 309.133V301.94L238.232 274.596Z" fill="black"/>
<path d="M218.721 252.167C218.71 252.182 218.52 252.029 218.185 251.743C218.013 251.606 217.828 251.417 217.621 251.193C217.408 250.969 217.172 250.714 216.947 250.408C216.457 249.817 215.979 249.052 215.489 248.19C215.023 247.319 214.562 246.335 214.153 245.285C213.341 243.174 212.822 241.217 212.471 239.795C212.298 239.086 212.166 238.505 212.079 238.107C211.993 237.71 211.958 237.485 211.976 237.48C211.993 237.475 212.073 237.689 212.189 238.082C212.315 238.53 212.477 239.086 212.673 239.749C213.076 241.156 213.629 243.103 214.43 245.198C214.833 246.243 215.282 247.217 215.731 248.088C216.204 248.945 216.653 249.71 217.114 250.306C218.018 251.514 218.767 252.126 218.721 252.167Z" fill="#263238"/>
<path opacity="0.4" d="M227.017 259.915L228.411 261.164C228.411 261.164 234.073 253.089 234.563 248.588C235.053 244.087 235.104 233.581 235.104 233.581L227.017 259.915Z" fill="black"/>
<path d="M218.468 225.98C218.508 225.99 218.375 226.571 218.156 227.514C217.938 228.457 217.638 229.757 217.356 231.205C217.068 232.648 216.849 233.963 216.693 234.916C216.538 235.869 216.44 236.456 216.394 236.456C216.353 236.451 216.376 235.854 216.48 234.896C216.584 233.937 216.774 232.612 217.056 231.159C217.344 229.711 217.673 228.407 217.949 227.474C218.22 226.541 218.427 225.97 218.468 225.98Z" fill="#263238"/>
<path d="M255.157 265.466C255.163 265.482 255.013 265.553 254.731 265.665C254.448 265.782 254.022 265.915 253.481 266.037C252.939 266.165 252.282 266.256 251.545 266.302C250.808 266.333 249.99 266.307 249.149 266.185C248.308 266.058 247.524 265.849 246.839 265.609C246.159 265.354 245.565 265.079 245.105 264.804C244.638 264.533 244.281 264.284 244.062 264.095C243.832 263.906 243.716 263.799 243.728 263.784C243.762 263.748 244.275 264.151 245.214 264.646C245.681 264.895 246.268 265.15 246.937 265.38C247.61 265.604 248.377 265.798 249.195 265.925C250.018 266.042 250.808 266.073 251.528 266.058C252.248 266.027 252.893 265.956 253.429 265.854C254.5 265.66 255.134 265.42 255.157 265.466Z" fill="#263238"/>
<path d="M195.431 274.076C195.431 274.076 200.258 273.128 201.191 273.194C202.124 273.261 203.472 274.163 204.002 274.52C204.89 275.121 206.094 275.697 206.721 275.31C207.349 274.922 209.487 270.793 209.487 270.793L214.613 273.643C214.613 273.643 209.538 280.55 208.559 280.861C207.58 281.172 201.381 277.435 201.381 277.435L195.431 274.076Z" fill="#FFBF9D"/>
<path d="M224.211 226.265C223.502 226.806 218.882 228.152 219.164 234.809C219.447 241.467 220.443 248.578 219.821 250.347C219.199 252.11 208.127 272.373 208.127 272.373L216.935 277.048C216.935 277.048 232.506 252.421 233.151 245.626C233.79 238.836 236.268 233.453 234.487 230.639C232.696 227.83 227.799 223.518 224.211 226.265Z" fill="#1A3151"/>
<path d="M224.211 226.265C224.211 226.265 224.303 226.199 224.487 226.072C224.585 226.011 224.7 225.934 224.839 225.842C224.983 225.761 225.173 225.7 225.38 225.608C225.795 225.44 226.365 225.343 227.033 225.353C227.696 225.404 228.468 225.557 229.24 225.909C230.783 226.607 232.437 227.866 233.86 229.64C234.211 230.089 234.562 230.558 234.816 231.108C235.035 231.664 235.173 232.265 235.19 232.882C235.254 234.121 235.052 235.421 234.804 236.767C234.297 239.458 233.572 242.379 233.278 245.57C233.088 247.191 232.483 248.782 231.826 250.387C231.164 251.993 230.398 253.619 229.574 255.271C226.261 261.867 222.137 268.912 217.621 276.212C217.436 276.513 217.246 276.808 217.062 277.104L216.987 277.221L216.854 277.15C213.842 275.549 210.886 273.979 208.046 272.47L207.931 272.409L207.989 272.302C211.491 265.884 214.769 259.849 217.661 254.379C218.369 253.008 219.095 251.677 219.671 250.367C219.896 249.715 219.89 248.996 219.896 248.318C219.896 247.63 219.867 246.957 219.833 246.294C219.683 243.638 219.458 241.181 219.308 238.938C219.228 237.817 219.164 236.751 219.118 235.747C219.095 235.242 219.066 234.753 219.078 234.279C219.078 234.039 219.084 233.805 219.084 233.575C219.107 233.346 219.13 233.122 219.153 232.897C219.326 231.118 220.04 229.66 220.864 228.656C221.711 227.657 222.626 227.091 223.249 226.755C223.56 226.581 223.807 226.469 223.969 226.383C224.13 226.316 224.205 226.265 224.211 226.265C224.211 226.265 224.142 226.327 223.986 226.418C223.819 226.51 223.583 226.643 223.283 226.811C222.673 227.157 221.78 227.728 220.956 228.728C220.155 229.727 219.47 231.164 219.314 232.923C219.291 233.142 219.274 233.366 219.251 233.591C219.251 233.82 219.251 234.049 219.251 234.284C219.239 234.753 219.274 235.242 219.303 235.747C219.354 236.751 219.429 237.817 219.516 238.938C219.677 241.176 219.919 243.633 220.08 246.294C220.115 246.962 220.149 247.64 220.149 248.328C220.138 249.016 220.161 249.73 219.919 250.443C219.326 251.789 218.617 253.104 217.909 254.486C215.034 259.966 211.768 266.007 208.271 272.43L208.213 272.261C211.053 273.77 214.009 275.335 217.021 276.936L216.814 276.987C216.998 276.691 217.183 276.396 217.373 276.095C221.883 268.8 226.019 261.76 229.338 255.184C230.161 253.538 230.928 251.917 231.596 250.316C232.252 248.72 232.857 247.135 233.047 245.56C233.358 242.354 234.09 239.428 234.614 236.741C234.868 235.4 235.075 234.111 235.023 232.892C235.012 232.281 234.879 231.699 234.672 231.164C234.436 230.639 234.09 230.165 233.744 229.727C232.345 227.963 230.72 226.704 229.211 226.005C228.45 225.649 227.702 225.496 227.051 225.434C226.394 225.419 225.835 225.501 225.426 225.664C225.225 225.745 225.034 225.802 224.885 225.883C224.746 225.97 224.625 226.041 224.527 226.097C224.314 226.214 224.211 226.265 224.211 226.265Z" fill="#263238"/>
<defs>
<clipPath id="clip0_4007_411">
<rect width="64" height="89" fill="white" transform="translate(317 73)"/>
</clipPath>
</defs>
</svg>
