<svg width="355" height="355" viewBox="0 0 355 355" fill="none" xmlns="http://www.w3.org/2000/svg">
<g clip-path="url(#clip0_4072_2762)">
<path d="M355 0H0V355H355V0Z" fill="white"/>
<path d="M38.6912 156.84C43.1287 161.277 49.1478 163.771 55.4242 163.771C60.1394 163.771 64.7083 162.364 68.5716 159.782L51.7259 176.628C47.2884 181.065 44.7946 187.084 44.7946 193.361C44.7946 199.637 47.2876 205.656 51.7259 210.093C56.1634 214.531 62.1825 217.025 68.4589 217.025C73.1733 217.025 77.743 215.617 81.6063 213.036L72.765 221.878C68.3275 226.315 65.8336 232.334 65.8336 238.611C65.8336 244.887 68.3266 250.906 72.765 255.344C77.2025 259.781 83.2215 262.275 89.4979 262.275C94.2123 262.275 98.7821 260.867 102.645 258.286L100.485 260.447C96.0477 264.884 93.5538 270.903 93.5538 277.18C93.5538 283.456 96.0468 289.475 100.485 293.913C104.923 298.35 110.942 300.844 117.218 300.844C123.495 300.844 129.514 298.351 133.951 293.913L156.376 271.486C153.795 275.35 152.388 279.919 152.388 284.634C152.388 290.91 154.881 296.929 159.319 301.367C163.757 305.804 169.776 308.298 176.052 308.298C182.329 308.298 188.348 305.805 192.785 301.367L226.857 267.295C224.275 271.158 222.869 275.728 222.869 280.442C222.869 286.718 225.362 292.737 229.8 297.175C234.238 301.612 240.257 304.106 246.533 304.106C252.809 304.106 258.828 301.613 263.266 297.175L316.309 244.132C320.747 239.694 323.241 233.675 323.241 227.399C323.241 221.122 320.748 215.103 316.309 210.666C311.872 206.228 305.853 203.735 299.576 203.735C294.862 203.735 290.292 205.142 286.429 207.723L297.532 196.619C301.97 192.182 304.464 186.163 304.464 179.887C304.464 173.61 301.971 167.591 297.532 163.154C293.095 158.716 287.076 156.222 280.799 156.222C276.085 156.222 271.515 157.63 267.652 160.211L290.077 137.786C294.514 133.349 297.008 127.33 297.008 121.053C297.008 114.777 294.515 108.758 290.077 104.32C285.639 99.8828 279.62 97.3889 273.344 97.3889C268.629 97.3889 264.059 98.7965 260.196 101.377L274.477 87.0966C278.914 82.6591 281.408 76.6401 281.408 70.3637C281.408 64.0873 278.915 58.0682 274.477 53.6307C270.039 49.1932 264.02 46.6994 257.744 46.6994C251.468 46.6994 245.449 49.1924 241.011 53.6307L209.201 85.4405C211.783 81.5772 213.19 77.0075 213.19 72.2931C213.19 66.0167 210.697 59.9977 206.258 55.5602C201.821 51.1227 195.802 48.6288 189.525 48.6288C183.249 48.6288 177.23 51.1218 172.792 55.5602L128.143 100.209C130.725 96.3461 132.133 91.7764 132.133 87.0611C132.133 80.7847 129.64 74.7657 125.201 70.3282C120.764 65.8907 114.745 63.3968 108.468 63.3968C102.192 63.3968 96.1728 65.8898 91.7353 70.3282L38.6921 123.371C34.2546 127.809 31.7607 133.828 31.7607 140.104C31.7607 146.381 34.2528 152.402 38.6912 156.84Z" fill="white"/>
<path d="M322.542 257.705L320.905 259.343C320.265 259.982 320.265 261.02 320.905 261.66C321.544 262.3 322.582 262.3 323.222 261.66L324.859 260.022L326.497 261.66C327.137 262.3 328.174 262.3 328.814 261.66C329.454 261.02 329.454 259.982 328.814 259.343L327.176 257.705L328.814 256.068C329.454 255.428 329.454 254.39 328.814 253.75C328.494 253.43 328.075 253.27 327.655 253.27C327.235 253.27 326.816 253.43 326.496 253.75L324.858 255.388L323.221 253.75C322.901 253.43 322.482 253.27 322.062 253.27C321.642 253.27 321.223 253.43 320.903 253.75C320.263 254.39 320.263 255.428 320.903 256.068L322.542 257.705Z" fill="white"/>
<path d="M88.5742 292.982L86.9368 294.62C86.2969 295.26 86.2969 296.297 86.9368 296.937C87.5767 297.577 88.6141 297.577 89.254 296.937L90.8915 295.3L92.5289 296.937C93.1688 297.577 94.2063 297.577 94.8462 296.937C95.4861 296.297 95.4861 295.26 94.8462 294.62L93.2087 292.982L94.8462 291.345C95.4861 290.705 95.4861 289.668 94.8462 289.028C94.5258 288.707 94.1069 288.548 93.6871 288.548C93.2673 288.548 92.8484 288.707 92.528 289.028L90.8906 290.665L89.2531 289.028C88.9328 288.707 88.5139 288.548 88.0941 288.548C87.6743 288.548 87.2554 288.707 86.935 289.028C86.2951 289.668 86.2951 290.705 86.935 291.345L88.5742 292.982Z" fill="white"/>
<path d="M46.6787 147.846L45.0413 149.483C44.4014 150.123 44.4014 151.161 45.0413 151.801C45.6812 152.441 46.7186 152.441 47.3585 151.801L48.996 150.163L50.6334 151.801C51.2733 152.441 52.3108 152.441 52.9507 151.801C53.5906 151.161 53.5906 150.123 52.9507 149.483L51.3132 147.846L52.9507 146.209C53.5906 145.569 53.5906 144.531 52.9507 143.891C52.6303 143.571 52.2114 143.411 51.7916 143.411C51.3718 143.411 50.9529 143.571 50.6325 143.891L48.9951 145.529L47.3576 143.891C47.0372 143.571 46.6183 143.411 46.1986 143.411C45.7788 143.411 45.3599 143.571 45.0395 143.891C44.3996 144.531 44.3996 145.569 45.0395 146.209L46.6787 147.846Z" fill="white"/>
<path d="M243.756 63.6959L242.119 65.3333C241.479 65.9732 241.479 67.0107 242.119 67.6506C242.759 68.2905 243.796 68.2905 244.436 67.6506L246.074 66.0131L247.711 67.6506C248.351 68.2905 249.388 68.2905 250.028 67.6506C250.668 67.0107 250.668 65.9732 250.028 65.3333L248.391 63.6959L250.028 62.0584C250.668 61.4186 250.668 60.3811 250.028 59.7412C249.708 59.4208 249.289 59.261 248.869 59.261C248.449 59.261 248.031 59.4208 247.71 59.7412L246.073 61.3786L244.435 59.7412C244.115 59.4208 243.696 59.261 243.276 59.261C242.856 59.261 242.438 59.4208 242.117 59.7412C241.477 60.3811 241.477 61.4186 242.117 62.0584L243.756 63.6959Z" fill="white"/>
<path d="M213.777 295.265C216.417 295.265 218.565 297.413 218.565 300.052C218.565 302.692 216.417 304.839 213.777 304.839C211.138 304.839 208.99 302.692 208.99 300.052C208.99 297.413 211.137 295.265 213.777 295.265ZM213.777 301.562C214.61 301.562 215.287 300.885 215.287 300.052C215.287 299.22 214.61 298.543 213.777 298.543C212.945 298.543 212.268 299.22 212.268 300.052C212.268 300.885 212.945 301.562 213.777 301.562Z" fill="white"/>
<path d="M304.001 142.724C306.64 142.724 308.788 144.872 308.788 147.511C308.788 150.151 306.64 152.299 304.001 152.299C301.361 152.299 299.213 150.151 299.213 147.511C299.213 144.872 301.36 142.724 304.001 142.724ZM304.001 149.021C304.833 149.021 305.51 148.344 305.51 147.511C305.51 146.679 304.833 146.002 304.001 146.002C303.168 146.002 302.491 146.679 302.491 147.511C302.491 148.344 303.168 149.021 304.001 149.021Z" fill="white"/>
<path d="M103.598 65.8942C106.237 65.8942 108.385 68.042 108.385 70.6814C108.385 73.3208 106.237 75.4686 103.598 75.4686C100.958 75.4686 98.8105 73.3208 98.8105 70.6814C98.8105 68.042 100.958 65.8942 103.598 65.8942ZM103.598 72.191C104.43 72.191 105.107 71.5139 105.107 70.6814C105.107 69.8489 104.43 69.1718 103.598 69.1718C102.765 69.1718 102.088 69.8489 102.088 70.6814C102.088 71.5139 102.765 72.191 103.598 72.191Z" fill="white"/>
<path d="M47.8292 215.363C50.4686 215.363 52.6163 217.51 52.6163 220.15C52.6163 222.789 50.4686 224.937 47.8292 224.937C45.1897 224.937 43.042 222.789 43.042 220.15C43.042 217.51 45.1889 215.363 47.8292 215.363ZM47.8292 221.659C48.6616 221.659 49.3388 220.982 49.3388 220.15C49.3388 219.317 48.6616 218.64 47.8292 218.64C46.9967 218.64 46.3195 219.317 46.3195 220.15C46.3195 220.982 46.9967 221.659 47.8292 221.659Z" fill="white"/>
<path d="M38.6912 156.84C43.1287 161.277 49.1478 163.771 55.4242 163.771C60.1394 163.771 64.7083 162.364 68.5716 159.782L51.7259 176.628C47.2884 181.065 44.7946 187.084 44.7946 193.361C44.7946 199.637 47.2876 205.656 51.7259 210.093C56.1634 214.531 62.1825 217.025 68.4589 217.025C73.1733 217.025 77.743 215.617 81.6063 213.036L72.765 221.878C68.3275 226.315 65.8336 232.334 65.8336 238.611C65.8336 244.887 68.3266 250.906 72.765 255.344C77.2025 259.781 83.2215 262.275 89.4979 262.275C94.2123 262.275 98.7821 260.867 102.645 258.286L100.485 260.447C96.0477 264.884 93.5538 270.903 93.5538 277.18C93.5538 283.456 96.0468 289.475 100.485 293.913C104.923 298.35 110.942 300.844 117.218 300.844C123.495 300.844 129.514 298.351 133.951 293.913L156.376 271.486C153.795 275.35 152.388 279.919 152.388 284.634C152.388 290.91 154.881 296.929 159.319 301.367C163.757 305.804 169.776 308.298 176.052 308.298C182.329 308.298 188.348 305.805 192.785 301.367L226.857 267.295C224.275 271.158 222.869 275.728 222.869 280.442C222.869 286.718 225.362 292.737 229.8 297.175C234.238 301.612 240.257 304.106 246.533 304.106C252.809 304.106 258.828 301.613 263.266 297.175L316.309 244.132C320.747 239.694 323.241 233.675 323.241 227.399C323.241 221.122 320.748 215.103 316.309 210.666C311.872 206.228 305.853 203.735 299.576 203.735C294.862 203.735 290.292 205.142 286.429 207.723L297.532 196.619C301.97 192.182 304.464 186.163 304.464 179.887C304.464 173.61 301.971 167.591 297.532 163.154C293.095 158.716 287.076 156.222 280.799 156.222C276.085 156.222 271.515 157.63 267.652 160.211L290.077 137.786C294.514 133.349 297.008 127.33 297.008 121.053C297.008 114.777 294.515 108.758 290.077 104.32C285.639 99.8828 279.62 97.3889 273.344 97.3889C268.629 97.3889 264.059 98.7965 260.196 101.377L274.477 87.0966C278.914 82.6591 281.408 76.6401 281.408 70.3637C281.408 64.0873 278.915 58.0682 274.477 53.6307C270.039 49.1932 264.02 46.6994 257.744 46.6994C251.468 46.6994 245.449 49.1924 241.011 53.6307L209.201 85.4405C211.783 81.5772 213.19 77.0075 213.19 72.2931C213.19 66.0167 210.697 59.9977 206.258 55.5602C201.821 51.1227 195.802 48.6288 189.525 48.6288C183.249 48.6288 177.23 51.1218 172.792 55.5602L128.143 100.209C130.725 96.3461 132.133 91.7764 132.133 87.0611C132.133 80.7847 129.64 74.7657 125.201 70.3282C120.764 65.8907 114.745 63.3968 108.468 63.3968C102.192 63.3968 96.1728 65.8898 91.7353 70.3282L38.6921 123.371C34.2546 127.809 31.7607 133.828 31.7607 140.104C31.7607 146.381 34.2528 152.402 38.6912 156.84Z" fill="#E6E6E6"/>
<path d="M322.542 257.705L320.905 259.343C320.265 259.982 320.265 261.02 320.905 261.66C321.544 262.3 322.582 262.3 323.222 261.66L324.859 260.022L326.497 261.66C327.137 262.3 328.174 262.3 328.814 261.66C329.454 261.02 329.454 259.982 328.814 259.343L327.176 257.705L328.814 256.068C329.454 255.428 329.454 254.39 328.814 253.75C328.494 253.43 328.075 253.27 327.655 253.27C327.235 253.27 326.816 253.43 326.496 253.75L324.858 255.388L323.221 253.75C322.901 253.43 322.482 253.27 322.062 253.27C321.642 253.27 321.223 253.43 320.903 253.75C320.263 254.39 320.263 255.428 320.903 256.068L322.542 257.705Z" fill="#FFCD57"/>
<path d="M88.5742 292.982L86.9368 294.62C86.2969 295.26 86.2969 296.297 86.9368 296.937C87.5767 297.577 88.6141 297.577 89.254 296.937L90.8915 295.3L92.5289 296.937C93.1688 297.577 94.2063 297.577 94.8462 296.937C95.4861 296.297 95.4861 295.26 94.8462 294.62L93.2087 292.982L94.8462 291.345C95.4861 290.705 95.4861 289.668 94.8462 289.028C94.5258 288.707 94.1069 288.548 93.6871 288.548C93.2673 288.548 92.8484 288.707 92.528 289.028L90.8906 290.665L89.2531 289.028C88.9328 288.707 88.5139 288.548 88.0941 288.548C87.6743 288.548 87.2554 288.707 86.935 289.028C86.2951 289.668 86.2951 290.705 86.935 291.345L88.5742 292.982Z" fill="#FFCD57"/>
<path d="M46.6787 147.846L45.0413 149.483C44.4014 150.123 44.4014 151.161 45.0413 151.801C45.6812 152.441 46.7186 152.441 47.3585 151.801L48.996 150.163L50.6334 151.801C51.2733 152.441 52.3108 152.441 52.9507 151.801C53.5906 151.161 53.5906 150.123 52.9507 149.483L51.3132 147.846L52.9507 146.209C53.5906 145.569 53.5906 144.531 52.9507 143.891C52.6303 143.571 52.2114 143.411 51.7916 143.411C51.3718 143.411 50.9529 143.571 50.6325 143.891L48.9951 145.529L47.3576 143.891C47.0372 143.571 46.6183 143.411 46.1986 143.411C45.7788 143.411 45.3599 143.571 45.0395 143.891C44.3996 144.531 44.3996 145.569 45.0395 146.209L46.6787 147.846Z" fill="#FFCD57"/>
<path d="M243.756 63.6959L242.119 65.3333C241.479 65.9732 241.479 67.0107 242.119 67.6506C242.759 68.2905 243.796 68.2905 244.436 67.6506L246.074 66.0131L247.711 67.6506C248.351 68.2905 249.388 68.2905 250.028 67.6506C250.668 67.0107 250.668 65.9732 250.028 65.3333L248.391 63.6959L250.028 62.0584C250.668 61.4186 250.668 60.3811 250.028 59.7412C249.708 59.4208 249.289 59.261 248.869 59.261C248.449 59.261 248.031 59.4208 247.71 59.7412L246.073 61.3786L244.435 59.7412C244.115 59.4208 243.696 59.261 243.276 59.261C242.856 59.261 242.438 59.4208 242.117 59.7412C241.477 60.3811 241.477 61.4186 242.117 62.0584L243.756 63.6959Z" fill="#FFCD57"/>
<path d="M213.777 295.265C216.417 295.265 218.565 297.413 218.565 300.052C218.565 302.692 216.417 304.839 213.777 304.839C211.138 304.839 208.99 302.692 208.99 300.052C208.99 297.413 211.137 295.265 213.777 295.265ZM213.777 301.562C214.61 301.562 215.287 300.885 215.287 300.052C215.287 299.22 214.61 298.543 213.777 298.543C212.945 298.543 212.268 299.22 212.268 300.052C212.268 300.885 212.945 301.562 213.777 301.562Z" fill="#FFCD57"/>
<path d="M304.001 142.724C306.64 142.724 308.788 144.872 308.788 147.511C308.788 150.151 306.64 152.299 304.001 152.299C301.361 152.299 299.213 150.151 299.213 147.511C299.213 144.872 301.36 142.724 304.001 142.724ZM304.001 149.021C304.833 149.021 305.51 148.344 305.51 147.511C305.51 146.679 304.833 146.002 304.001 146.002C303.168 146.002 302.491 146.679 302.491 147.511C302.491 148.344 303.168 149.021 304.001 149.021Z" fill="#FFCD57"/>
<path d="M103.598 65.8942C106.237 65.8942 108.385 68.042 108.385 70.6814C108.385 73.3208 106.237 75.4686 103.598 75.4686C100.958 75.4686 98.8105 73.3208 98.8105 70.6814C98.8105 68.042 100.958 65.8942 103.598 65.8942ZM103.598 72.191C104.43 72.191 105.107 71.5139 105.107 70.6814C105.107 69.8489 104.43 69.1718 103.598 69.1718C102.765 69.1718 102.088 69.8489 102.088 70.6814C102.088 71.5139 102.765 72.191 103.598 72.191Z" fill="#FFCD57"/>
<path d="M47.8292 215.363C50.4686 215.363 52.6163 217.51 52.6163 220.15C52.6163 222.789 50.4686 224.937 47.8292 224.937C45.1897 224.937 43.042 222.789 43.042 220.15C43.042 217.51 45.1889 215.363 47.8292 215.363ZM47.8292 221.659C48.6616 221.659 49.3388 220.982 49.3388 220.15C49.3388 219.317 48.6616 218.64 47.8292 218.64C46.9967 218.64 46.3195 219.317 46.3195 220.15C46.3195 220.982 46.9967 221.659 47.8292 221.659Z" fill="#FFCD57"/>
<path d="M103.995 229.472C100.797 229.472 98.1938 226.87 98.1938 223.67C98.1938 220.472 100.796 217.869 103.995 217.869H151.112L151.605 218.49C153.18 220.475 154.879 222.383 156.655 224.159C157.479 224.982 158.349 225.806 159.242 226.607L162.433 229.471H103.995V229.472Z" fill="#DDDDDD"/>
<path d="M150.319 219.511C151.931 221.544 153.662 223.488 155.494 225.32C156.354 226.18 157.239 227.016 158.145 227.83H103.995C101.698 227.83 99.8351 225.968 99.8351 223.67C99.8351 221.374 101.697 219.511 103.995 219.511H150.319ZM151.906 216.227H150.319H103.996C99.891 216.227 96.5522 219.566 96.5522 223.67C96.5522 227.775 99.891 231.114 103.996 231.114H158.146H166.722L160.34 225.386C159.469 224.605 158.62 223.802 157.817 222.998C156.086 221.266 154.429 219.406 152.893 217.469L151.906 216.227Z" fill="#333333"/>
<path d="M115.533 211.06C112.334 211.06 109.731 208.458 109.731 205.258C109.731 202.059 112.334 199.457 115.533 199.457H141.082L141.48 200.528C141.825 201.458 142.187 202.373 142.558 203.25C143.326 205.065 144.194 206.88 145.138 208.644L146.432 211.061H115.533V211.06Z" fill="#FFCD57"/>
<path d="M139.94 201.099C140.288 202.038 140.657 202.968 141.045 203.889C141.84 205.767 142.725 207.614 143.69 209.418H115.532C113.236 209.418 111.373 207.556 111.373 205.258C111.373 202.961 113.235 201.099 115.532 201.099H139.94ZM142.225 197.815H139.94H115.533C111.429 197.815 108.09 201.154 108.09 205.258C108.09 209.363 111.429 212.702 115.533 212.702H143.691H149.173L146.586 207.868C145.666 206.149 144.819 204.379 144.071 202.61C143.71 201.756 143.356 200.863 143.02 199.957L142.225 197.815Z" fill="#333333"/>
<path d="M89.4222 192.648C86.2236 192.648 83.6206 190.046 83.6206 186.846C83.6206 183.647 86.2228 181.045 89.4222 181.045H137.456L137.569 182.565C137.771 185.29 138.145 188.02 138.68 190.682L139.076 192.648H89.4222Z" fill="#DDDDDD"/>
<path d="M135.932 182.687C136.14 185.488 136.522 188.271 137.072 191.006H89.4228C87.1259 191.006 85.2631 189.144 85.2631 186.846C85.2631 184.549 87.125 182.687 89.4228 182.687H135.932ZM138.981 179.403H135.931H89.421C85.3163 179.403 81.9775 182.742 81.9775 186.846C81.9775 190.951 85.3163 194.29 89.421 194.29H137.07H141.08L140.289 190.358C139.767 187.764 139.402 185.101 139.205 182.443L138.981 179.403Z" fill="#333333"/>
<path d="M108.247 174.236C105.048 174.236 102.445 171.634 102.445 168.434C102.445 165.236 105.047 162.633 108.247 162.633H139.077L138.681 164.598C138.146 167.259 137.772 169.99 137.57 172.715L137.457 174.236H108.247Z" fill="#FFCD57"/>
<path d="M137.071 164.274C136.521 167.01 136.14 169.793 135.931 172.594H108.246C105.949 172.594 104.086 170.732 104.086 168.434C104.086 166.136 105.948 164.274 108.246 164.274H137.071ZM141.082 160.991H137.072H108.247C104.142 160.991 100.803 164.33 100.803 168.434C100.803 172.539 104.142 175.878 108.247 175.878H135.932H138.982L139.207 172.837C139.404 170.18 139.769 167.517 140.291 164.922L141.082 160.991Z" fill="#333333"/>
<path d="M97.3162 155.824C94.1177 155.824 91.5146 153.222 91.5146 150.022C91.5146 146.824 94.1168 144.221 97.3162 144.221H146.431L145.137 146.637C144.193 148.401 143.325 150.216 142.557 152.031C142.186 152.908 141.823 153.823 141.479 154.752L141.082 155.824H97.3162Z" fill="#DDDDDD"/>
<path d="M143.691 145.862C142.725 147.667 141.841 149.514 141.046 151.392C140.657 152.312 140.289 153.243 139.941 154.182H97.3174C95.0205 154.182 93.1577 152.32 93.1577 150.022C93.1577 147.724 95.0197 145.862 97.3174 145.862H143.691ZM149.173 142.579H143.691H97.3165C93.2118 142.579 89.873 145.917 89.873 150.022C89.873 154.126 93.2118 157.466 97.3165 157.466H139.94H142.225L143.019 155.324C143.356 154.418 143.709 153.525 144.07 152.671C144.818 150.902 145.665 149.133 146.585 147.413L149.173 142.579Z" fill="#333333"/>
<path d="M127.071 137.412C123.872 137.412 121.269 134.809 121.269 131.61C121.269 128.411 123.871 125.808 127.071 125.808H162.433L159.242 128.672C158.35 129.473 157.479 130.297 156.655 131.121C154.879 132.897 153.179 134.804 151.605 136.789L151.111 137.411H127.071V137.412Z" fill="#FFCD57"/>
<path d="M158.146 127.45C157.24 128.264 156.355 129.1 155.495 129.96C153.662 131.793 151.932 133.737 150.319 135.77H127.071C124.774 135.77 122.911 133.908 122.911 131.61C122.911 129.312 124.773 127.45 127.071 127.45H158.146ZM166.721 124.167H158.145H127.07C122.965 124.167 119.626 127.505 119.626 131.61C119.626 135.715 122.965 139.054 127.07 139.054H150.318H151.905L152.891 137.81C154.427 135.874 156.084 134.013 157.816 132.282C158.619 131.479 159.467 130.676 160.338 129.895L166.721 124.167Z" fill="#333333"/>
<path d="M199.979 240.639C192.746 240.639 185.654 239.424 178.899 237.026C172.37 234.707 166.297 231.339 160.847 227.015C158.393 225.066 156.065 222.92 153.929 220.633C150.966 217.46 148.324 213.973 146.078 210.27C144.426 207.546 142.969 204.672 141.751 201.728C140.366 198.384 139.266 194.897 138.48 191.363C137.859 188.564 137.425 185.691 137.192 182.821C137.051 181.099 136.98 179.357 136.98 177.641C136.98 175.926 137.051 174.183 137.192 172.462C137.425 169.591 137.859 166.718 138.48 163.919C139.266 160.385 140.365 156.898 141.751 153.554C142.97 150.61 144.427 147.736 146.078 145.012C148.324 141.31 150.966 137.823 153.929 134.65C156.065 132.363 158.393 130.215 160.847 128.268C166.297 123.942 172.37 120.574 178.899 118.257C185.654 115.859 192.747 114.643 199.979 114.643C208.414 114.643 216.604 116.283 224.319 119.519C231.27 122.433 237.572 126.524 243.074 131.691L255.261 119.504C256.933 117.832 258.888 116.534 261.072 115.649C263.177 114.796 265.397 114.363 267.672 114.363C269.947 114.363 272.167 114.796 274.271 115.649C276.456 116.535 278.41 117.832 280.083 119.504C281.755 121.176 283.052 123.131 283.937 125.315C284.79 127.419 285.223 129.64 285.223 131.914C285.223 134.189 284.79 136.41 283.937 138.514C283.051 140.697 281.755 142.652 280.082 144.325L261.292 163.115C262.41 167.854 262.976 172.736 262.976 177.643C262.976 186.147 261.31 194.398 258.025 202.165C254.852 209.667 250.31 216.404 244.524 222.19C238.739 227.976 232.002 232.518 224.5 235.691C216.734 238.974 208.484 240.639 199.979 240.639Z" fill="white"/>
<path d="M285.46 124.696C284.492 122.307 283.074 120.169 281.246 118.34C279.416 116.512 277.278 115.094 274.89 114.125C272.589 113.192 270.161 112.719 267.673 112.719C265.186 112.719 262.758 113.192 260.457 114.125C258.068 115.094 255.931 116.512 254.101 118.34L245.068 127.373L243.024 129.417C240.772 127.406 238.377 125.548 235.874 123.875C232.435 121.574 228.761 119.599 224.955 118.003C217.038 114.683 208.635 112.999 199.979 112.999C192.559 112.999 185.282 114.247 178.35 116.708C171.651 119.087 165.419 122.542 159.827 126.981C157.309 128.979 154.921 131.181 152.729 133.528C149.689 136.783 146.979 140.361 144.674 144.159C142.978 146.955 141.485 149.904 140.233 152.925C138.812 156.357 137.683 159.936 136.878 163.563C136.24 166.434 135.795 169.383 135.554 172.328C135.411 174.093 135.338 175.88 135.338 177.64C135.338 179.401 135.411 181.188 135.554 182.954C135.795 185.898 136.24 188.847 136.878 191.718C137.683 195.344 138.812 198.923 140.233 202.355C141.485 205.376 142.978 208.326 144.674 211.121C146.979 214.921 149.689 218.497 152.729 221.753C154.751 223.917 156.94 225.959 159.244 227.83C159.437 227.989 159.631 228.144 159.827 228.3C161.07 229.287 162.345 230.226 163.651 231.114C168.214 234.222 173.141 236.723 178.35 238.572C185.282 241.033 192.559 242.281 199.979 242.281C208.704 242.281 217.17 240.572 225.141 237.2C228.973 235.58 232.667 233.575 236.123 231.24C236.185 231.198 236.247 231.157 236.309 231.114C237.821 230.085 239.293 228.987 240.718 227.83C242.45 226.423 244.112 224.924 245.688 223.348C248.612 220.424 251.267 217.206 253.579 213.784C255.914 210.329 257.918 206.634 259.539 202.803C262.911 194.831 264.62 186.365 264.62 177.64C264.62 172.915 264.108 168.212 263.096 163.632L264.285 162.444L266.725 160.004L281.246 145.483C283.074 143.655 284.492 141.517 285.46 139.128C286.394 136.828 286.867 134.399 286.867 131.912C286.867 129.424 286.394 126.996 285.46 124.696ZM282.417 137.894C281.615 139.874 280.44 141.646 278.923 143.162L264.403 157.681L261.964 160.122L259.48 162.605C260.692 167.416 261.336 172.453 261.336 177.64C261.336 198.385 251.041 216.725 235.282 227.83C233.611 229.008 231.878 230.105 230.089 231.114C221.195 236.134 210.921 238.998 199.979 238.998C189.038 238.998 178.766 236.134 169.871 231.114C168.083 230.106 166.35 229.009 164.679 227.83C163.721 227.157 162.784 226.455 161.868 225.728C159.47 223.825 157.217 221.746 155.129 219.511C152.249 216.427 149.683 213.046 147.482 209.418C145.875 206.77 144.464 203.99 143.267 201.099C141.928 197.865 140.857 194.491 140.083 191.006C139.481 188.296 139.058 185.519 138.828 182.687C138.693 181.022 138.622 179.34 138.622 177.64C138.622 175.941 138.693 174.258 138.828 172.594C139.058 169.762 139.481 166.985 140.083 164.274C140.857 160.789 141.928 157.416 143.268 154.182C144.464 151.291 145.875 148.511 147.482 145.862C149.683 142.235 152.248 138.854 155.129 135.77C157.217 133.535 159.47 131.457 161.868 129.553C172.335 121.246 185.577 116.283 199.979 116.283C216.787 116.283 232.015 123.042 243.097 133.989L247.391 129.695L256.424 120.662C257.94 119.146 259.712 117.97 261.691 117.168C263.598 116.395 265.611 116.002 267.673 116.002C269.736 116.002 271.748 116.395 273.656 117.168C275.635 117.97 277.407 119.146 278.923 120.662C280.44 122.179 281.615 123.95 282.417 125.929C283.191 127.836 283.583 129.849 283.583 131.912C283.583 133.974 283.191 135.987 282.417 137.894Z" fill="#333333"/>
<path d="M197.176 209.709C193.464 209.709 189.973 208.263 187.349 205.638L158.49 176.779C157.461 175.75 156.68 174.476 156.235 173.099C155.161 169.781 156.025 166.188 158.49 163.723C158.595 163.619 158.707 163.512 158.82 163.409C160.52 161.868 162.721 161.019 165.018 161.019C167.484 161.019 169.802 161.979 171.546 163.723L197.175 189.353L261.145 125.383C262.888 123.639 265.207 122.679 267.673 122.679C270.139 122.679 272.458 123.639 274.201 125.383C275.945 127.127 276.906 129.445 276.906 131.912C276.906 134.378 275.945 136.696 274.201 138.44L207.003 205.638C204.378 208.263 200.889 209.709 197.176 209.709Z" fill="#FFCD57"/>
<path d="M267.673 124.322C269.616 124.322 271.558 125.063 273.04 126.545C276.005 129.509 276.005 134.315 273.04 137.279L261.128 149.191L258.836 151.483L256.529 153.79L205.843 204.476C203.528 206.791 200.45 208.066 197.176 208.066C193.902 208.066 190.824 206.792 188.51 204.476L159.651 175.618C158.772 174.739 158.154 173.699 157.797 172.593C156.947 169.967 157.565 166.969 159.651 164.883C159.74 164.794 159.831 164.708 159.923 164.624C161.366 163.315 163.192 162.66 165.017 162.66C166.96 162.66 168.903 163.401 170.385 164.883L197.176 191.674L248.618 140.232L250.785 138.065L252.945 135.906L262.307 126.543C263.788 125.063 265.731 124.322 267.673 124.322ZM267.673 121.038C264.768 121.038 262.037 122.169 259.984 124.223L250.621 133.586L248.462 135.745L246.295 137.912L197.175 187.032L172.707 162.563C170.653 160.51 167.922 159.378 165.017 159.378C162.312 159.378 159.718 160.378 157.717 162.193C157.584 162.314 157.453 162.438 157.328 162.563C155.885 164.006 154.88 165.817 154.423 167.799C153.979 169.722 154.065 171.729 154.671 173.606C155.196 175.23 156.115 176.729 157.328 177.942L186.187 206.801C189.122 209.736 193.024 211.353 197.175 211.353C201.326 211.353 205.228 209.737 208.163 206.801L258.849 156.115L261.157 153.807L263.449 151.515L275.361 139.604C277.415 137.55 278.547 134.819 278.547 131.914C278.547 129.01 277.416 126.279 275.361 124.225C273.308 122.169 270.578 121.038 267.673 121.038Z" fill="#333333"/>
<path d="M287.749 126.984C286.781 124.596 285.363 122.458 283.533 120.629C281.705 118.801 279.566 117.383 277.178 116.413C274.877 115.481 272.449 115.007 269.962 115.007C267.475 115.007 265.046 115.48 262.746 116.412C260.357 117.381 258.219 118.799 256.39 120.628L247.357 129.661L245.313 131.705C243.061 129.694 240.665 127.836 238.163 126.163C234.724 123.862 231.049 121.887 227.244 120.291C219.326 116.971 210.923 115.288 202.268 115.288C194.847 115.288 187.57 116.536 180.639 118.997C175.43 120.846 170.502 123.347 165.94 126.455H160.435H129.36C125.255 126.455 121.916 129.794 121.916 133.899C121.916 138.004 125.255 141.342 129.36 141.342H150.406C149.549 142.491 148.732 143.667 147.955 144.868H145.98H99.6054C95.5007 144.868 92.1619 148.206 92.1619 152.311C92.1619 156.415 95.5007 159.754 99.6054 159.754H140.841C140.459 160.92 140.11 162.096 139.795 163.28H139.361H110.536C106.431 163.28 103.092 166.618 103.092 170.723C103.092 174.828 106.431 178.167 110.536 178.167H137.652C137.636 178.756 137.627 179.344 137.627 179.929C137.627 180.514 137.636 181.102 137.652 181.692H91.711C87.6064 181.692 84.2676 185.03 84.2676 189.135C84.2676 193.24 87.6064 196.579 91.711 196.579H139.36H139.794C140.109 197.763 140.458 198.939 140.84 200.104H117.822C113.717 200.104 110.379 203.443 110.379 207.547C110.379 211.652 113.717 214.991 117.822 214.991H145.98H147.955C148.732 216.191 149.55 217.367 150.407 218.516H106.286C102.181 218.516 98.8421 221.855 98.8421 225.959C98.8421 230.064 102.181 233.403 106.286 233.403H160.435H165.941C170.504 236.511 175.431 239.012 180.639 240.861C187.572 243.322 194.848 244.57 202.269 244.57C210.994 244.57 219.46 242.861 227.431 239.489C231.262 237.869 234.957 235.864 238.413 233.529C241.835 231.217 245.053 228.561 247.978 225.637C250.902 222.713 253.557 219.495 255.869 216.073C258.204 212.617 260.209 208.922 261.83 205.091C265.201 197.119 266.911 188.653 266.911 179.928C266.911 175.203 266.399 170.5 265.387 165.92L266.576 164.731L269.016 162.291L283.535 147.771C285.364 145.943 286.782 143.804 287.751 141.416C288.684 139.115 289.157 136.687 289.157 134.2C289.157 131.712 288.682 129.285 287.749 126.984ZM125.2 133.899C125.2 131.602 127.062 129.739 129.36 129.739H160.435C159.528 130.553 158.644 131.389 157.784 132.249C155.951 134.082 154.221 136.025 152.608 138.059H129.36C127.062 138.059 125.2 136.196 125.2 133.899ZM99.6054 156.471C97.3085 156.471 95.4456 154.609 95.4456 152.311C95.4456 150.013 97.3076 148.151 99.6054 148.151H145.967C144.678 150.432 143.522 152.8 142.522 155.214C142.35 155.63 142.181 156.049 142.018 156.471H99.6054ZM110.535 174.883C108.238 174.883 106.375 173.021 106.375 170.723C106.375 168.425 108.237 166.563 110.535 166.563H139.014C138.457 169.209 138.063 171.914 137.843 174.616C137.836 174.704 137.83 174.793 137.823 174.882H110.535V174.883ZM87.5513 189.135C87.5513 186.837 89.4133 184.975 91.711 184.975H137.823C137.83 185.064 137.836 185.153 137.843 185.242C138.063 187.943 138.458 190.648 139.014 193.294H91.7102C89.4133 193.295 87.5513 191.432 87.5513 189.135ZM113.662 207.547C113.662 205.249 115.524 203.387 117.822 203.387H142.018C142.182 203.808 142.35 204.227 142.522 204.644C143.522 207.058 144.677 209.427 145.967 211.707H117.822C115.524 211.707 113.662 209.844 113.662 207.547ZM106.285 230.119C103.988 230.119 102.125 228.257 102.125 225.959C102.125 223.662 103.987 221.8 106.285 221.8H152.608C154.22 223.833 155.951 225.776 157.783 227.609C158.643 228.469 159.528 229.305 160.434 230.119H106.285ZM284.706 140.183C283.904 142.162 282.728 143.935 281.212 145.451L266.692 159.97L264.253 162.41L261.769 164.893C262.982 169.704 263.626 174.741 263.626 179.928C263.626 213.815 236.155 241.286 202.269 241.286C187.867 241.286 174.625 236.323 164.157 228.016C161.759 226.112 159.505 224.034 157.418 221.799C154.537 218.715 151.971 215.333 149.77 211.706C149.52 211.293 149.276 210.876 149.035 210.456L148.874 210.156C147.954 208.436 147.107 206.667 146.359 204.898C145.998 204.044 145.644 203.151 145.308 202.245L144.514 200.104H144.307C143.903 198.944 143.533 197.769 143.198 196.579H143.371L142.58 192.647C142.058 190.053 141.693 187.389 141.496 184.732L141.271 181.692H140.937C140.92 181.106 140.911 180.518 140.911 179.929C140.911 179.34 140.92 178.752 140.937 178.167H141.271L141.496 175.126C141.693 172.469 142.058 169.805 142.58 167.211L143.371 163.28H143.198C143.533 162.089 143.904 160.914 144.307 159.754H144.514L145.308 157.613C145.644 156.707 145.998 155.814 146.359 154.96C147.107 153.191 147.954 151.422 148.874 149.702L149.034 149.403C149.275 148.983 149.519 148.566 149.77 148.152C151.971 144.524 154.536 141.144 157.417 138.06C159.504 135.825 161.758 133.746 164.156 131.843C174.624 123.536 187.865 118.573 202.268 118.573C219.075 118.573 234.304 125.332 245.385 136.278L247.532 134.131L249.679 131.985L258.712 122.952C260.228 121.436 262 120.26 263.979 119.458C265.886 118.685 267.899 118.292 269.962 118.292C272.024 118.292 274.037 118.685 275.944 119.458C277.924 120.26 279.696 121.436 281.212 122.952C282.728 124.467 283.904 126.24 284.706 128.219C285.479 130.126 285.871 132.139 285.871 134.202C285.871 136.263 285.48 138.276 284.706 140.183Z" fill="#DDDDDD"/>
<path d="M269.961 123.326C267.057 123.326 264.326 124.457 262.272 126.511L252.91 135.874L250.751 138.033L248.583 140.2L199.464 189.32L174.995 164.851C172.942 162.798 170.211 161.666 167.306 161.666C164.6 161.666 162.007 162.666 160.005 164.481C159.872 164.602 159.742 164.726 159.617 164.851C158.174 166.294 157.169 168.105 156.711 170.087C156.267 172.01 156.353 174.017 156.96 175.894C157.485 177.518 158.404 179.017 159.617 180.23L188.476 209.089C191.411 212.024 195.313 213.641 199.464 213.641C203.615 213.641 207.517 212.025 210.452 209.089L261.138 158.403L263.445 156.095L265.738 153.803L277.65 141.892C279.703 139.838 280.835 137.107 280.835 134.202C280.835 131.298 279.704 128.567 277.65 126.513C275.597 124.458 272.866 123.326 269.961 123.326ZM275.329 139.567L263.417 151.479L261.125 153.771L258.817 156.078L208.131 206.764C205.816 209.079 202.739 210.354 199.465 210.354C196.191 210.354 193.113 209.08 190.798 206.764L161.939 177.906C161.061 177.027 160.443 175.987 160.085 174.881C159.236 172.255 159.854 169.257 161.939 167.171C162.029 167.082 162.12 166.996 162.212 166.912C163.655 165.603 165.48 164.948 167.306 164.948C169.249 164.948 171.192 165.689 172.674 167.171L199.465 193.962L250.907 142.52L253.074 140.353L255.233 138.194L264.596 128.831C266.078 127.349 268.02 126.608 269.963 126.608C271.906 126.608 273.849 127.349 275.331 128.831C278.293 131.797 278.293 136.603 275.329 139.567Z" fill="#DDDDDD"/>
<path d="M164.678 227.83C166.35 229.009 168.083 230.106 169.871 231.114H76.6438C75.7377 231.114 75.002 230.379 75.002 229.472C75.002 228.565 75.7377 227.83 76.6438 227.83H164.678Z" fill="#333333"/>
<path d="M290.648 229.472C290.648 230.379 289.913 231.114 289.006 231.114H230.089C231.878 230.105 233.61 229.008 235.282 227.83H289.006C289.913 227.83 290.648 228.565 290.648 229.472Z" fill="#333333"/>
<path d="M69.8695 231.114H62.3914C61.4844 231.114 60.7495 230.379 60.7495 229.472C60.7495 228.565 61.4844 227.83 62.3914 227.83H69.8695C70.7765 227.83 71.5113 228.565 71.5113 229.472C71.5113 230.379 70.7765 231.114 69.8695 231.114Z" fill="#333333"/>
<path d="M98.6326 223.068H91.1546C90.2475 223.068 89.5127 222.333 89.5127 221.426C89.5127 220.519 90.2475 219.784 91.1546 219.784H98.6326C99.5397 219.784 100.275 220.519 100.275 221.426C100.275 222.333 99.5397 223.068 98.6326 223.068Z" fill="#333333"/>
<path d="M84.3802 223.068H76.9021C75.9951 223.068 75.2603 222.333 75.2603 221.426C75.2603 220.519 75.9951 219.784 76.9021 219.784H84.3802C85.2872 219.784 86.0221 220.519 86.0221 221.426C86.0221 222.333 85.2872 223.068 84.3802 223.068Z" fill="#333333"/>
<path d="M266.435 223.068H258.957C258.05 223.068 257.315 222.333 257.315 221.426C257.315 220.519 258.05 219.784 258.957 219.784H266.435C267.342 219.784 268.077 220.519 268.077 221.426C268.077 222.333 267.342 223.068 266.435 223.068Z" fill="#333333"/>
<path d="M280.686 223.068H273.209C272.302 223.068 271.567 222.333 271.567 221.426C271.567 220.519 272.302 219.784 273.209 219.784H280.686C281.593 219.784 282.328 220.519 282.328 221.426C282.328 222.333 281.593 223.068 280.686 223.068Z" fill="#333333"/>
<path d="M303.258 231.114H295.781C294.874 231.114 294.139 230.379 294.139 229.472C294.139 228.565 294.874 227.83 295.781 227.83H303.258C304.165 227.83 304.9 228.565 304.9 229.472C304.9 230.379 304.165 231.114 303.258 231.114Z" fill="#333333"/>
</g>
<defs>
<clipPath id="clip0_4072_2762">
<rect width="355" height="355" fill="white"/>
</clipPath>
</defs>
</svg>
