<svg width="368" height="368" viewBox="0 0 368 368" fill="none" xmlns="http://www.w3.org/2000/svg">
<g clip-path="url(#clip0_4066_490)">
<path d="M368 0H0V368H368V0Z" fill="white"/>
<path d="M40.1081 162.584C44.7084 167.184 50.9479 169.768 57.4538 169.768C62.3413 169.768 67.0782 168.309 71.0831 165.633L53.6204 183.096C49.02 187.696 46.4355 193.936 46.4355 200.442C46.4355 206.948 49.0199 213.187 53.6204 217.787C58.2207 222.388 64.4601 224.972 70.9661 224.972C75.8535 224.972 80.5904 223.514 84.5951 220.837L75.4304 230.002C70.83 234.603 68.2455 240.842 68.2455 247.348C68.2455 253.854 70.8299 260.093 75.4304 264.694C80.0307 269.294 86.2702 271.878 92.7761 271.878C97.6636 271.878 102.4 270.42 106.405 267.744L104.166 269.983C99.5659 274.583 96.9814 280.822 96.9814 287.328C96.9814 293.834 99.5658 300.074 104.166 304.674C108.767 309.274 115.006 311.859 121.512 311.859C128.018 311.859 134.257 309.274 138.858 304.674L162.103 281.428C159.427 285.433 157.969 290.17 157.969 295.058C157.969 301.563 160.553 307.803 165.153 312.403C169.754 317.004 175.993 319.588 182.499 319.588C189.005 319.588 195.244 317.004 199.845 312.403L235.164 277.084C232.488 281.088 231.03 285.825 231.03 290.713C231.03 297.219 233.614 303.458 238.214 308.059C242.815 312.659 249.054 315.243 255.56 315.243C262.066 315.243 268.305 312.659 272.906 308.059L327.892 253.073C332.492 248.472 335.077 242.233 335.077 235.727C335.077 229.221 332.492 222.981 327.892 218.381C323.292 213.781 317.052 211.196 310.546 211.196C305.659 211.196 300.922 212.655 296.917 215.331L308.427 203.821C313.028 199.22 315.612 192.981 315.612 186.475C315.612 179.969 313.028 173.73 308.427 169.129C303.827 164.529 297.587 161.945 291.081 161.945C286.194 161.945 281.457 163.404 277.452 166.08L300.698 142.834C305.298 138.233 307.883 131.994 307.883 125.488C307.883 118.982 305.298 112.743 300.698 108.142C296.098 103.542 289.858 100.957 283.352 100.957C278.465 100.957 273.728 102.416 269.723 105.092L284.527 90.2884C289.127 85.6881 291.712 79.4486 291.712 72.9427C291.712 66.4367 289.127 60.1972 284.527 55.597C279.927 50.9966 273.687 48.4121 267.181 48.4121C260.675 48.4121 254.436 50.9966 249.836 55.597L216.861 88.5712C219.537 84.5664 220.996 79.8295 220.996 74.9421C220.996 68.4362 218.412 62.1967 213.811 57.5964C209.211 52.996 202.972 50.4115 196.466 50.4115C189.96 50.4115 183.72 52.9959 179.12 57.5964L132.835 103.881C135.512 99.8762 136.97 95.1392 136.97 90.2517C136.97 83.7458 134.386 77.5063 129.786 72.906C125.185 68.3057 118.946 65.7212 112.44 65.7212C105.934 65.7212 99.6945 68.3057 95.0942 72.906L40.1082 127.892C35.5078 132.492 32.9233 138.732 32.9233 145.238C32.9233 151.744 35.5077 157.983 40.1081 162.584Z" fill="white"/>
<path d="M334.353 267.142L332.656 268.839C331.993 269.503 331.993 270.578 332.656 271.242C333.32 271.905 334.395 271.905 335.059 271.242L336.756 269.545L338.453 271.242C339.117 271.905 340.192 271.905 340.856 271.242C341.519 270.578 341.519 269.503 340.856 268.839L339.158 267.142L340.856 265.445C341.519 264.782 341.519 263.706 340.856 263.042C340.524 262.711 340.089 262.545 339.654 262.545C339.22 262.545 338.785 262.711 338.453 263.042L336.756 264.74L335.059 263.042C334.727 262.711 334.292 262.545 333.857 262.545C333.423 262.545 332.988 262.711 332.656 263.042C331.993 263.706 331.993 264.782 332.656 265.445L334.353 267.142Z" fill="white"/>
<path d="M91.8176 303.711L90.1204 305.409C89.4569 306.072 89.4569 307.148 90.1204 307.811C90.7838 308.474 91.8593 308.474 92.5229 307.811L94.2201 306.114L95.9173 307.811C96.5808 308.474 97.6563 308.474 98.3198 307.811C98.9832 307.148 98.9832 306.072 98.3198 305.409L96.6226 303.711L98.3198 302.014C98.9832 301.351 98.9832 300.275 98.3198 299.612C97.988 299.28 97.5533 299.114 97.1185 299.114C96.6837 299.114 96.249 299.28 95.9173 299.612L94.2201 301.309L92.5229 299.612C92.1911 299.28 91.7564 299.114 91.3216 299.114C90.8869 299.114 90.4521 299.28 90.1204 299.612C89.4569 300.275 89.4569 301.351 90.1204 302.014L91.8176 303.711Z" fill="white"/>
<path d="M48.3884 153.26L46.6912 154.957C46.0278 155.621 46.0278 156.696 46.6912 157.36C47.3546 158.023 48.4301 158.023 49.0937 157.36L50.7909 155.663L52.4881 157.36C53.1515 158.023 54.2271 158.023 54.8906 157.36C55.554 156.696 55.554 155.621 54.8906 154.957L53.1934 153.26L54.8906 151.563C55.554 150.899 55.554 149.824 54.8906 149.16C54.5588 148.829 54.1241 148.663 53.6893 148.663C53.2545 148.663 52.8198 148.829 52.4881 149.16L50.7909 150.858L49.0937 149.16C48.7619 148.829 48.3272 148.663 47.8924 148.663C47.4577 148.663 47.0229 148.829 46.6912 149.16C46.0278 149.824 46.0278 150.899 46.6912 151.563L48.3884 153.26Z" fill="white"/>
<path d="M252.683 66.0284L250.985 67.7256C250.322 68.389 250.322 69.4647 250.985 70.1281C251.649 70.7915 252.724 70.7915 253.388 70.1281L255.085 68.4309L256.782 70.1281C257.446 70.7915 258.521 70.7915 259.185 70.1281C259.848 69.4647 259.848 68.389 259.185 67.7256L257.488 66.0284L259.185 64.3312C259.848 63.6678 259.848 62.5921 259.185 61.9287C258.853 61.597 258.418 61.4312 257.984 61.4312C257.549 61.4312 257.114 61.597 256.782 61.9287L255.085 63.6259L253.388 61.9287C253.056 61.597 252.621 61.4312 252.187 61.4312C251.752 61.4312 251.317 61.597 250.985 61.9287C250.322 62.5921 250.322 63.6678 250.985 64.3312L252.683 66.0284Z" fill="white"/>
<path d="M221.605 306.078C224.342 306.078 226.568 308.304 226.568 311.04C226.568 313.776 224.342 316.002 221.605 316.002C218.869 316.002 216.643 313.776 216.643 311.04C216.643 308.304 218.869 306.078 221.605 306.078ZM221.605 312.605C222.468 312.605 223.17 311.903 223.17 311.04C223.17 310.177 222.468 309.475 221.605 309.475C220.743 309.475 220.041 310.177 220.041 311.04C220.041 311.903 220.743 312.605 221.605 312.605Z" fill="white"/>
<path d="M315.133 147.951C317.869 147.951 320.095 150.177 320.095 152.913C320.095 155.65 317.869 157.876 315.133 157.876C312.397 157.876 310.17 155.65 310.17 152.913C310.17 150.177 312.397 147.951 315.133 147.951ZM315.133 154.478C315.996 154.478 316.698 153.776 316.698 152.913C316.698 152.051 315.996 151.349 315.133 151.349C314.27 151.349 313.568 152.051 313.568 152.913C313.568 153.776 314.27 154.478 315.133 154.478Z" fill="white"/>
<path d="M107.392 68.3076C110.128 68.3076 112.354 70.5337 112.354 73.27C112.354 76.0063 110.128 78.2324 107.392 78.2324C104.656 78.2324 102.429 76.0063 102.429 73.27C102.43 70.5337 104.656 68.3076 107.392 68.3076ZM107.392 74.8348C108.255 74.8348 108.957 74.1329 108.957 73.2701C108.957 72.4073 108.255 71.7053 107.392 71.7053C106.529 71.7053 105.827 72.4072 105.827 73.2701C105.827 74.133 106.529 74.8348 107.392 74.8348Z" fill="white"/>
<path d="M49.5803 223.249C52.3166 223.249 54.5427 225.475 54.5427 228.212C54.5427 230.948 52.3166 233.174 49.5803 233.174C46.844 233.174 44.6179 230.948 44.6179 228.212C44.6179 225.475 46.844 223.249 49.5803 223.249ZM49.5803 229.776C50.4432 229.776 51.1451 229.074 51.1451 228.212C51.1451 227.349 50.4432 226.647 49.5803 226.647C48.7174 226.647 48.0156 227.349 48.0156 228.212C48.0155 229.074 48.7174 229.776 49.5803 229.776Z" fill="white"/>
<path d="M40.1081 162.584C44.7084 167.184 50.9479 169.768 57.4538 169.768C62.3413 169.768 67.0782 168.309 71.0831 165.633L53.6204 183.096C49.02 187.696 46.4355 193.936 46.4355 200.442C46.4355 206.948 49.0199 213.187 53.6204 217.787C58.2207 222.388 64.4601 224.972 70.9661 224.972C75.8535 224.972 80.5904 223.514 84.5951 220.837L75.4304 230.002C70.83 234.603 68.2455 240.842 68.2455 247.348C68.2455 253.854 70.8299 260.093 75.4304 264.694C80.0307 269.294 86.2702 271.878 92.7761 271.878C97.6636 271.878 102.4 270.42 106.405 267.744L104.166 269.983C99.5659 274.583 96.9814 280.822 96.9814 287.328C96.9814 293.834 99.5658 300.074 104.166 304.674C108.767 309.274 115.006 311.859 121.512 311.859C128.018 311.859 134.257 309.274 138.858 304.674L162.103 281.428C159.427 285.433 157.969 290.17 157.969 295.058C157.969 301.563 160.553 307.803 165.153 312.403C169.754 317.004 175.993 319.588 182.499 319.588C189.005 319.588 195.244 317.004 199.845 312.403L235.164 277.084C232.488 281.088 231.03 285.825 231.03 290.713C231.03 297.219 233.614 303.458 238.214 308.059C242.815 312.659 249.054 315.243 255.56 315.243C262.066 315.243 268.305 312.659 272.906 308.059L327.892 253.073C332.492 248.472 335.077 242.233 335.077 235.727C335.077 229.221 332.492 222.981 327.892 218.381C323.292 213.781 317.052 211.196 310.546 211.196C305.659 211.196 300.922 212.655 296.917 215.331L308.427 203.821C313.028 199.22 315.612 192.981 315.612 186.475C315.612 179.969 313.028 173.73 308.427 169.129C303.827 164.529 297.587 161.945 291.081 161.945C286.194 161.945 281.457 163.404 277.452 166.08L300.698 142.834C305.298 138.233 307.883 131.994 307.883 125.488C307.883 118.982 305.298 112.743 300.698 108.142C296.098 103.542 289.858 100.957 283.352 100.957C278.465 100.957 273.728 102.416 269.723 105.092L284.527 90.2884C289.127 85.6881 291.712 79.4486 291.712 72.9427C291.712 66.4367 289.127 60.1972 284.527 55.597C279.927 50.9966 273.687 48.4121 267.181 48.4121C260.675 48.4121 254.436 50.9966 249.836 55.597L216.861 88.5712C219.537 84.5664 220.996 79.8295 220.996 74.9421C220.996 68.4362 218.412 62.1967 213.811 57.5964C209.211 52.996 202.972 50.4115 196.466 50.4115C189.96 50.4115 183.72 52.9959 179.12 57.5964L132.835 103.881C135.512 99.8762 136.97 95.1392 136.97 90.2517C136.97 83.7458 134.386 77.5063 129.786 72.906C125.185 68.3057 118.946 65.7212 112.44 65.7212C105.934 65.7212 99.6945 68.3057 95.0942 72.906L40.1082 127.892C35.5078 132.492 32.9233 138.732 32.9233 145.238C32.9233 151.744 35.5077 157.983 40.1081 162.584Z" fill="#EFEFEF"/>
<path d="M334.353 267.142L332.656 268.839C331.993 269.503 331.993 270.578 332.656 271.242C333.32 271.905 334.395 271.905 335.059 271.242L336.756 269.545L338.453 271.242C339.117 271.905 340.192 271.905 340.856 271.242C341.519 270.578 341.519 269.503 340.856 268.839L339.158 267.142L340.856 265.445C341.519 264.782 341.519 263.706 340.856 263.042C340.524 262.711 340.089 262.545 339.654 262.545C339.22 262.545 338.785 262.711 338.453 263.042L336.756 264.74L335.059 263.042C334.727 262.711 334.292 262.545 333.857 262.545C333.423 262.545 332.988 262.711 332.656 263.042C331.993 263.706 331.993 264.782 332.656 265.445L334.353 267.142Z" fill="#F7AD01"/>
<path d="M91.8176 303.711L90.1204 305.409C89.4569 306.072 89.4569 307.148 90.1204 307.811C90.7838 308.474 91.8593 308.474 92.5229 307.811L94.2201 306.114L95.9173 307.811C96.5808 308.474 97.6563 308.474 98.3198 307.811C98.9832 307.148 98.9832 306.072 98.3198 305.409L96.6226 303.711L98.3198 302.014C98.9832 301.351 98.9832 300.275 98.3198 299.612C97.988 299.28 97.5533 299.114 97.1185 299.114C96.6837 299.114 96.249 299.28 95.9173 299.612L94.2201 301.309L92.5229 299.612C92.1911 299.28 91.7564 299.114 91.3216 299.114C90.8869 299.114 90.4521 299.28 90.1204 299.612C89.4569 300.275 89.4569 301.351 90.1204 302.014L91.8176 303.711Z" fill="#F7AD01"/>
<path d="M48.3884 153.26L46.6912 154.957C46.0278 155.621 46.0278 156.696 46.6912 157.36C47.3546 158.023 48.4301 158.023 49.0937 157.36L50.7909 155.663L52.4881 157.36C53.1515 158.023 54.2271 158.023 54.8906 157.36C55.554 156.696 55.554 155.621 54.8906 154.957L53.1934 153.26L54.8906 151.563C55.554 150.899 55.554 149.824 54.8906 149.16C54.5588 148.829 54.1241 148.663 53.6893 148.663C53.2545 148.663 52.8198 148.829 52.4881 149.16L50.7909 150.858L49.0937 149.16C48.7619 148.829 48.3272 148.663 47.8924 148.663C47.4577 148.663 47.0229 148.829 46.6912 149.16C46.0278 149.824 46.0278 150.899 46.6912 151.563L48.3884 153.26Z" fill="#F7AD01"/>
<path d="M252.683 66.0284L250.985 67.7256C250.322 68.389 250.322 69.4647 250.985 70.1281C251.649 70.7915 252.724 70.7915 253.388 70.1281L255.085 68.4309L256.782 70.1281C257.446 70.7915 258.521 70.7915 259.185 70.1281C259.848 69.4647 259.848 68.389 259.185 67.7256L257.488 66.0284L259.185 64.3312C259.848 63.6678 259.848 62.5921 259.185 61.9287C258.853 61.597 258.418 61.4312 257.984 61.4312C257.549 61.4312 257.114 61.597 256.782 61.9287L255.085 63.6259L253.388 61.9287C253.056 61.597 252.621 61.4312 252.187 61.4312C251.752 61.4312 251.317 61.597 250.985 61.9287C250.322 62.5921 250.322 63.6678 250.985 64.3312L252.683 66.0284Z" fill="#F7AD01"/>
<path d="M221.605 306.078C224.342 306.078 226.568 308.304 226.568 311.04C226.568 313.776 224.342 316.002 221.605 316.002C218.869 316.002 216.643 313.776 216.643 311.04C216.643 308.304 218.869 306.078 221.605 306.078ZM221.605 312.605C222.468 312.605 223.17 311.903 223.17 311.04C223.17 310.177 222.468 309.475 221.605 309.475C220.743 309.475 220.041 310.177 220.041 311.04C220.041 311.903 220.743 312.605 221.605 312.605Z" fill="#F7AD01"/>
<path d="M315.133 147.951C317.869 147.951 320.095 150.177 320.095 152.913C320.095 155.65 317.869 157.876 315.133 157.876C312.397 157.876 310.17 155.65 310.17 152.913C310.17 150.177 312.397 147.951 315.133 147.951ZM315.133 154.478C315.996 154.478 316.698 153.776 316.698 152.913C316.698 152.051 315.996 151.349 315.133 151.349C314.27 151.349 313.568 152.051 313.568 152.913C313.568 153.776 314.27 154.478 315.133 154.478Z" fill="#F7AD01"/>
<path d="M107.392 68.3076C110.128 68.3076 112.354 70.5337 112.354 73.27C112.354 76.0063 110.128 78.2324 107.392 78.2324C104.656 78.2324 102.429 76.0063 102.429 73.27C102.43 70.5337 104.656 68.3076 107.392 68.3076ZM107.392 74.8348C108.255 74.8348 108.957 74.1329 108.957 73.2701C108.957 72.4073 108.255 71.7053 107.392 71.7053C106.529 71.7053 105.827 72.4072 105.827 73.2701C105.827 74.133 106.529 74.8348 107.392 74.8348Z" fill="#F7AD01"/>
<path d="M49.5803 223.249C52.3166 223.249 54.5427 225.475 54.5427 228.212C54.5427 230.948 52.3166 233.174 49.5803 233.174C46.844 233.174 44.6179 230.948 44.6179 228.212C44.6179 225.475 46.844 223.249 49.5803 223.249ZM49.5803 229.776C50.4432 229.776 51.1451 229.074 51.1451 228.212C51.1451 227.349 50.4432 226.647 49.5803 226.647C48.7174 226.647 48.0156 227.349 48.0156 228.212C48.0155 229.074 48.7174 229.776 49.5803 229.776Z" fill="#F7AD01"/>
</g>
<path d="M165.714 188.984C156.969 188.984 149.854 181.869 149.854 173.123V165.734C149.854 156.988 156.969 149.873 165.714 149.873C174.46 149.873 181.574 156.988 181.574 165.734V173.123C181.574 181.869 174.46 188.984 165.714 188.984Z" fill="#B3B3B3"/>
<path d="M188.516 122.26L198.843 111.934L209.876 122.967L244.677 88.166L255.004 98.4925L209.876 143.62L188.516 122.26Z" fill="white"/>
<path d="M191.213 155.453H187.5C180.646 155.453 175.069 149.877 175.069 143.022V113.023C175.069 106.168 180.646 100.592 187.5 100.592H232.387L209.876 123.103L198.842 112.069L188.651 122.26L209.876 143.485L239.382 113.979V143.022C239.382 149.877 233.806 155.453 226.951 155.453H213.316L191.143 171.543L191.213 155.453Z" fill="#FFCD57"/>
<path d="M174.223 279.129C170.015 279.129 166.498 276.117 165.714 272.136C164.93 276.117 161.413 279.129 157.206 279.129C152.568 279.129 148.764 275.501 148.544 270.869C147.874 256.745 146.488 231.193 144.727 218.745C143.256 208.353 138.124 198.789 130.275 191.818L130.184 191.737L115.936 176.623C114.496 175.184 113.701 173.265 113.701 171.224C113.701 169.182 114.496 167.263 115.94 165.821C117.382 164.378 119.301 163.583 121.342 163.583C123.353 163.583 125.252 164.358 126.687 165.765L126.704 165.782L126.776 165.857L143.967 184.686C145.298 186.016 146.851 187.053 148.586 187.772C150.323 188.492 152.157 188.856 154.038 188.856H177.391C179.271 188.856 181.106 188.492 182.843 187.772C184.581 187.052 186.136 186.013 187.465 184.683L204.688 165.817L204.744 165.762C206.176 164.358 208.074 163.584 210.086 163.584C212.128 163.584 214.046 164.379 215.489 165.821C218.468 168.8 218.468 173.647 215.489 176.627L201.244 191.737L201.154 191.817C193.304 198.789 188.172 208.353 186.702 218.745C184.94 231.193 183.554 256.745 182.884 270.869C182.665 275.501 178.86 279.129 174.223 279.129Z" fill="white"/>
<path d="M198.842 114.476L191.058 122.261L193.454 124.656L201.238 116.872L198.842 114.476ZM209.944 120.628L209.876 120.56L203.646 114.329L201.249 111.934L201.238 111.923L201.171 111.991L200.035 113.126L209.876 122.967L211.079 121.764L209.944 120.628ZM249.48 90.5621L247.073 88.1553L245.869 89.3587L244.666 90.5621L236.338 98.8899L233.942 101.286H189.896C182.103 101.286 175.763 107.625 175.763 115.419V145.418C175.763 146.144 175.818 146.858 175.925 147.554C176.259 149.75 177.101 151.781 178.326 153.524C178.473 153.734 178.626 153.94 178.784 154.14C178.82 154.186 178.856 154.233 178.893 154.278C176.671 152.544 174.023 151.332 171.136 150.828C170.152 150.656 169.142 150.567 168.11 150.567C158.426 150.567 150.548 158.445 150.548 168.129V175.519C150.548 176.554 150.638 177.566 150.81 178.552C151.343 181.602 152.666 184.383 154.558 186.677C154.692 186.839 154.828 186.998 154.966 187.155C155.503 187.761 156.082 188.33 156.697 188.857C156.977 189.097 157.265 189.328 157.56 189.55H156.434C154.864 189.55 153.332 189.262 151.874 188.692C151.793 188.661 151.713 188.629 151.633 188.595C150.115 187.967 148.757 187.062 147.592 185.904L146.284 184.471L130.445 167.123L130.414 167.088L130.381 167.054L130.341 167.012L130.275 166.946C129.98 166.658 129.67 166.391 129.346 166.147C127.969 165.109 126.342 164.479 124.618 164.318C124.327 164.291 124.033 164.277 123.738 164.277C121.242 164.277 118.896 165.249 117.132 167.014C115.367 168.777 114.396 171.123 114.396 173.62C114.396 173.918 114.409 174.213 114.437 174.506C114.637 176.657 115.569 178.653 117.11 180.205L129.953 193.827L131.259 195.213L131.288 195.243L131.393 195.355L131.507 195.457L131.541 195.487C131.746 195.669 131.949 195.853 132.15 196.04C137.759 201.218 141.855 207.8 144.042 215.05C144.665 217.112 145.133 219.227 145.437 221.38C147.189 233.76 148.572 259.251 149.24 273.346C149.251 273.571 149.268 273.794 149.294 274.015C149.428 275.23 149.77 276.378 150.285 277.426C150.538 277.942 150.832 278.434 151.164 278.897C151.679 279.617 152.285 280.266 152.963 280.83H157.119C157.148 280.831 157.177 280.831 157.206 280.831C157.261 280.831 157.315 280.831 157.371 280.83H166.226C166.931 280.244 167.557 279.567 168.086 278.816C168.094 278.805 168.101 278.793 168.11 278.782C168.135 278.818 168.16 278.854 168.186 278.889C168.703 279.61 169.311 280.262 169.993 280.83H174.058C174.113 280.831 174.167 280.831 174.222 280.831C174.251 280.831 174.28 280.831 174.309 280.83H183.258C184.372 279.903 185.289 278.744 185.936 277.426C186.542 276.188 186.91 274.809 186.98 273.346C187.648 259.251 189.031 233.759 190.782 221.38C192.196 211.387 197.131 202.191 204.678 195.487L204.709 195.46L204.824 195.358L204.93 195.246L219.11 180.205C222.73 176.56 222.724 170.649 219.089 167.014C218.681 166.606 218.242 166.241 217.778 165.921C216.471 165.018 214.961 164.467 213.366 164.319C213.074 164.292 212.779 164.278 212.482 164.278C211.114 164.278 209.788 164.571 208.58 165.127L210.675 163.607L212.587 162.22L216.264 159.551H229.347C237.14 159.551 243.48 153.211 243.48 145.418V117.215L257.399 103.296L259.806 100.888L249.48 90.5621ZM254.993 100.888L243.48 112.401V112.266L212.272 143.474L211.147 142.35L211.079 142.282L209.944 141.146L209.876 141.078L193.454 124.656L201.238 116.872L209.865 125.498L209.876 125.509L212.272 127.906L214.678 125.498L233.081 107.096L238.892 101.286H238.757L247.073 92.9688L252.597 98.4924L253.8 99.6958L254.993 100.888ZM230.538 104.69L212.272 122.956L211.147 121.831L211.079 121.764L209.944 120.628L209.876 120.56L203.646 114.329L201.249 111.934L201.238 111.923L201.171 111.991L200.035 113.126L199.967 113.194L198.831 114.329L190.912 122.249L189.776 123.385L189.708 123.453L188.504 124.656L190.912 127.063L209.876 146.027L212.272 148.424L214.678 146.016L237.68 123.015L240.076 120.619V145.418C240.076 151.334 235.263 156.147 229.347 156.147H215.696C215.345 156.147 215.009 156.257 214.724 156.463L205.89 162.873L203.462 164.635L195.255 170.59L195.264 168.552L195.274 166.443L195.311 157.809C195.313 157.372 195.137 156.944 194.829 156.634C194.521 156.325 194.094 156.147 193.657 156.147H189.896C188.452 156.147 187.072 155.86 185.813 155.339C183.962 154.576 182.371 153.308 181.211 151.709C179.925 149.941 179.167 147.766 179.167 145.418V115.419C179.167 109.503 183.98 104.69 189.896 104.69H230.538ZM163.134 188.774C162.036 188.36 161.002 187.813 160.052 187.155C158.889 186.347 157.853 185.369 156.979 184.258C155.083 181.85 153.952 178.815 153.952 175.519V168.129C153.952 160.323 160.303 153.971 168.11 153.971C171.405 153.971 174.44 155.103 176.849 156.998C178.865 158.583 180.441 160.704 181.362 163.144C181.948 164.695 182.269 166.376 182.269 168.129V175.519C182.269 180.335 179.852 184.596 176.168 187.155C175.153 187.859 174.042 188.434 172.859 188.857C171.946 189.183 170.991 189.418 170.004 189.55H166.215C165.228 189.418 164.273 189.183 163.362 188.857C163.285 188.83 163.21 188.802 163.134 188.774ZM189.494 159.545C189.628 159.549 189.762 159.551 189.896 159.551H191.9L191.852 170.575L191.85 171.03L191.841 173.139L191.823 177.288L192.085 177.097L197.255 173.345L198.912 172.143L205.665 167.243L188.627 185.905C187.463 187.063 186.104 187.967 184.587 188.595C183.058 189.229 181.442 189.55 179.786 189.55H178.66C179.034 189.269 179.396 188.973 179.746 188.662C180.559 187.941 181.306 187.145 181.974 186.287C184.291 183.312 185.673 179.574 185.673 175.519V168.129C185.673 163.806 184.101 159.844 181.5 156.78C183.75 158.446 186.507 159.462 189.494 159.545ZM216.681 177.819C216.67 177.83 216.66 177.842 216.65 177.852L202.452 192.911L202.418 192.941C194.268 200.181 188.938 210.111 187.412 220.903C185.64 233.42 184.251 259.032 183.58 273.184C183.503 274.81 182.876 276.282 181.883 277.426C180.603 278.898 178.717 279.823 176.618 279.823C175.511 279.823 174.463 279.563 173.533 279.101C172.702 278.69 171.965 278.118 171.362 277.426C171.094 277.118 170.852 276.787 170.642 276.434C170.011 275.387 169.649 274.162 169.649 272.854V240.711C169.649 239.862 168.959 239.172 168.11 239.172C167.793 239.172 167.498 239.269 167.253 239.434C166.842 239.71 166.571 240.179 166.571 240.711V272.854C166.571 273.335 166.522 273.804 166.429 274.258C166.183 275.453 165.63 276.538 164.858 277.426C163.579 278.893 161.696 279.823 159.602 279.823C158.489 279.823 157.438 279.563 156.504 279.1C155.675 278.689 154.939 278.118 154.337 277.426C154.07 277.12 153.831 276.789 153.622 276.439C153.047 275.482 152.696 274.374 152.64 273.184C151.969 259.032 150.579 233.419 148.808 220.903C147.328 210.445 142.278 200.796 134.55 193.621C134.302 193.392 134.053 193.166 133.801 192.941L133.767 192.911L133.736 192.878L132.36 191.419L119.57 177.852C119.559 177.84 119.548 177.83 119.538 177.819C118.417 176.698 117.8 175.207 117.8 173.62C117.8 172.033 118.417 170.541 119.538 169.421C120.66 168.299 122.151 167.681 123.738 167.681C124.943 167.681 126.096 168.039 127.071 168.704C127.361 168.902 127.636 169.126 127.892 169.377L127.931 169.418L143.951 186.965L145.108 188.232C145.123 188.25 145.138 188.265 145.155 188.282C146.644 189.771 148.385 190.935 150.33 191.741C152.275 192.546 154.328 192.954 156.434 192.954H166.001C166.693 193.037 167.396 193.081 168.11 193.081C168.824 193.081 169.527 193.037 170.219 192.954H179.786C181.891 192.954 183.945 192.546 185.89 191.741C187.835 190.935 189.576 189.771 191.064 188.283C191.08 188.266 191.097 188.25 191.112 188.232L208.308 169.397L208.328 169.377C209.443 168.284 210.918 167.682 212.482 167.682C213.485 167.682 214.449 167.929 215.307 168.393C215.806 168.664 216.269 169.009 216.681 169.421C217.101 169.84 217.445 170.308 217.712 170.805C218.92 173.054 218.577 175.923 216.681 177.819Z" fill="#DDDDDD"/>
<path d="M179.111 154.39C178.859 154.093 178.598 153.804 178.326 153.524C177.755 152.934 177.142 152.384 176.494 151.878C173.517 149.556 169.774 148.172 165.714 148.172C156.03 148.172 148.151 156.049 148.151 165.733V173.123C148.151 178.574 150.648 183.454 154.558 186.677C154.756 186.841 154.958 187 155.164 187.155C156.023 187.802 156.943 188.373 157.913 188.857C159.664 189.728 161.581 190.316 163.602 190.559C164.295 190.642 164.999 190.686 165.714 190.686C166.429 190.686 167.134 190.642 167.826 190.559C169.847 190.316 171.763 189.728 173.514 188.857C174.485 188.373 175.405 187.802 176.264 187.155C180.52 183.948 183.276 178.851 183.276 173.123V165.733C183.276 161.413 181.708 157.452 179.111 154.39ZM151.555 165.733C151.555 157.926 157.907 151.576 165.714 151.576C170.228 151.576 174.255 153.698 176.849 156.998C178.741 159.406 179.872 162.44 179.872 165.733V173.123C179.872 180.287 174.524 186.226 167.609 187.155C166.989 187.238 166.357 187.282 165.714 187.282C165.071 187.282 164.439 187.238 163.819 187.155C161.26 186.812 158.916 185.782 156.979 184.258C153.679 181.663 151.555 177.636 151.555 173.123V165.733Z" fill="#333333"/>
<path d="M249.48 90.562L247.073 88.1553L244.677 85.7587L242.27 88.1664L231.547 98.8899L209.876 120.56L198.842 109.527L196.436 111.934L188.515 119.853L186.109 122.261L188.504 124.656L190.912 127.063L209.876 146.027L212.283 143.62L241.084 114.819L255.004 100.899L257.41 98.4924L249.48 90.562ZM241.084 110.005L209.944 141.146L209.876 141.214L190.923 122.261L198.842 114.34L209.876 125.374L244.677 90.5731L247.073 92.9688L252.597 98.4924L241.084 110.005Z" fill="#333333"/>
<path d="M209.876 141.078L193.454 124.656L191.058 122.261L198.842 114.476L201.238 116.872L209.865 125.498L209.876 125.509L230.685 104.701L236.496 98.8899H187.501C179.707 98.8899 173.368 105.23 173.368 113.023V143.022C173.368 146.372 174.54 149.454 176.494 151.878C177.17 152.716 177.938 153.475 178.785 154.14C178.892 154.225 179.001 154.308 179.111 154.39C181.459 156.127 184.363 157.155 187.501 157.155H189.504L189.494 159.545L189.456 168.18L189.426 174.892L191.841 173.139L194.859 170.95L203.27 164.847L206.183 162.732L213.869 157.155H226.951C234.745 157.155 241.084 150.815 241.084 143.022V109.87L209.876 141.078ZM237.68 143.022C237.68 148.938 232.867 153.751 226.951 153.751H213.3C212.949 153.751 212.613 153.86 212.329 154.067L195.274 166.443L192.86 168.194L192.912 156.147L192.916 155.413C192.918 154.976 192.742 154.548 192.434 154.238C192.126 153.929 191.699 153.751 191.262 153.751H187.501C185.153 153.751 182.979 152.993 181.211 151.709C178.522 149.758 176.772 146.59 176.772 143.022V113.023C176.772 107.106 181.584 102.294 187.501 102.294H228.278L225.882 104.69L209.876 120.696L198.842 109.662L186.244 122.261L188.573 124.588L209.876 145.892L237.68 118.088V143.022Z" fill="#333333"/>
<path d="M217.778 165.921C217.462 165.462 217.1 165.026 216.692 164.618C215.534 163.46 214.125 162.643 212.587 162.22C211.782 161.997 210.943 161.882 210.086 161.882C208.718 161.882 207.392 162.175 206.183 162.732C206.085 162.777 205.987 162.823 205.891 162.873C205.041 163.3 204.254 163.861 203.556 164.544L203.535 164.563L203.465 164.632L203.462 164.635L203.398 164.706L203.27 164.847L192.085 177.097L186.231 183.51C185.067 184.666 183.708 185.571 182.191 186.2C182.12 186.23 182.047 186.259 181.974 186.287C180.509 186.863 178.969 187.155 177.39 187.155H154.037C152.381 187.155 150.766 186.834 149.237 186.2C148.171 185.758 147.182 185.179 146.284 184.471C145.905 184.174 145.541 183.853 145.196 183.509L129.347 166.147L128.049 164.727L128.018 164.692L127.985 164.658L127.945 164.617L127.912 164.582L127.878 164.549C126.123 162.829 123.802 161.881 121.342 161.881C118.847 161.881 116.501 162.853 114.736 164.617C112.971 166.381 111.999 168.727 111.999 171.224C111.999 173.71 112.963 176.047 114.714 177.808L128.864 192.817L128.891 192.848L128.997 192.959L129.111 193.061L129.145 193.091C129.417 193.332 129.687 193.578 129.953 193.827C130.715 194.54 131.448 195.277 132.15 196.04C138.002 202.378 141.825 210.386 143.042 218.984C144.793 231.363 146.176 256.856 146.844 270.949C146.963 273.449 147.954 275.704 149.515 277.426C150.011 277.973 150.564 278.467 151.164 278.897C152.846 280.101 154.901 280.813 157.119 280.83C157.148 280.831 157.177 280.831 157.206 280.831C157.261 280.831 157.315 280.831 157.371 280.83C160.344 280.783 163.019 279.479 164.882 277.426C165.181 277.098 165.459 276.75 165.714 276.385C165.969 276.75 166.247 277.098 166.546 277.426C167.011 277.938 167.527 278.405 168.086 278.816C168.119 278.841 168.153 278.865 168.186 278.889C169.847 280.081 171.871 280.795 174.058 280.83C174.113 280.831 174.167 280.831 174.222 280.831C174.251 280.831 174.28 280.831 174.309 280.83C177.32 280.806 180.031 279.503 181.913 277.426C183.475 275.704 184.466 273.449 184.584 270.949C185.252 256.856 186.635 231.363 188.387 218.984C189.801 208.991 194.736 199.795 202.282 193.091L202.314 193.064L202.429 192.962L202.533 192.85L216.714 177.808C219.929 174.573 220.283 169.55 217.778 165.921ZM170.642 276.434C168.613 275.215 167.253 272.993 167.253 270.458V238.315C167.253 237.467 166.562 236.776 165.714 236.776C164.866 236.776 164.175 237.467 164.175 238.315V270.458C164.175 274.27 161.098 277.378 157.296 277.426C157.267 277.427 157.236 277.427 157.206 277.427C157.177 277.427 157.148 277.427 157.119 277.426C155.843 277.411 154.647 277.053 153.622 276.439C151.686 275.279 150.359 273.203 150.244 270.788C149.573 256.635 148.183 231.023 146.413 218.507C145.091 209.172 140.926 200.482 134.55 193.621C133.847 192.864 133.117 192.129 132.36 191.419C132.047 191.124 131.728 190.833 131.405 190.546L131.371 190.515L131.34 190.482L117.174 175.456C117.163 175.444 117.153 175.434 117.143 175.423C116.021 174.301 115.403 172.81 115.403 171.224C115.403 169.637 116.021 168.146 117.143 167.025C118.264 165.904 119.756 165.285 121.342 165.285C122.905 165.285 124.38 165.888 125.496 166.981L125.536 167.022L127.071 168.704L142.711 185.836C142.727 185.853 142.743 185.869 142.759 185.886C143.14 186.268 143.538 186.627 143.951 186.965C145.152 187.948 146.487 188.745 147.934 189.344C149.879 190.15 151.933 190.559 154.037 190.559H177.39C179.496 190.559 181.549 190.15 183.494 189.344C185.439 188.539 187.18 187.375 188.668 185.887C188.685 185.87 188.7 185.854 188.716 185.836L205.912 167L205.932 166.981C207.047 165.888 208.523 165.286 210.086 165.286C211.673 165.286 213.164 165.904 214.286 167.025C214.7 167.44 215.041 167.902 215.307 168.393C216.526 170.643 216.185 173.522 214.286 175.424C214.274 175.435 214.264 175.445 214.254 175.456L200.057 190.515L200.023 190.546C191.872 197.784 186.543 207.715 185.016 218.507C183.245 231.024 181.855 256.636 181.184 270.788C181.009 274.481 177.998 277.381 174.31 277.426C174.281 277.427 174.252 277.427 174.222 277.427C174.193 277.427 174.163 277.427 174.133 277.426C172.858 277.41 171.665 277.051 170.642 276.434Z" fill="#333333"/>
<path d="M280.279 279.128C280.279 280.068 279.516 280.83 278.577 280.83H89.4232C88.4839 280.83 87.7212 280.068 87.7212 279.128C87.7212 278.188 88.4839 277.426 89.4232 277.426H278.577C279.516 277.426 280.279 278.188 280.279 279.128Z" fill="#333333"/>
<path d="M82.4005 280.831H74.649C73.7091 280.831 72.947 280.069 72.947 279.129C72.947 278.189 73.7091 277.427 74.649 277.427H82.4005C83.3404 277.427 84.1025 278.189 84.1025 279.129C84.1025 280.069 83.3404 280.831 82.4005 280.831Z" fill="#333333"/>
<path d="M120.554 272.49H112.803C111.863 272.49 111.101 271.728 111.101 270.788C111.101 269.848 111.863 269.086 112.803 269.086H120.554C121.494 269.086 122.256 269.848 122.256 270.788C122.256 271.728 121.494 272.49 120.554 272.49Z" fill="#333333"/>
<path d="M105.78 272.49H98.0287C97.0887 272.49 96.3267 271.728 96.3267 270.788C96.3267 269.848 97.0887 269.086 98.0287 269.086H105.78C106.72 269.086 107.482 269.848 107.482 270.788C107.482 271.728 106.72 272.49 105.78 272.49Z" fill="#333333"/>
<path d="M255.198 272.49H247.446C246.506 272.49 245.744 271.728 245.744 270.788C245.744 269.848 246.506 269.086 247.446 269.086H255.198C256.138 269.086 256.9 269.848 256.9 270.788C256.9 271.728 256.138 272.49 255.198 272.49Z" fill="#333333"/>
<path d="M269.972 272.49H262.22C261.28 272.49 260.518 271.728 260.518 270.788C260.518 269.848 261.28 269.086 262.22 269.086H269.972C270.912 269.086 271.674 269.848 271.674 270.788C271.674 271.728 270.911 272.49 269.972 272.49Z" fill="#333333"/>
<path d="M293.351 280.831H285.6C284.66 280.831 283.898 280.069 283.898 279.129C283.898 278.189 284.66 277.427 285.6 277.427H293.351C294.291 277.427 295.053 278.189 295.053 279.129C295.053 280.069 294.291 280.831 293.351 280.831Z" fill="#333333"/>
<defs>
<clipPath id="clip0_4066_490">
<rect width="368" height="368" fill="white"/>
</clipPath>
</defs>
</svg>
